{
.appVersion = "3086";
copyright = "Copyright 2021 The Mekorot Project Authors (https://github.com/googlefonts/mekorot)";
customParameters = (
{
name = fsType;
value = (
);
},
{
name = "Disable Last Change";
value = 1;
},
{
name = "Use Typo Metrics";
value = 1;
},
{
name = "Use Line Breaks";
value = 1;
},
{
name = "Axis Mappings";
value = {
wght = {
400 = 90;
500 = 110;
600 = 130;
700 = 140;
800 = 150;
};
};
},
{
name = "Variable Font Origin";
value = m01;
},
{
name = "Enforce Compatibility Check";
value = 0;
},
{
name = licenseURL;
value = "https://scripts.sil.org/OFL";
},
{
name = license;
value = "This Font Software is licensed under the SIL Open Font License, Version 1.1. This license is available with a FAQ at: https://scripts.sil.org/OFL";
},
{
name = Axes;
value = (
{
Name = Weight;
Tag = wght;
}
);
},
{
name = note;
value = "https://github.com/googlefonts/mekorot";
}
);
date = "2021-07-16 04:59:07 +0000";
designer = "Dr. Alan Hoenig";
designerURL = "https://ctan.org/tex-archive/language/hebrew/makor/";
disablesNiceNames = 1;
familyName = Mekorot;
fontMaster = (
{
alignmentZones = (
"{890, 10}",
"{740, 10}",
"{660, 10}",
"{560, 11}",
"{530, 10}",
"{450, 10}",
"{0, -10}",
"{-230, -10}"
);
ascender = 760;
capHeight = 660;
customParameters = (
{
name = hheaAscender;
value = 900;
},
{
name = hheaDescender;
value = -300;
},
{
name = hheaLineGap;
value = 0;
},
{
name = typoAscender;
value = 900;
},
{
name = typoDescender;
value = -300;
},
{
name = typoLineGap;
value = 0;
},
{
name = winAscent;
value = 1200;
},
{
name = winDescent;
value = 358;
},
{
name = underlinePosition;
value = -120;
},
{
name = underlineThickness;
value = 50;
},
{
name = strikeoutPosition;
value = 260;
},
{
name = strikeoutSize;
value = 50;
},
{
name = "Master Icon Glyph Name";
value = m;
}
);
descender = -240;
horizontalStems = (
55,
46
);
id = m01;
verticalStems = (
90,
80
);
weightValue = 90;
xHeight = 450;
},
{
alignmentZones = (
"{890, 10}",
"{740, 10}",
"{660, 10}",
"{560, 11}",

glyphs = (
{
color = 5;
glyphname = A;
layers = (
{
anchors = (
{
name = bottom;
position = "{376, 0}";
},
{
name = right;
position = "{614, 0}";
},
{
name = top;
position = "{376, 710}";
}
);
layerId = m01;
paths = (
{
closed = 1;
nodes = (
"239 0 LINE SMOOTH",
"246 0 OFFCURVE",
"249 3 OFFCURVE",
"249 9 CURVE SMOOTH",
"249 13 OFFCURVE",
"246 17 OFFCURVE",
"239 20 CURVE SMOOTH",
"180 44 LINE SMOOTH",
"172 47 OFFCURVE",
"169 50 OFFCURVE",
"169 56 CURVE SMOOTH",
"169 60 OFFCURVE",
"171 65 OFFCURVE",
"174 73 CURVE SMOOTH",
"235 225 LINE SMOOTH",
"237 231 OFFCURVE",
"242 235 OFFCURVE",
"249 235 CURVE SMOOTH",
"472 235 LINE SMOOTH",
"479 235 OFFCURVE",
"484 230 OFFCURVE",
"486 225 CURVE SMOOTH",
"547 74 LINE SMOOTH",
"550 67 OFFCURVE",
"553 59 OFFCURVE",
"553 54 CURVE SMOOTH",
"553 51 OFFCURVE",
"552 48 OFFCURVE",
"544 45 CURVE SMOOTH",
"479 20 LINE SMOOTH",
"471 17 OFFCURVE",
"469 13 OFFCURVE",
"469 9 CURVE SMOOTH",
"469 3 OFFCURVE",
"472 0 OFFCURVE",
"479 0 CURVE SMOOTH",
"707 0 LINE SMOOTH",
"714 0 OFFCURVE",
"717 3 OFFCURVE",
"717 9 CURVE SMOOTH",
"717 13 OFFCURVE",
"715 17 OFFCURVE",
"707 21 CURVE SMOOTH",
"663 45 LINE SMOOTH",
"650 52 OFFCURVE",
"648 57 OFFCURVE",
"641 74 CURVE SMOOTH",
"402 655 LINE SMOOTH",
"399 662 OFFCURVE",
"395 665 OFFCURVE",
"388 665 CURVE SMOOTH",
"363 665 LINE SMOOTH",
"356 665 OFFCURVE",
"352 662 OFFCURVE",
"349 655 CURVE SMOOTH",
"107 73 LINE SMOOTH",
"101 58 OFFCURVE",
"95 48 OFFCURVE",
"87 44 CURVE SMOOTH",
"43 21 LINE SMOOTH",
"35 17 OFFCURVE",
"33 13 OFFCURVE",
"33 9 CURVE SMOOTH",
"33 3 OFFCURVE",
"36 0 OFFCURVE",
"43 0 CURVE SMOOTH"
);
},
{
closed = 1;
nodes = (
"265 290 OFFCURVE",
"264 295 OFFCURVE",
"266 300 CURVE SMOOTH",
"353 516 LINE SMOOTH",
"355 521 OFFCURVE",
"357 525 OFFCURVE",
"361 525 CURVE SMOOTH",
"365 525 OFFCURVE",
"367 521 OFFCURVE",
"369 516 CURVE SMOOTH",
"456 300 LINE SMOOTH",
"458 295 OFFCURVE",
"457 290 OFFCURVE",
"450 290 CURVE SMOOTH",
"272 290 LINE SMOOTH"
);
}
);
width = 750;
},
{
anchors = (
{
name = bottom;
position = "{339, 0}";
},
{
name = right;
position = "{650, 0}";
},
{
name = top;
position = "{392, 710}";
}
);
layerId = m002;
paths = (
{
closed = 1;
nodes = (
"217 0 LINE SMOOTH",
"224 0 OFFCURVE",
"227 3 OFFCURVE",
"227 9 CURVE SMOOTH",
"227 13 OFFCURVE",
"225 17 OFFCURVE",
"216 21 CURVE SMOOTH",
"165 44 LINE SMOOTH",
"154 49 OFFCURVE",
"150 52 OFFCURVE",
"150 60 CURVE SMOOTH",
"150 62 OFFCURVE",
"150 65 OFFCURVE",
"155 77 CURVE SMOOTH",
"205 197 LINE SMOOTH",
"207 203 OFFCURVE",
"212 207 OFFCURVE",
"219 207 CURVE SMOOTH",
"432 207 LINE SMOOTH",
"439 207 OFFCURVE",
"444 202 OFFCURVE",
"446 197 CURVE SMOOTH",
"497 75 LINE SMOOTH",
"502 63 OFFCURVE",
"503 60 OFFCURVE",
"503 57 CURVE SMOOTH",
"503 53 OFFCURVE",
"501 51 OFFCURVE",
"494 48 CURVE SMOOTH",
"429 20 LINE SMOOTH",
"422 17 OFFCURVE",
"420 13 OFFCURVE",
"420 9 CURVE SMOOTH",
"420 3 OFFCURVE",
"423 0 OFFCURVE",
"430 0 CURVE SMOOTH",
"770 0 LINE SMOOTH",
"777 0 OFFCURVE",
"780 3 OFFCURVE",
"780 9 CURVE SMOOTH",
"780 13 OFFCURVE",
"778 17 OFFCURVE",
"770 21 CURVE SMOOTH",
"723 45 LINE SMOOTH",
"710 52 OFFCURVE",
"708 57 OFFCURVE",
"701 74 CURVE SMOOTH",
"453 655 LINE SMOOTH",
"450 662 OFFCURVE",
"446 665 OFFCURVE",
"439 665 CURVE SMOOTH",
"343 665 LINE SMOOTH",
"336 665 OFFCURVE",
"332 662 OFFCURVE",
"329 655 CURVE SMOOTH",
"79 74 LINE SMOOTH",
"72 58 OFFCURVE",
"69 51 OFFCURVE",
"59 45 CURVE SMOOTH",
"20 22 LINE SMOOTH",
"13 18 OFFCURVE",
"10 14 OFFCURVE",
"10 9 CURVE SMOOTH",
"10 3 OFFCURVE",
"13 0 OFFCURVE",
"20 0 CURVE SMOOTH"
);
},
{
closed = 1;
nodes = (
"235 262 OFFCURVE",
"234 267 OFFCURVE",
"236 272 CURVE SMOOTH",
"317 466 LINE SMOOTH",
"319 471 OFFCURVE",
"321 475 OFFCURVE",
"325 475 CURVE SMOOTH",
"329 475 OFFCURVE",
"331 471 OFFCURVE",
"333 466 CURVE SMOOTH",
"415 272 LINE SMOOTH",
"417 267 OFFCURVE",
"416 262 OFFCURVE",
"409 262 CURVE SMOOTH",
"242 262 LINE SMOOTH"
);
}
);
width = 790;
},
{
anchors = (
{
name = bottom;
position = "{376, 0}";
},
{
name = right;
position = "{614, 0}";
},
{
name = top;
position = "{376, 710}";
}
);
associatedMasterId = m01;
layerId = "5E0F49AF-6F15-4AB5-86AB-424FB0D7332B";
name = "Sep 4, 21, 17:13";
paths = (
{
closed = 1;
nodes = (
"249 0 LINE",
"249 16 LINE",
"152 55 LINE",
"156 28 LINE",
"386 599 LINE",
"335 599 LINE",
"566 28 LINE",
"578 58 LINE",
"469 16 LINE",
"469 0 LINE",
"717 0 LINE",
"717 16 LINE",
"610 73 LINE",
"660 28 LINE",
"398 665 LINE",
"353 665 LINE",
"88 28 LINE",
"119 61 LINE",
"33 16 LINE",
"33 0 LINE"
);
},
{
closed = 1;
nodes = (
"524 235 LINE",
"524 290 LINE",
"204 290 LINE",
"204 235 LINE"
);
}
);
width = 750;
},
{
anchors = (
{
name = bottom;
position = "{339, 0}";
},
{
name = right;
position = "{650, 0}";
},
{
name = top;
position = "{392, 710}";
}
);
associatedMasterId = m002;
layerId = "06EDCD22-488E-450B-817C-AF1740EF3E36";
name = "Jan 4, 22, 17:50";
paths = (
{
closed = 1;
nodes = (
"227 0 LINE",
"227 16 LINE",
"125 62 LINE",
"134 28 LINE",
"348 539 LINE",
"303 539 LINE",
"517 28 LINE",
"529 63 LINE",
"420 16 LINE",
"420 0 LINE",
"780 0 LINE",
"780 16 LINE",
"686 64 LINE",
"721 28 LINE",
"449 665 LINE",
"334 665 LINE",
"59 28 LINE",
"88 62 LINE",
"10 16 LINE",
"10 0 LINE"
);
},
{
closed = 1;
nodes = (
"568 207 LINE",
"568 262 LINE",
"178 262 LINE",
"178 207 LINE"
);
}
);
width = 790;
}
);
leftKerningGroup = kern_A3;
rightKerningGroup = kern_A3;
unicode = 0041;
},
{
color = 5;
glyphname = AE;
layers = (
{
anchors = (
{
name = top;
position = "{535, 710}";
}
);
layerId = m01;
paths = (
{
closed = 1;
nodes = (
"892 0 LINE SMOOTH",
"905 0 OFFCURVE",
"912 7 OFFCURVE",
"912 20 CURVE SMOOTH",
"912 162 LINE SMOOTH",
"912 172 OFFCURVE",
"912 182 OFFCURVE",
"902 182 CURVE SMOOTH",
"879 182 OFFCURVE",
"854 55 OFFCURVE",
"804 55 CURVE SMOOTH",
"585 55 LINE SMOOTH",
"572 55 OFFCURVE",
"565 62 OFFCURVE",
"565 75 CURVE SMOOTH",
"565 293 LINE SMOOTH",
"565 303 OFFCURVE",
"572 313 OFFCURVE",
"585 313 CURVE SMOOTH",
"715 313 LINE SMOOTH",
"751 313 OFFCURVE",
"773 232 OFFCURVE",
"791 232 CURVE SMOOTH",
"801 232 OFFCURVE",
"801 242 OFFCURVE",
"801 252 CURVE SMOOTH",
"801 431 LINE SMOOTH",
"801 441 OFFCURVE",
"801 451 OFFCURVE",
"791 451 CURVE SMOOTH",
"773 451 OFFCURVE",
"751 368 OFFCURVE",
"715 368 CURVE SMOOTH",
"585 368 LINE SMOOTH",
"572 368 OFFCURVE",
"565 375 OFFCURVE",
"565 388 CURVE SMOOTH",
"565 585 LINE SMOOTH",
"565 597 OFFCURVE",
"573 605 OFFCURVE",
"585 605 CURVE SMOOTH",
"776 605 LINE SMOOTH",
"826 605 OFFCURVE",
"854 488 OFFCURVE",
"874 488 CURVE SMOOTH",
"884 488 OFFCURVE",
"884 498 OFFCURVE",
"884 508 CURVE SMOOTH",
"884 640 LINE SMOOTH",
"884 660 OFFCURVE",
"874 660 OFFCURVE",
"864 660 CURVE SMOOTH",
"518 660 LINE SMOOTH",
"470 660 OFFCURVE",
"464 660 OFFCURVE",
"439 619 CURVE SMOOTH",
"102 66 LINE SMOOTH",
"85 38 OFFCURVE",
"31 21 OFFCURVE",
"31 9 CURVE SMOOTH",
"31 2 OFFCURVE",
"35 0 OFFCURVE",
"41 0 CURVE SMOOTH",
"237 0 LINE SMOOTH",
"244 0 OFFCURVE",
"247 4 OFFCURVE",
"247 10 CURVE SMOOTH",
"247 25 OFFCURVE",
"175 42 OFFCURVE",
"175 65 CURVE SMOOTH",
"175 70 OFFCURVE",
"181 80 OFFCURVE",
"191 97 CURVE SMOOTH",
"265 225 LINE SMOOTH",
"269 231 OFFCURVE",
"273 235 OFFCURVE",
"281 235 CURVE SMOOTH",
"455 235 LINE SMOOTH",
"471 235 OFFCURVE",
"475 231 OFFCURVE",
"475 215 CURVE SMOOTH",
"475 86 LINE SMOOTH",
"475 36 OFFCURVE",
"395 27 OFFCURVE",
"395 10 CURVE SMOOTH",
"395 3 OFFCURVE",
"401 0 OFFCURVE",
"407 0 CURVE SMOOTH"
);
},
{
closed = 1;
nodes = (
"313 290 OFFCURVE",
"308 295 OFFCURVE",
"311 300 CURVE SMOOTH",
"462 556 LINE SMOOTH",
"467 564 OFFCURVE",
"469 567 OFFCURVE",
"472 567 CURVE SMOOTH",
"475 567 OFFCURVE",
"475 564 OFFCURVE",
"475 556 CURVE SMOOTH",
"475 310 LINE SMOOTH",
"475 294 OFFCURVE",
"471 290 OFFCURVE",
"455 290 CURVE SMOOTH",
"319 290 LINE SMOOTH"
);
}
);
width = 982;
},
{
anchors = (
{
name = top;
position = "{580, 710}";
}
);
layerId = m002;
paths = (
{
closed = 1;
nodes = (
"979 0 LINE SMOOTH",
"992 0 OFFCURVE",
"999 7 OFFCURVE",
"999 20 CURVE SMOOTH",
"999 199 LINE SMOOTH",
"999 209 OFFCURVE",
"999 219 OFFCURVE",
"989 219 CURVE SMOOTH",
"966 219 OFFCURVE",
"908 55 OFFCURVE",
"858 55 CURVE SMOOTH",
"688 55 LINE SMOOTH",
"675 55 OFFCURVE",
"668 62 OFFCURVE",
"668 75 CURVE SMOOTH",
"668 293 LINE SMOOTH",
"668 303 OFFCURVE",
"675 313 OFFCURVE",
"688 313 CURVE SMOOTH",
"790 313 LINE SMOOTH",
"826 313 OFFCURVE",
"860 227 OFFCURVE",
"878 227 CURVE SMOOTH",
"888 227 OFFCURVE",
"888 237 OFFCURVE",
"888 247 CURVE SMOOTH",
"888 436 LINE SMOOTH",
"888 446 OFFCURVE",
"888 456 OFFCURVE",
"878 456 CURVE SMOOTH",
"860 456 OFFCURVE",
"826 368 OFFCURVE",
"790 368 CURVE SMOOTH",
"688 368 LINE SMOOTH",
"675 368 OFFCURVE",
"668 375 OFFCURVE",
"668 388 CURVE SMOOTH",
"668 585 LINE SMOOTH",
"668 597 OFFCURVE",
"676 605 OFFCURVE",
"688 605 CURVE SMOOTH",
"844 605 LINE SMOOTH",
"894 605 OFFCURVE",
"941 486 OFFCURVE",
"961 486 CURVE SMOOTH",
"971 486 OFFCURVE",
"971 496 OFFCURVE",
"971 506 CURVE SMOOTH",
"971 640 LINE SMOOTH",
"971 660 OFFCURVE",
"961 660 OFFCURVE",
"951 660 CURVE SMOOTH",
"518 660 LINE SMOOTH",
"470 660 OFFCURVE",
"465 660 OFFCURVE",
"439 619 CURVE SMOOTH",
"84 66 LINE SMOOTH",
"66 38 OFFCURVE",
"10 21 OFFCURVE",
"10 9 CURVE SMOOTH",
"10 2 OFFCURVE",
"14 0 OFFCURVE",
"20 0 CURVE SMOOTH",
"217 0 LINE SMOOTH",
"224 0 OFFCURVE",
"227 4 OFFCURVE",
"227 10 CURVE SMOOTH",
"227 25 OFFCURVE",
"163 42 OFFCURVE",
"163 65 CURVE SMOOTH",
"163 70 OFFCURVE",
"169 82 OFFCURVE",
"179 97 CURVE SMOOTH",
"255 217 LINE SMOOTH",
"259 223 OFFCURVE",
"263 227 OFFCURVE",
"271 227 CURVE SMOOTH",
"458 227 LINE SMOOTH",
"474 227 OFFCURVE",
"478 223 OFFCURVE",
"478 207 CURVE SMOOTH",
"478 86 LINE SMOOTH",
"478 46 OFFCURVE",
"389 27 OFFCURVE",
"389 10 CURVE SMOOTH",
"389 3 OFFCURVE",
"395 0 OFFCURVE",
"401 0 CURVE SMOOTH"
);
},
{
closed = 1;
nodes = (
"306 282 OFFCURVE",
"301 287 OFFCURVE",
"304 292 CURVE SMOOTH",
"465 545 LINE SMOOTH",
"468 550 OFFCURVE",
"471 553 OFFCURVE",
"474 553 CURVE SMOOTH",
"477 553 OFFCURVE",
"478 550 OFFCURVE",
"478 545 CURVE SMOOTH",
"475 302 LINE SMOOTH",
"475 286 OFFCURVE",
"471 282 OFFCURVE",
"455 282 CURVE SMOOTH",
"312 282 LINE SMOOTH"
);
}
);
width = 1059;
},
{
anchors = (
{
name = top;
position = "{535, 710}";
}
);
associatedMasterId = m01;
layerId = "BCF99ADD-44B1-4E93-81BD-D60E96CB8771";
name = "Dec 17, 21, 18:37";
paths = (
{
closed = 1;
nodes = (
"79 28 LINE",
"141 75 LINE",
"28 16 LINE",
"28 0 LINE",
"243 0 LINE",
"243 16 LINE",
"142 59 LINE",
"150 28 LINE",
"490 603 LINE",
"475 603 LINE",
"475 56 LINE",
"395 16 LINE",
"395 0 LINE",
"565 0 LINE",
"565 660 LINE",
"464 660 LINE"
);
},
{
closed = 1;
nodes = (
"508 235 LINE",
"508 290 LINE",
"258 290 LINE",
"258 235 LINE"
);
},
{
closed = 1;
nodes = (
"512 660 LINE",
"512 605 LINE",
"806 605 LINE",
"868 488 LINE",
"884 488 LINE",
"884 660 LINE"
);
},
{
closed = 1;
nodes = (
"735 313 LINE",
"785 232 LINE",
"801 232 LINE",
"801 451 LINE",
"785 451 LINE",
"735 368 LINE",
"520 368 LINE",
"520 313 LINE"
);
},
{
closed = 1;
nodes = (
"912 182 LINE",
"896 182 LINE",
"834 55 LINE",
"540 55 LINE",
"540 0 LINE",
"912 0 LINE"
);
}
);
width = 982;
},
{
anchors = (
{
name = top;
position = "{580, 710}";
}
);
associatedMasterId = m002;
layerId = "E15231AF-F8B2-4B84-BD61-AC5B66FD2DB0";
name = "Dec 17, 21, 18:37";
paths = (
{
closed = 1;
nodes = (
"59 28 LINE",
"129 83 LINE",
"10 16 LINE",
"10 0 LINE",
"227 0 LINE",
"227 16 LINE",
"125 62 LINE",
"134 28 LINE",
"500 599 LINE",
"478 599 LINE",
"478 58 LINE",
"389 16 LINE",
"389 0 LINE",
"668 0 LINE",
"668 660 LINE",
"464 660 LINE"
);
},
{
closed = 1;
nodes = (
"543 227 LINE",
"543 282 LINE",
"223 282 LINE",
"223 227 LINE"
);
},
{
closed = 1;
nodes = (
"566 660 LINE",
"566 605 LINE",
"873 605 LINE",
"955 486 LINE",
"971 486 LINE",
"971 660 LINE"
);
},
{
closed = 1;
nodes = (
"812 313 LINE",
"872 227 LINE",
"888 227 LINE",
"888 456 LINE",
"872 456 LINE",
"812 368 LINE",
"574 368 LINE",
"574 313 LINE"
);
},
{
closed = 1;
nodes = (
"999 219 LINE",
"983 219 LINE",
"894 55 LINE",
"594 55 LINE",
"594 0 LINE",
"999 0 LINE"
);
}
);
visible = 1;
width = 1059;
}
);
leftKerningGroup = kern_AE2;
rightKerningGroup = kern_E1;
unicode = 00C6;
},
{
color = 5;
glyphname = B;
layers = (
{
layerId = m01;
paths = (
{
closed = 1;
nodes = (
"350 0 LINE SMOOTH",
"493 0 OFFCURVE",
"606 82 OFFCURVE",
"606 192 CURVE SMOOTH",
"606 284 OFFCURVE",
"535 333 OFFCURVE",
"446 353 CURVE SMOOTH",
"437 355 OFFCURVE",
"431 356 OFFCURVE",
"431 359 CURVE SMOOTH",
"431 362 OFFCURVE",
"437 364 OFFCURVE",
"446 368 CURVE SMOOTH",
"500 392 OFFCURVE",
"549 443 OFFCURVE",
"549 512 CURVE SMOOTH",
"549 611 OFFCURVE",
"451 660 OFFCURVE",
"318 660 CURVE SMOOTH",
"75 660 LINE SMOOTH",
"68 660 OFFCURVE",
"65 657 OFFCURVE",
"65 651 CURVE SMOOTH",
"65 645 OFFCURVE",
"69 642 OFFCURVE",
"75 639 CURVE SMOOTH",
"135 609 LINE SMOOTH",
"143 605 OFFCURVE",
"145 601 OFFCURVE",
"145 594 CURVE SMOOTH",
"145 66 LINE SMOOTH",
"145 59 OFFCURVE",
"143 55 OFFCURVE",
"135 51 CURVE SMOOTH",
"75 21 LINE SMOOTH",
"67 17 OFFCURVE",
"65 14 OFFCURVE",
"65 9 CURVE SMOOTH",
"65 3 OFFCURVE",
"68 0 OFFCURVE",
"75 0 CURVE SMOOTH"
);
},
{
closed = 1;
nodes = (
"238 55 OFFCURVE",
"235 58 OFFCURVE",
"235 65 CURVE SMOOTH",
"235 303 LINE SMOOTH",
"235 310 OFFCURVE",
"238 313 OFFCURVE",
"245 313 CURVE SMOOTH",
"333 313 LINE SMOOTH",
"446 313 OFFCURVE",
"509 274 OFFCURVE",
"509 184 CURVE SMOOTH",
"509 108 OFFCURVE",
"444 55 OFFCURVE",
"340 55 CURVE SMOOTH",
"245 55 LINE SMOOTH"
);
},
{
closed = 1;
nodes = (
"238 368 OFFCURVE",
"235 371 OFFCURVE",
"235 378 CURVE SMOOTH",
"235 595 LINE SMOOTH",
"235 602 OFFCURVE",
"238 605 OFFCURVE",
"245 605 CURVE SMOOTH",
"295 605 LINE SMOOTH",
"400 605 OFFCURVE",
"452 564 OFFCURVE",
"452 484 CURVE SMOOTH",
"452 411 OFFCURVE",
"398 368 OFFCURVE",
"301 368 CURVE SMOOTH",
"245 368 LINE SMOOTH"
);
}
);
width = 658;
},
{
layerId = m002;
paths = (
{
closed = 1;
nodes = (
"409 0 LINE SMOOTH",
"581 0 OFFCURVE",
"717 72 OFFCURVE",
"717 192 CURVE SMOOTH",
"717 294 OFFCURVE",
"618 333 OFFCURVE",
"529 353 CURVE SMOOTH",
"520 355 OFFCURVE",
"514 356 OFFCURVE",
"514 359 CURVE SMOOTH",
"514 361 OFFCURVE",
"516 363 OFFCURVE",
"529 367 CURVE SMOOTH",
"586 384 OFFCURVE",
"656 433 OFFCURVE",
"656 512 CURVE SMOOTH",
"656 611 OFFCURVE",
"545 660 OFFCURVE",
"392 660 CURVE SMOOTH",
"40 660 LINE SMOOTH",
"33 660 OFFCURVE",
"30 657 OFFCURVE",
"30 651 CURVE SMOOTH",
"30 645 OFFCURVE",
"34 642 OFFCURVE",
"40 639 CURVE SMOOTH",
"106 608 LINE SMOOTH",
"115 604 OFFCURVE",
"119 601 OFFCURVE",
"119 594 CURVE SMOOTH",
"119 66 LINE SMOOTH",
"119 59 OFFCURVE",
"115 56 OFFCURVE",
"106 52 CURVE SMOOTH",
"40 21 LINE SMOOTH",
"32 17 OFFCURVE",
"30 14 OFFCURVE",
"30 9 CURVE SMOOTH",
"30 3 OFFCURVE",
"33 0 OFFCURVE",
"40 0 CURVE SMOOTH"
);
},
{
closed = 1;
nodes = (
"312 55 OFFCURVE",
"309 58 OFFCURVE",
"309 65 CURVE SMOOTH",
"309 308 LINE SMOOTH",
"309 315 OFFCURVE",
"312 318 OFFCURVE",
"319 318 CURVE SMOOTH",
"357 318 LINE SMOOTH",
"455 318 OFFCURVE",
"516 280 OFFCURVE",
"516 190 CURVE SMOOTH",
"516 114 OFFCURVE",
"468 55 OFFCURVE",
"372 55 CURVE SMOOTH",
"319 55 LINE SMOOTH"
);
},
{
closed = 1;
nodes = (
"312 363 OFFCURVE",
"309 366 OFFCURVE",
"309 373 CURVE SMOOTH",
"309 595 LINE SMOOTH",
"309 602 OFFCURVE",
"312 605 OFFCURVE",
"319 605 CURVE SMOOTH",
"339 605 LINE SMOOTH",
"415 605 OFFCURVE",
"466 564 OFFCURVE",
"466 484 CURVE SMOOTH",
"466 411 OFFCURVE",
"414 363 OFFCURVE",
"344 363 CURVE SMOOTH",
"319 363 LINE SMOOTH"
);
}
);
width = 737;
},
{
associatedMasterId = m01;
layerId = "1940F693-B751-47B2-B276-268A9F1CCE9E";
name = "Sep 4, 21, 18:33";
paths = (
{
closed = 1;
nodes = (
"235 0 LINE",
"235 660 LINE",
"65 660 LINE",
"65 644 LINE",
"145 604 LINE",
"145 56 LINE",
"65 16 LINE",
"65 0 LINE"
);
},
{
closed = 1;
nodes = (
"493 0 OFFCURVE",
"606 82 OFFCURVE",
"606 192 CURVE SMOOTH",
"606 298 OFFCURVE",
"507 363 OFFCURVE",
"346 363 CURVE",
"338 348 LINE",
"472 348 OFFCURVE",
"549 426 OFFCURVE",
"549 512 CURVE SMOOTH",
"549 611 OFFCURVE",
"451 660 OFFCURVE",
"318 660 CURVE SMOOTH",
"182 660 LINE",
"182 605 LINE",
"295 605 LINE SMOOTH",
"400 605 OFFCURVE",
"452 564 OFFCURVE",
"452 484 CURVE SMOOTH",
"452 411 OFFCURVE",
"396 368 OFFCURVE",
"301 368 CURVE SMOOTH",
"190 368 LINE",
"190 313 LINE",
"333 313 LINE SMOOTH",
"446 313 OFFCURVE",
"509 274 OFFCURVE",
"509 184 CURVE SMOOTH",
"509 108 OFFCURVE",
"445 55 OFFCURVE",
"340 55 CURVE SMOOTH",
"210 55 LINE",
"210 0 LINE",
"341 0 LINE SMOOTH"
);
}
);
width = 658;
},
{
associatedMasterId = m002;
layerId = "7A17D213-3C29-424F-A57E-25012312F230";
name = "Jan 5, 22, 15:51";
paths = (
{
closed = 1;
nodes = (
"309 0 LINE",
"309 660 LINE",
"30 660 LINE",
"30 644 LINE",
"119 602 LINE",
"119 58 LINE",
"30 16 LINE",
"30 0 LINE"
);
},
{
closed = 1;
nodes = (
"590 0 OFFCURVE",
"717 82 OFFCURVE",
"717 192 CURVE SMOOTH",
"717 298 OFFCURVE",
"596 363 OFFCURVE",
"407 363 CURVE",
"407 348 LINE",
"564 348 OFFCURVE",
"656 426 OFFCURVE",
"656 512 CURVE SMOOTH",
"656 611 OFFCURVE",
"543 660 OFFCURVE",
"393 660 CURVE SMOOTH",
"227 660 LINE",
"227 605 LINE",
"327 605 LINE SMOOTH",
"420 605 OFFCURVE",
"466 561 OFFCURVE",
"466 480 CURVE SMOOTH",
"466 409 OFFCURVE",
"416 363 OFFCURVE",
"332 363 CURVE SMOOTH",
"227 363 LINE",
"227 318 LINE",
"360 318 LINE SMOOTH",
"460 318 OFFCURVE",
"516 275 OFFCURVE",
"516 189 CURVE SMOOTH",
"516 112 OFFCURVE",
"459 55 OFFCURVE",
"367 55 CURVE SMOOTH",
"227 55 LINE",
"227 0 LINE",
"418 0 LINE SMOOTH"
);
}
);
width = 737;
}
);
leftKerningGroup = kern_H2;
rightKerningGroup = kern_B1;
unicode = 0042;
},
{
color = 5;
glyphname = C;
layers = (
{
anchors = (
{
name = bottom;
position = "{400, 0}";
},
{
name = top;
position = "{389, 710}";
}
);
layerId = m01;
paths = (
{
closed = 1;
nodes = (
"510 -10 OFFCURVE",
"573 18 OFFCURVE",
"619 39 CURVE SMOOTH",
"627 43 OFFCURVE",
"631 48 OFFCURVE",
"634 66 CURVE SMOOTH",
"654 208 LINE SMOOTH",
"655 215 OFFCURVE",
"651 218 OFFCURVE",
"645 218 CURVE SMOOTH",
"640 218 OFFCURVE",
"637 216 OFFCURVE",
"631 207 CURVE SMOOTH",
"559 105 LINE SMOOTH",
"531 65 OFFCURVE",
"469 41 OFFCURVE",
"398 41 CURVE SMOOTH",
"268 41 OFFCURVE",
"163 152 OFFCURVE",
"163 342 CURVE SMOOTH",
"163 504 OFFCURVE",
"269 620 OFFCURVE",
"413 620 CURVE SMOOTH",
"488 620 OFFCURVE",
"519 573 OFFCURVE",
"530 557 CURVE SMOOTH",
"599 457 LINE SMOOTH",
"604 449 OFFCURVE",
"607 447 OFFCURVE",
"613 447 CURVE SMOOTH",
"619 447 OFFCURVE",
"622 450 OFFCURVE",
"622 457 CURVE SMOOTH",
"618 613 LINE SMOOTH",
"618 619 OFFCURVE",
"616 623 OFFCURVE",
"608 627 CURVE SMOOTH",
"568 647 OFFCURVE",
"515 670 OFFCURVE",
"415 670 CURVE SMOOTH",
"228 670 OFFCURVE",
"70 501 OFFCURVE",
"70 312 CURVE SMOOTH",
"70 126 OFFCURVE",
"195 -10 OFFCURVE",
"400 -10 CURVE SMOOTH"
);
}
);
width = 726;
},
{
anchors = (
{
name = bottom;
position = "{396, 0}";
},
{
name = top;
position = "{393, 710}";
}
);
layerId = m002;
paths = (
{
closed = 1;
nodes = (
"500 -10 OFFCURVE",
"570 14 OFFCURVE",
"616 35 CURVE SMOOTH",
"624 39 OFFCURVE",
"629 44 OFFCURVE",
"631 62 CURVE SMOOTH",
"645 209 LINE SMOOTH",
"646 216 OFFCURVE",
"642 219 OFFCURVE",
"636 219 CURVE SMOOTH",
"631 219 OFFCURVE",
"625 215 OFFCURVE",
"620 208 CURVE SMOOTH",
"534 91 LINE SMOOTH",
"517 68 OFFCURVE",
"487 45 OFFCURVE",
"420 45 CURVE SMOOTH",
"307 45 OFFCURVE",
"234 153 OFFCURVE",
"234 332 CURVE SMOOTH",
"234 494 OFFCURVE",
"328 620 OFFCURVE",
"413 620 CURVE SMOOTH",
"480 620 OFFCURVE",
"504 603 OFFCURVE",
"515 587 CURVE SMOOTH",
"614 438 LINE SMOOTH",
"619 430 OFFCURVE",
"623 428 OFFCURVE",
"629 428 CURVE SMOOTH",
"635 428 OFFCURVE",
"639 431 OFFCURVE",
"638 438 CURVE SMOOTH",
"626 598 LINE SMOOTH",
"625 613 OFFCURVE",
"621 623 OFFCURVE",
"611 628 CURVE SMOOTH",
"570 648 OFFCURVE",
"525 670 OFFCURVE",
"415 670 CURVE SMOOTH",
"206 670 OFFCURVE",
"35 511 OFFCURVE",
"35 312 CURVE SMOOTH",
"35 126 OFFCURVE",
"195 -10 OFFCURVE",
"400 -10 CURVE SMOOTH"
);
}
);
width = 701;
},
{
anchors = (
{
name = bottom;
position = "{400, 0}";
},
{
name = top;
position = "{389, 710}";
}
);
associatedMasterId = m01;
layerId = "907C6FB9-1AE2-4F4E-89E9-E9A14BEE4A5A";
name = "Jan 5, 22, 17:30";
paths = (
{
closed = 1;
nodes = (
"510 -10 OFFCURVE",
"564 10 OFFCURVE",
"623 39 CURVE",
"634 198 LINE",
"617 198 LINE",
"540 62 LINE",
"578 106 LINE",
"535 76 OFFCURVE",
"486 41 OFFCURVE",
"398 41 CURVE SMOOTH",
"268 41 OFFCURVE",
"163 152 OFFCURVE",
"163 342 CURVE SMOOTH",
"163 504 OFFCURVE",
"269 620 OFFCURVE",
"413 620 CURVE SMOOTH",
"467 620 OFFCURVE",
"502 600 OFFCURVE",
"565 554 CURVE",
"529 599 LINE",
"605 447 LINE",
"623 447 LINE",
"618 622 LINE",
"563.216 648.894 OFFCURVE",
"515 670 OFFCURVE",
"415 670 CURVE SMOOTH",
"228 670 OFFCURVE",
"70 501.471 OFFCURVE",
"70 312 CURVE SMOOTH",
"70 126 OFFCURVE",
"195 -10 OFFCURVE",
"400 -10 CURVE SMOOTH"
);
}
);
width = 726;
},
{
anchors = (
{
name = bottom;
position = "{396, 0}";
},
{
name = top;
position = "{393, 710}";
}
);
associatedMasterId = m002;
layerId = "04B03A56-2F7C-401E-8EE4-F88469DCE428";
name = "Jan 5, 22, 17:36";
paths = (
{
closed = 1;
nodes = (
"486 -10 OFFCURVE",
"578 10 OFFCURVE",
"629 44 CURVE",
"646 219 LINE",
"628 219 LINE",
"505 51 LINE",
"541 82 LINE",
"500 54 OFFCURVE",
"462 45 OFFCURVE",
"420 45 CURVE SMOOTH",
"312 45 OFFCURVE",
"234 150 OFFCURVE",
"234 316 CURVE SMOOTH",
"234 503 OFFCURVE",
"317 620 OFFCURVE",
"424 620 CURVE SMOOTH",
"470 620 OFFCURVE",
"492 612 OFFCURVE",
"524 591 CURVE",
"495 615 LINE",
"621 428 LINE",
"639 428 LINE",
"624 622 LINE",
"566 650 OFFCURVE",
"523 670 OFFCURVE",
"415 670 CURVE SMOOTH",
"222 670 OFFCURVE",
"35 524 OFFCURVE",
"35 319 CURVE SMOOTH",
"35 133 OFFCURVE",
"185 -10 OFFCURVE",
"398 -10 CURVE SMOOTH"
);
}
);
width = 701;
}
);
leftKerningGroup = kern_O2;
rightKerningGroup = kern_C1;
unicode = 0043;
},
{
color = 5;
glyphname = Ccedilla;
layers = (
{
layerId = m01;
paths = (
{
closed = 1;
nodes = (
"471 -240 OFFCURVE",
"497 -196 OFFCURVE",
"497 -152 CURVE SMOOTH",
"497 -80 OFFCURVE",
"423 -65 OFFCURVE",
"407 -59 CURVE SMOOTH",
"401 -57 OFFCURVE",
"394 -54 OFFCURVE",
"396 -49 CURVE SMOOTH",
"408 -23 LINE SMOOTH",
"413 -13 OFFCURVE",
"422 -10 OFFCURVE",
"424 -10 CURVE SMOOTH",
"521 -6 OFFCURVE",
"592 22 OFFCURVE",
"612 41 CURVE SMOOTH",
"622 51 OFFCURVE",
"635 67 OFFCURVE",
"635 168 CURVE SMOOTH",
"635 187 OFFCURVE",
"631 194 OFFCURVE",
"618 194 CURVE SMOOTH",
"599 194 OFFCURVE",
"582 116 OFFCURVE",
"557 91 CURVE SMOOTH",
"529 64 OFFCURVE",
"472 41 OFFCURVE",
"398 41 CURVE SMOOTH",
"268 41 OFFCURVE",
"163 152 OFFCURVE",
"163 342 CURVE SMOOTH",
"163 504 OFFCURVE",
"269 620 OFFCURVE",
"413 620 CURVE SMOOTH",
"570 620 OFFCURVE",
"580 447 OFFCURVE",
"606 447 CURVE SMOOTH",
"623 447 OFFCURVE",
"625 459 OFFCURVE",
"625 473 CURVE SMOOTH",
"625 600 OFFCURVE",
"616 620 OFFCURVE",
"592 632 CURVE SMOOTH",
"549 653 OFFCURVE",
"515 670 OFFCURVE",
"415 670 CURVE SMOOTH",
"228 670 OFFCURVE",
"70 501 OFFCURVE",
"70 312 CURVE SMOOTH",
"70 135 OFFCURVE",
"178 -9 OFFCURVE",
"366 -9 CURVE SMOOTH",
"374 -9 OFFCURVE",
"375 -11 OFFCURVE",
"375 -14 CURVE SMOOTH",
"375 -20 OFFCURVE",
"372 -26 OFFCURVE",
"361 -49 CURVE SMOOTH",
"353 -66 OFFCURVE",
"340 -90 OFFCURVE",
"340 -100 CURVE SMOOTH",
"340 -106 OFFCURVE",
"343 -107 OFFCURVE",
"396 -125 CURVE SMOOTH",
"426 -135 OFFCURVE",
"437 -152 OFFCURVE",
"437 -175 CURVE SMOOTH",
"437 -196 OFFCURVE",
"415 -210 OFFCURVE",
"386 -210 CURVE SMOOTH",
"343 -210 OFFCURVE",
"325 -196 OFFCURVE",
"321 -196 CURVE SMOOTH",
"316 -196 OFFCURVE",
"315 -199 OFFCURVE",
"315 -208 CURVE SMOOTH",
"315 -223 OFFCURVE",
"356 -240 OFFCURVE",
"397 -240 CURVE SMOOTH"
);
}
);
width = 726;
},
{
layerId = m002;
paths = (
{
closed = 1;
nodes = (
"467 -240 OFFCURVE",
"503 -192 OFFCURVE",
"503 -143 CURVE SMOOTH",
"503 -78 OFFCURVE",
"463 -61 OFFCURVE",
"415 -40 CURVE SMOOTH",
"409 -37 OFFCURVE",
"400 -35 OFFCURVE",
"402 -30 CURVE SMOOTH",
"406 -21 LINE SMOOTH",
"410 -11 OFFCURVE",
"414 -10 OFFCURVE",
"417 -10 CURVE SMOOTH",
"514 -7 OFFCURVE",
"597 22 OFFCURVE",
"617 41 CURVE SMOOTH",
"627 51 OFFCURVE",
"645 92 OFFCURVE",
"645 193 CURVE SMOOTH",
"645 212 OFFCURVE",
"641 219 OFFCURVE",
"628 219 CURVE SMOOTH",
"609 219 OFFCURVE",
"551 105 OFFCURVE",
"526 80 CURVE SMOOTH",
"498 53 OFFCURVE",
"460 45 OFFCURVE",
"415 45 CURVE SMOOTH",
"315 45 OFFCURVE",
"234 146 OFFCURVE",
"234 342 CURVE SMOOTH",
"234 504 OFFCURVE",
"322 620 OFFCURVE",
"423 620 CURVE SMOOTH",
"549 620 OFFCURVE",
"592 428 OFFCURVE",
"618 428 CURVE SMOOTH",
"635 428 OFFCURVE",
"637 440 OFFCURVE",
"637 454 CURVE SMOOTH",
"637 583 OFFCURVE",
"619 622 OFFCURVE",
"595 634 CURVE SMOOTH",
"552 655 OFFCURVE",
"515 670 OFFCURVE",
"415 670 CURVE SMOOTH",
"194 670 OFFCURVE",
"35 509 OFFCURVE",
"35 312 CURVE SMOOTH",
"35 148 OFFCURVE",
"187 -9 OFFCURVE",
"360 -9 CURVE SMOOTH",
"368 -9 OFFCURVE",
"369 -11 OFFCURVE",
"369 -14 CURVE SMOOTH",
"369 -20 OFFCURVE",
"359 -38 OFFCURVE",
"348 -61 CURVE SMOOTH",
"340 -78 OFFCURVE",
"333 -87 OFFCURVE",
"333 -97 CURVE SMOOTH",
"333 -107 OFFCURVE",
"365 -112 OFFCURVE",
"382 -119 CURVE SMOOTH",
"412 -131 OFFCURVE",
"426 -147 OFFCURVE",
"426 -169 CURVE SMOOTH",
"426 -191 OFFCURVE",
"410 -208 OFFCURVE",
"376 -208 CURVE SMOOTH",
"333 -208 OFFCURVE",
"323 -197 OFFCURVE",
"319 -197 CURVE SMOOTH",
"314 -197 OFFCURVE",
"313 -203 OFFCURVE",
"313 -212 CURVE SMOOTH",
"313 -226 OFFCURVE",
"347 -240 OFFCURVE",
"397 -240 CURVE SMOOTH"
);
}
);
width = 701;
},
{
associatedMasterId = m01;
layerId = "F23BD1E7-F420-4190-8DB6-D69E396AE707";
name = "Dec 21, 21, 18:18";
paths = (
{
closed = 1;
nodes = (
"510 -10 OFFCURVE",
"564 10 OFFCURVE",
"623 39 CURVE",
"634 198 LINE",
"617 198 LINE",
"540 62 LINE",
"578 106 LINE",
"535 76 OFFCURVE",
"486 41 OFFCURVE",
"398 41 CURVE SMOOTH",
"268 41 OFFCURVE",
"163 152 OFFCURVE",
"163 342 CURVE SMOOTH",
"163 504 OFFCURVE",
"269 620 OFFCURVE",
"413 620 CURVE SMOOTH",
"467 620 OFFCURVE",
"502 600 OFFCURVE",
"565 554 CURVE",
"529 599 LINE",
"605 447 LINE",
"623 447 LINE",
"618 622 LINE",
"563 649 OFFCURVE",
"515 670 OFFCURVE",
"415 670 CURVE SMOOTH",
"228 670 OFFCURVE",
"70 501 OFFCURVE",
"70 312 CURVE SMOOTH",
"70 126 OFFCURVE",
"195 -10 OFFCURVE",
"400 -10 CURVE SMOOTH"
);
},
{
closed = 1;
nodes = (
"356 -210 OFFCURVE",
"338 -206 OFFCURVE",
"320 -198 CURVE",
"317 -198 LINE",
"317 -210 LINE",
"335 -231 OFFCURVE",
"363 -240 OFFCURVE",
"400 -240 CURVE",
"463 -240 OFFCURVE",
"497 -203 OFFCURVE",
"497 -155 CURVE SMOOTH",
"497 -98 OFFCURVE",
"465 -75 OFFCURVE",
"374 -49 CURVE",
"387 -69 LINE",
"428 20 LINE",
"393 20 LINE",
"336 -103 LINE",
"415 -128 OFFCURVE",
"437 -142 OFFCURVE",
"437 -171 CURVE SMOOTH",
"437 -192 OFFCURVE",
"423 -210 OFFCURVE",
"383 -210 CURVE SMOOTH"
);
}
);
width = 726;
},
{
associatedMasterId = m002;
layerId = "FE7CBF7C-5857-4481-BE0C-C3B6237CD6CC";
name = "Dec 21, 21, 18:18";
paths = (
{
closed = 1;
nodes = (
"486 -10 OFFCURVE",
"578 10 OFFCURVE",
"629 44 CURVE",
"646 219 LINE",
"628 219 LINE",
"505 51 LINE",
"541 82 LINE",
"500 54 OFFCURVE",
"462 45 OFFCURVE",
"420 45 CURVE SMOOTH",
"312 45 OFFCURVE",
"234 150 OFFCURVE",
"234 316 CURVE SMOOTH",
"234 503 OFFCURVE",
"317 620 OFFCURVE",
"424 620 CURVE SMOOTH",
"470 620 OFFCURVE",
"492 612 OFFCURVE",
"524 591 CURVE",
"495 615 LINE",
"621 428 LINE",
"639 428 LINE",
"624 622 LINE",
"566 650 OFFCURVE",
"523 670 OFFCURVE",
"415 670 CURVE SMOOTH",
"222 670 OFFCURVE",
"35 524 OFFCURVE",
"35 319 CURVE SMOOTH",
"35 133 OFFCURVE",
"185 -10 OFFCURVE",
"398 -10 CURVE SMOOTH"
);
},
{
closed = 1;
nodes = (
"354 -208 OFFCURVE",
"332 -205 OFFCURVE",
"317 -197 CURVE",
"313 -197 LINE",
"313 -220 LINE",
"334 -233 OFFCURVE",
"359 -240 OFFCURVE",
"393 -240 CURVE SMOOTH",
"458 -240 OFFCURVE",
"503 -200 OFFCURVE",
"503 -143 CURVE SMOOTH",
"503 -85 OFFCURVE",
"471 -51 OFFCURVE",
"371 -27 CURVE",
"388 -61 LINE",
"428 27 LINE",
"388 27 LINE",
"329 -103 LINE",
"408 -122 OFFCURVE",
"426 -142 OFFCURVE",
"426 -170 CURVE SMOOTH",
"426 -196 OFFCURVE",
"404 -208 OFFCURVE",
"370 -208 CURVE SMOOTH"
);
}
);
visible = 1;
width = 701;
}
);
leftKerningGroup = kern_O2;
rightKerningGroup = kern_C1;
unicode = 00C7;
},
{
color = 5;
glyphname = D;
layers = (
{
anchors = (
{
name = bottom;
position = "{388, 0}";
},
{
name = top;
position = "{388, 710}";
}
);
layerId = m01;
paths = (
{
closed = 1;
nodes = (
"351 0 LINE SMOOTH",
"554 0 OFFCURVE",
"705 152 OFFCURVE",
"705 360 CURVE SMOOTH",
"705 532 OFFCURVE",
"579 660 OFFCURVE",
"358 660 CURVE SMOOTH",
"75 660 LINE SMOOTH",
"68 660 OFFCURVE",
"65 657 OFFCURVE",
"65 651 CURVE SMOOTH",
"65 644 OFFCURVE",
"69 642 OFFCURVE",
"75 639 CURVE SMOOTH",
"125 614 LINE SMOOTH",
"143 605 OFFCURVE",
"145 600 OFFCURVE",
"145 585 CURVE SMOOTH",
"145 75 LINE SMOOTH",
"145 60 OFFCURVE",
"141 54 OFFCURVE",
"125 46 CURVE SMOOTH",
"75 21 LINE SMOOTH",
"66 17 OFFCURVE",
"65 13 OFFCURVE",
"65 9 CURVE SMOOTH",
"65 3 OFFCURVE",
"68 0 OFFCURVE",
"75 0 CURVE SMOOTH"
);
},
{
closed = 1;
nodes = (
"238 55 OFFCURVE",
"235 58 OFFCURVE",
"235 75 CURVE SMOOTH",
"235 585 LINE SMOOTH",
"235 602 OFFCURVE",
"238 605 OFFCURVE",
"255 605 CURVE SMOOTH",
"335 605 LINE SMOOTH",
"511 605 OFFCURVE",
"610 496 OFFCURVE",
"610 329 CURVE SMOOTH",
"610 162 OFFCURVE",
"511 55 OFFCURVE",
"350 55 CURVE SMOOTH",
"255 55 LINE SMOOTH"
);
}
);
width = 775;
},
{
anchors = (
{
name = bottom;
position = "{413, 0}";
},
{
name = top;
position = "{393, 710}";
}
);
layerId = m002;
paths = (
{
closed = 1;
nodes = (
"384 0 LINE SMOOTH",
"637 0 OFFCURVE",
"791 152 OFFCURVE",
"791 360 CURVE SMOOTH",
"791 529 OFFCURVE",
"664 660 OFFCURVE",
"382 660 CURVE SMOOTH",
"40 660 LINE SMOOTH",
"33 660 OFFCURVE",
"30 657 OFFCURVE",
"30 651 CURVE SMOOTH",
"30 644 OFFCURVE",
"34 642 OFFCURVE",
"40 639 CURVE SMOOTH",
"109 607 LINE SMOOTH",
"117 603 OFFCURVE",
"119 599 OFFCURVE",
"119 592 CURVE SMOOTH",
"119 68 LINE SMOOTH",
"119 61 OFFCURVE",
"115 56 OFFCURVE",
"109 53 CURVE SMOOTH",
"40 21 LINE SMOOTH",
"32 17 OFFCURVE",
"30 13 OFFCURVE",
"30 9 CURVE SMOOTH",
"30 3 OFFCURVE",
"33 0 OFFCURVE",
"40 0 CURVE SMOOTH"
);
},
{
closed = 1;
nodes = (
"312 55 OFFCURVE",
"309 58 OFFCURVE",
"309 65 CURVE SMOOTH",
"309 595 LINE SMOOTH",
"309 602 OFFCURVE",
"312 605 OFFCURVE",
"319 605 CURVE SMOOTH",
"337 605 LINE SMOOTH",
"523 605 OFFCURVE",
"594 496 OFFCURVE",
"594 329 CURVE SMOOTH",
"594 162 OFFCURVE",
"523 55 OFFCURVE",
"352 55 CURVE SMOOTH",
"319 55 LINE SMOOTH"
);
}
);
width = 820;
},
{
anchors = (
{
name = bottom;
position = "{388, 0}";
},
{
name = top;
position = "{388, 710}";
}
);
associatedMasterId = m01;
layerId = "16C76F8F-FC82-40ED-B13B-93CD83D58718";
name = "Jan 5, 22, 17:58";
paths = (
{
closed = 1;
nodes = (
"235 0 LINE",
"235 660 LINE",
"65 660 LINE",
"65 644 LINE",
"145 604 LINE",
"145 56 LINE",
"65 16 LINE",
"65 0 LINE"
);
},
{
closed = 1;
nodes = (
"554 0 OFFCURVE",
"705 152 OFFCURVE",
"705 360 CURVE SMOOTH",
"705 532 OFFCURVE",
"579 660 OFFCURVE",
"358 660 CURVE SMOOTH",
"182 660 LINE",
"182 605 LINE",
"335 605 LINE SMOOTH",
"511 605 OFFCURVE",
"610 496 OFFCURVE",
"610 329 CURVE SMOOTH",
"610 162 OFFCURVE",
"509 55 OFFCURVE",
"350 55 CURVE SMOOTH",
"210 55 LINE",
"210 0 LINE",
"351 0 LINE SMOOTH"
);
}
);
width = 775;
},
{
anchors = (
{
name = bottom;
position = "{413, 0}";
},
{
name = top;
position = "{393, 710}";
}
);
associatedMasterId = m002;
layerId = "8689960B-132B-46F0-B5AB-6BD4A0816CC2";
name = "Jan 5, 22, 22:23";
paths = (
{
closed = 1;
nodes = (
"309 0 LINE",
"309 660 LINE",
"30 660 LINE",
"30 644 LINE",
"119 602 LINE",
"119 58 LINE",
"30 16 LINE",
"30 0 LINE"
);
},
{
closed = 1;
nodes = (
"624 0 OFFCURVE",
"790 152 OFFCURVE",
"790 360 CURVE SMOOTH",
"790 532 OFFCURVE",
"649 660 OFFCURVE",
"402 660 CURVE SMOOTH",
"256 660 LINE",
"256 605 LINE",
"349 605 LINE SMOOTH",
"514 605 OFFCURVE",
"594 498 OFFCURVE",
"594 329 CURVE SMOOTH",
"594 162 OFFCURVE",
"514 55 OFFCURVE",
"364 55 CURVE SMOOTH",
"284 55 LINE",
"284 0 LINE",
"395 0 LINE SMOOTH"
);
}
);
width = 820;
}
);
leftKerningGroup = kern_H2;
rightKerningGroup = kern_O1;
unicode = 0044;
},
{
color = 5;
glyphname = Eth;
layers = (
{
layerId = m01;
paths = (
{
closed = 1;
nodes = (
"351 0 LINE SMOOTH",
"554 0 OFFCURVE",
"705 152 OFFCURVE",
"705 360 CURVE SMOOTH",
"705 532 OFFCURVE",
"579 660 OFFCURVE",
"358 660 CURVE SMOOTH",
"85 660 LINE SMOOTH",
"73 660 OFFCURVE",
"65 657 OFFCURVE",
"65 645 CURVE SMOOTH",
"65 619 OFFCURVE",
"145 613 OFFCURVE",
"145 579 CURVE SMOOTH",
"145 387 LINE SMOOTH",
"145 371 OFFCURVE",
"141 367 OFFCURVE",
"125 367 CURVE SMOOTH",
"85 367 LINE SMOOTH",
"69 367 OFFCURVE",
"65 363 OFFCURVE",
"65 347 CURVE SMOOTH",
"65 337 LINE SMOOTH",
"65 321 OFFCURVE",
"69 317 OFFCURVE",
"85 317 CURVE SMOOTH",
"125 317 LINE SMOOTH",
"141 317 OFFCURVE",
"145 313 OFFCURVE",
"145 297 CURVE SMOOTH",
"145 77 LINE SMOOTH",
"145 39 OFFCURVE",
"65 39 OFFCURVE",
"65 12 CURVE SMOOTH",
"65 5 OFFCURVE",
"68 0 OFFCURVE",
"75 0 CURVE SMOOTH"
);
},
{
closed = 1;
nodes = (
"240 55 OFFCURVE",
"235 62 OFFCURVE",
"235 74 CURVE SMOOTH",
"235 297 LINE SMOOTH",
"235 313 OFFCURVE",
"239 317 OFFCURVE",
"255 317 CURVE SMOOTH",
"390 317 LINE SMOOTH",
"410 317 OFFCURVE",
"410 321 OFFCURVE",
"410 337 CURVE SMOOTH",
"410 347 LINE SMOOTH",
"410 363 OFFCURVE",
"406 367 OFFCURVE",
"390 367 CURVE SMOOTH",
"255 367 LINE SMOOTH",
"239 367 OFFCURVE",
"235 371 OFFCURVE",
"235 387 CURVE SMOOTH",
"235 582 LINE SMOOTH",
"235 600 OFFCURVE",
"242 605 OFFCURVE",
"258 605 CURVE SMOOTH",
"335 605 LINE SMOOTH",
"511 605 OFFCURVE",
"610 496 OFFCURVE",
"610 329 CURVE SMOOTH",
"610 162 OFFCURVE",
"511 55 OFFCURVE",
"350 55 CURVE SMOOTH",
"253 55 LINE SMOOTH"
);
}
);
width = 775;
},
{
layerId = m002;
paths = (
{
closed = 1;
nodes = (
"386 0 LINE SMOOTH",
"639 0 OFFCURVE",
"791 152 OFFCURVE",
"791 360 CURVE SMOOTH",
"791 532 OFFCURVE",
"664 660 OFFCURVE",
"393 660 CURVE SMOOTH",
"50 660 LINE SMOOTH",
"38 660 OFFCURVE",
"30 657 OFFCURVE",
"30 645 CURVE SMOOTH",
"30 619 OFFCURVE",
"119 613 OFFCURVE",
"119 579 CURVE SMOOTH",
"119 390 LINE SMOOTH",
"119 374 OFFCURVE",
"115 370 OFFCURVE",
"99 370 CURVE SMOOTH",
"50 370 LINE SMOOTH",
"34 370 OFFCURVE",
"30 366 OFFCURVE",
"30 350 CURVE SMOOTH",
"30 335 LINE SMOOTH",
"30 319 OFFCURVE",
"34 315 OFFCURVE",
"50 315 CURVE SMOOTH",
"99 315 LINE SMOOTH",
"115 315 OFFCURVE",
"119 311 OFFCURVE",
"119 295 CURVE SMOOTH",
"119 77 LINE SMOOTH",
"119 39 OFFCURVE",
"31 39 OFFCURVE",
"31 12 CURVE SMOOTH",
"31 5 OFFCURVE",
"34 0 OFFCURVE",
"41 0 CURVE SMOOTH"
);
},
{
closed = 1;
nodes = (
"314 55 OFFCURVE",
"309 62 OFFCURVE",
"309 74 CURVE SMOOTH",
"309 297 LINE SMOOTH",
"309 313 OFFCURVE",
"313 317 OFFCURVE",
"329 317 CURVE SMOOTH",
"425 317 LINE SMOOTH",
"445 317 OFFCURVE",
"445 321 OFFCURVE",
"445 337 CURVE SMOOTH",
"445 347 LINE SMOOTH",
"445 363 OFFCURVE",
"441 367 OFFCURVE",
"425 367 CURVE SMOOTH",
"329 367 LINE SMOOTH",
"313 367 OFFCURVE",
"309 371 OFFCURVE",
"309 387 CURVE SMOOTH",
"309 582 LINE SMOOTH",
"309 600 OFFCURVE",
"316 605 OFFCURVE",
"332 605 CURVE SMOOTH",
"370 605 LINE SMOOTH",
"506 605 OFFCURVE",
"594 496 OFFCURVE",
"594 329 CURVE SMOOTH",
"594 162 OFFCURVE",
"506 55 OFFCURVE",
"385 55 CURVE SMOOTH",
"327 55 LINE SMOOTH"
);
}
);
width = 820;
},
{
associatedMasterId = m01;
layerId = "10511A45-461C-4477-A0DC-F8E4ADC6BEB9";
name = "Dec 17, 21, 20:33";
paths = (
{
closed = 1;
nodes = (
"235 0 LINE",
"235 660 LINE",
"65 660 LINE",
"65 644 LINE",
"145 604 LINE",
"145 56 LINE",
"65 16 LINE",
"65 0 LINE"
);
},
{
closed = 1;
nodes = (
"554 0 OFFCURVE",
"705 152 OFFCURVE",
"705 360 CURVE SMOOTH",
"705 532 OFFCURVE",
"579 660 OFFCURVE",
"358 660 CURVE SMOOTH",
"182 660 LINE",
"182 605 LINE",
"335 605 LINE SMOOTH",
"511 605 OFFCURVE",
"610 496 OFFCURVE",
"610 329 CURVE SMOOTH",
"610 162 OFFCURVE",
"511 55 OFFCURVE",
"350 55 CURVE SMOOTH",
"210 55 LINE",
"210 0 LINE",
"351 0 LINE SMOOTH"
);
},
{
closed = 1;
nodes = (
"410 317 LINE",
"410 367 LINE",
"65 367 LINE",
"65 317 LINE"
);
}
);
width = 775;
},
{
associatedMasterId = m002;
layerId = "AF58C631-1E6C-4898-A889-43484B4E41DE";
name = "Dec 17, 21, 20:33";
paths = (
{
closed = 1;
nodes = (
"309 0 LINE",
"309 660 LINE",
"30 660 LINE",
"30 644 LINE",
"119 602 LINE",
"119 58 LINE",
"30 16 LINE",
"30 0 LINE"
);
},
{
closed = 1;
nodes = (
"624 0 OFFCURVE",
"790 152 OFFCURVE",
"790 360 CURVE SMOOTH",
"790 532 OFFCURVE",
"649 660 OFFCURVE",
"402 660 CURVE SMOOTH",
"256 660 LINE",
"256 605 LINE",
"349 605 LINE SMOOTH",
"514 605 OFFCURVE",
"594 498 OFFCURVE",
"594 329 CURVE SMOOTH",
"594 162 OFFCURVE",
"514 55 OFFCURVE",
"364 55 CURVE SMOOTH",
"284 55 LINE",
"284 0 LINE",
"395 0 LINE SMOOTH"
);
},
{
closed = 1;
nodes = (
"445 315 LINE",
"445 370 LINE",
"30 370 LINE",
"30 315 LINE"
);
}
);
width = 820;
}
);
unicode = 00D0;
},
{
color = 5;
glyphname = E;
layers = (
{
anchors = (
{
name = bottom;
position = "{350, 0}";
},
{
name = right;
position = "{505, 0}";
},
{
name = top;
position = "{335, 710}";
}
);
layerId = m01;
paths = (
{
closed = 1;
nodes = (
"562 0 LINE SMOOTH",
"577 0 OFFCURVE",
"582 5 OFFCURVE",
"582 20 CURVE SMOOTH",
"582 162 LINE SMOOTH",
"582 172 OFFCURVE",
"582 182 OFFCURVE",
"572 182 CURVE SMOOTH",
"567 182 OFFCURVE",
"562 172 OFFCURVE",
"557 162 CURVE SMOOTH",
"518 84 LINE SMOOTH",
"506 60 OFFCURVE",
"497 55 OFFCURVE",
"474 55 CURVE SMOOTH",
"255 55 LINE SMOOTH",
"240 55 OFFCURVE",
"235 60 OFFCURVE",
"235 75 CURVE SMOOTH",
"235 293 LINE SMOOTH",
"235 308 OFFCURVE",
"240 313 OFFCURVE",
"255 313 CURVE SMOOTH",
"385 313 LINE SMOOTH",
"400 313 OFFCURVE",
"408 309 OFFCURVE",
"414 299 CURVE SMOOTH",
"443 251 LINE SMOOTH",
"449 240 OFFCURVE",
"455 232 OFFCURVE",
"461 232 CURVE SMOOTH",
"471 232 OFFCURVE",
"471 242 OFFCURVE",
"471 252 CURVE SMOOTH",
"471 431 LINE SMOOTH",
"471 442 OFFCURVE",
"471 451 OFFCURVE",
"461 451 CURVE SMOOTH",
"455 451 OFFCURVE",
"450 442 OFFCURVE",
"443 431 CURVE SMOOTH",
"414 383 LINE SMOOTH",
"408 373 OFFCURVE",
"400 368 OFFCURVE",
"385 368 CURVE SMOOTH",
"255 368 LINE SMOOTH",
"240 368 OFFCURVE",
"235 373 OFFCURVE",
"235 388 CURVE SMOOTH",
"235 585 LINE SMOOTH",
"235 600 OFFCURVE",
"240 605 OFFCURVE",
"255 605 CURVE SMOOTH",
"446 605 LINE SMOOTH",
"471 605 OFFCURVE",
"479 599 OFFCURVE",
"486 586 CURVE SMOOTH",
"529 505 LINE SMOOTH",
"537 490 OFFCURVE",
"540 488 OFFCURVE",
"545 488 CURVE SMOOTH",
"552 488 OFFCURVE",
"554 492 OFFCURVE",
"554 508 CURVE SMOOTH",
"554 640 LINE SMOOTH",
"554 655 OFFCURVE",
"549 660 OFFCURVE",
"534 660 CURVE SMOOTH",
"75 660 LINE SMOOTH",
"68 660 OFFCURVE",
"65 657 OFFCURVE",
"65 650 CURVE SMOOTH",
"65 645 OFFCURVE",
"69 642 OFFCURVE",
"75 639 CURVE SMOOTH",
"125 614 LINE SMOOTH",
"141 606 OFFCURVE",
"145 600 OFFCURVE",
"145 585 CURVE SMOOTH",
"145 76 LINE SMOOTH",
"145 61 OFFCURVE",
"139 53 OFFCURVE",
"125 46 CURVE SMOOTH",
"75 21 LINE SMOOTH",
"69 18 OFFCURVE",
"65 15 OFFCURVE",
"65 10 CURVE SMOOTH",
"65 3 OFFCURVE",
"68 0 OFFCURVE",
"75 0 CURVE SMOOTH"
);
}
);
width = 652;
},
{
anchors = (
{
name = bottom;
position = "{366, 0}";
},
{
name = right;
position = "{569, 0}";
},
{
name = top;
position = "{366, 710}";
}
);
layerId = m002;
paths = (
{
closed = 1;
nodes = (
"620 0 LINE SMOOTH",
"635 0 OFFCURVE",
"640 5 OFFCURVE",
"640 20 CURVE SMOOTH",
"640 199 LINE SMOOTH",
"640 209 OFFCURVE",
"640 219 OFFCURVE",
"630 219 CURVE SMOOTH",
"625 219 OFFCURVE",
"618 209 OFFCURVE",
"613 199 CURVE SMOOTH",
"551 84 LINE SMOOTH",
"538 61 OFFCURVE",
"530 55 OFFCURVE",
"507 55 CURVE SMOOTH",
"329 55 LINE SMOOTH",
"314 55 OFFCURVE",
"309 60 OFFCURVE",
"309 75 CURVE SMOOTH",
"309 293 LINE SMOOTH",
"309 308 OFFCURVE",
"314 313 OFFCURVE",
"329 313 CURVE SMOOTH",
"434 313 LINE SMOOTH",
"449 313 OFFCURVE",
"456 309 OFFCURVE",
"463 299 CURVE SMOOTH",
"500 246 LINE SMOOTH",
"508 235 OFFCURVE",
"513 227 OFFCURVE",
"519 227 CURVE SMOOTH",
"529 227 OFFCURVE",
"529 237 OFFCURVE",
"529 247 CURVE SMOOTH",
"529 436 LINE SMOOTH",
"529 447 OFFCURVE",
"529 456 OFFCURVE",
"519 456 CURVE SMOOTH",
"513 456 OFFCURVE",
"506 446 OFFCURVE",
"499 436 CURVE SMOOTH",
"463 383 LINE SMOOTH",
"457 374 OFFCURVE",
"449 368 OFFCURVE",
"434 368 CURVE SMOOTH",
"329 368 LINE SMOOTH",
"314 368 OFFCURVE",
"309 373 OFFCURVE",
"309 388 CURVE SMOOTH",
"309 585 LINE SMOOTH",
"309 600 OFFCURVE",
"314 605 OFFCURVE",
"329 605 CURVE SMOOTH",
"487 605 LINE SMOOTH",
"512 605 OFFCURVE",
"519 598 OFFCURVE",
"527 586 CURVE SMOOTH",
"584 503 LINE SMOOTH",
"593 490 OFFCURVE",
"598 486 OFFCURVE",
"603 486 CURVE SMOOTH",
"610 486 OFFCURVE",
"612 490 OFFCURVE",
"612 506 CURVE SMOOTH",
"612 640 LINE SMOOTH",
"612 655 OFFCURVE",
"607 660 OFFCURVE",
"592 660 CURVE SMOOTH",
"40 660 LINE SMOOTH",
"33 660 OFFCURVE",
"30 657 OFFCURVE",
"30 650 CURVE SMOOTH",
"30 645 OFFCURVE",
"34 642 OFFCURVE",
"40 639 CURVE SMOOTH",
"100 611 LINE SMOOTH",
"117 603 OFFCURVE",
"119 600 OFFCURVE",
"119 585 CURVE SMOOTH",
"119 76 LINE SMOOTH",
"119 61 OFFCURVE",
"114 56 OFFCURVE",
"100 49 CURVE SMOOTH",
"40 21 LINE SMOOTH",
"34 18 OFFCURVE",
"30 15 OFFCURVE",
"30 10 CURVE SMOOTH",
"30 3 OFFCURVE",
"33 0 OFFCURVE",
"40 0 CURVE SMOOTH"
);
}
);
width = 700;
},
{
anchors = (
{
name = bottom;
position = "{350, 0}";
},
{
name = right;
position = "{505, 0}";
},
{
name = top;
position = "{335, 710}";
}
);
associatedMasterId = m01;
layerId = "3F5E9318-3EB2-4AB9-8833-9C5BF299DFD2";
name = "Sep 4, 21, 19:08";
paths = (
{
closed = 1;
nodes = (
"235 0 LINE",
"235 660 LINE",
"65 660 LINE",
"65 644 LINE",
"145 604 LINE",
"145 56 LINE",
"65 16 LINE",
"65 0 LINE"
);
},
{
closed = 1;
nodes = (
"554 488 LINE",
"554 660 LINE",
"182 660 LINE",
"182 605 LINE",
"476 605 LINE",
"538 488 LINE"
);
},
{
closed = 1;
nodes = (
"471 232 LINE",
"471 451 LINE",
"455 451 LINE",
"405 368 LINE",
"190 368 LINE",
"190 313 LINE",
"405 313 LINE",
"455 232 LINE"
);
},
{
closed = 1;
nodes = (
"582 182 LINE",
"566 182 LINE",
"504 55 LINE",
"210 55 LINE",
"210 0 LINE",
"582 0 LINE"
);
}
);
visible = 1;
width = 652;
},
{
anchors = (
{
name = bottom;
position = "{366, 0}";
},
{
name = right;
position = "{569, 0}";
},
{
name = top;
position = "{366, 710}";
}
);
associatedMasterId = m002;
layerId = "C341B3D5-E26C-4F4F-B8E5-C020818AEF0D";
name = "Sep 4, 21, 22:01";
paths = (
{
closed = 1;
nodes = (
"309 0 LINE",
"309 660 LINE",
"30 660 LINE",
"30 644 LINE",
"119 602 LINE",
"119 58 LINE",
"30 16 LINE",
"30 0 LINE"
);
},
{
closed = 1;
nodes = (
"612 486 LINE",
"612 660 LINE",
"207 660 LINE",
"207 605 LINE",
"514 605 LINE",
"596 486 LINE"
);
},
{
closed = 1;
nodes = (
"529 227 LINE",
"529 456 LINE",
"513 456 LINE",
"453 368 LINE",
"215 368 LINE",
"215 313 LINE",
"453 313 LINE",
"513 227 LINE"
);
},
{
closed = 1;
nodes = (
"640 219 LINE",
"624 219 LINE",
"535 55 LINE",
"235 55 LINE",
"235 0 LINE",
"640 0 LINE"
);
}
);
width = 700;
}
);
leftKerningGroup = kern_H2;
rightKerningGroup = kern_E1;
unicode = 0045;
},
{
color = 5;
glyphname = F;
layers = (
{
layerId = m01;
paths = (
{
closed = 1;
nodes = (
"315 0 LINE SMOOTH",
"322 0 OFFCURVE",
"325 3 OFFCURVE",
"325 10 CURVE SMOOTH",
"325 15 OFFCURVE",
"319 19 OFFCURVE",
"314 21 CURVE SMOOTH",
"257 46 LINE SMOOTH",
"241 53 OFFCURVE",
"235 61 OFFCURVE",
"235 76 CURVE SMOOTH",
"235 293 LINE SMOOTH",
"235 308 OFFCURVE",
"240 313 OFFCURVE",
"255 313 CURVE SMOOTH",
"375 313 LINE SMOOTH",
"390 313 OFFCURVE",
"398 309 OFFCURVE",
"404 299 CURVE SMOOTH",
"433 251 LINE SMOOTH",
"439 240 OFFCURVE",
"445 232 OFFCURVE",
"451 232 CURVE SMOOTH",
"461 232 OFFCURVE",
"461 242 OFFCURVE",
"461 252 CURVE SMOOTH",
"461 431 LINE SMOOTH",
"461 442 OFFCURVE",
"461 451 OFFCURVE",
"451 451 CURVE SMOOTH",
"445 451 OFFCURVE",
"440 442 OFFCURVE",
"433 431 CURVE SMOOTH",
"404 383 LINE SMOOTH",
"398 373 OFFCURVE",
"390 368 OFFCURVE",
"375 368 CURVE SMOOTH",
"255 368 LINE SMOOTH",
"240 368 OFFCURVE",
"235 373 OFFCURVE",
"235 388 CURVE SMOOTH",
"235 585 LINE SMOOTH",
"235 600 OFFCURVE",
"240 605 OFFCURVE",
"255 605 CURVE SMOOTH",
"436 605 LINE SMOOTH",
"461 605 OFFCURVE",
"469 599 OFFCURVE",
"476 586 CURVE SMOOTH",
"519 505 LINE SMOOTH",
"527 490 OFFCURVE",
"530 488 OFFCURVE",
"535 488 CURVE SMOOTH",
"542 488 OFFCURVE",
"544 492 OFFCURVE",
"544 508 CURVE SMOOTH",
"544 640 LINE SMOOTH",
"544 655 OFFCURVE",
"539 660 OFFCURVE",
"524 660 CURVE SMOOTH",
"75 660 LINE SMOOTH",
"68 660 OFFCURVE",
"65 657 OFFCURVE",
"65 650 CURVE SMOOTH",
"65 645 OFFCURVE",
"69 642 OFFCURVE",
"75 639 CURVE SMOOTH",
"125 614 LINE SMOOTH",
"141 606 OFFCURVE",
"145 600 OFFCURVE",
"145 585 CURVE SMOOTH",
"145 76 LINE SMOOTH",
"145 61 OFFCURVE",
"139 53 OFFCURVE",
"125 46 CURVE SMOOTH",
"75 21 LINE SMOOTH",
"69 18 OFFCURVE",
"65 15 OFFCURVE",
"65 10 CURVE SMOOTH",
"65 3 OFFCURVE",
"68 0 OFFCURVE",
"75 0 CURVE SMOOTH"
);
}
);
width = 614;
},
{
layerId = m002;
paths = (
{
closed = 1;
nodes = (
"409 0 LINE SMOOTH",
"416 0 OFFCURVE",
"419 3 OFFCURVE",
"419 10 CURVE SMOOTH",
"419 15 OFFCURVE",
"414 18 OFFCURVE",
"409 20 CURVE SMOOTH",
"330 50 LINE SMOOTH",
"314 56 OFFCURVE",
"309 61 OFFCURVE",
"309 76 CURVE SMOOTH",
"309 298 LINE SMOOTH",
"309 313 OFFCURVE",
"314 318 OFFCURVE",
"329 318 CURVE SMOOTH",
"424 318 LINE SMOOTH",
"439 318 OFFCURVE",
"447 313 OFFCURVE",
"453 304 CURVE SMOOTH",
"489 252 LINE SMOOTH",
"496 242 OFFCURVE",
"503 232 OFFCURVE",
"509 232 CURVE SMOOTH",
"519 232 OFFCURVE",
"519 242 OFFCURVE",
"519 252 CURVE SMOOTH",
"519 431 LINE SMOOTH",
"519 442 OFFCURVE",
"519 451 OFFCURVE",
"509 451 CURVE SMOOTH",
"503 451 OFFCURVE",
"496 441 OFFCURVE",
"489 431 CURVE SMOOTH",
"453 378 LINE SMOOTH",
"447 369 OFFCURVE",
"439 363 OFFCURVE",
"424 363 CURVE SMOOTH",
"329 363 LINE SMOOTH",
"314 363 OFFCURVE",
"309 368 OFFCURVE",
"309 383 CURVE SMOOTH",
"309 585 LINE SMOOTH",
"309 600 OFFCURVE",
"314 605 OFFCURVE",
"329 605 CURVE SMOOTH",
"485 605 LINE SMOOTH",
"510 605 OFFCURVE",
"518 598 OFFCURVE",
"525 586 CURVE SMOOTH",
"576 503 LINE SMOOTH",
"585 489 OFFCURVE",
"588 486 OFFCURVE",
"593 486 CURVE SMOOTH",
"600 486 OFFCURVE",
"602 490 OFFCURVE",
"602 506 CURVE SMOOTH",
"602 640 LINE SMOOTH",
"602 655 OFFCURVE",
"597 660 OFFCURVE",
"582 660 CURVE SMOOTH",
"40 660 LINE SMOOTH",
"33 660 OFFCURVE",
"30 657 OFFCURVE",
"30 650 CURVE SMOOTH",
"30 645 OFFCURVE",
"34 642 OFFCURVE",
"40 639 CURVE SMOOTH",
"100 611 LINE SMOOTH",
"117 603 OFFCURVE",
"119 600 OFFCURVE",
"119 585 CURVE SMOOTH",
"119 76 LINE SMOOTH",
"119 61 OFFCURVE",
"114 56 OFFCURVE",
"100 49 CURVE SMOOTH",
"40 21 LINE SMOOTH",
"34 18 OFFCURVE",
"30 15 OFFCURVE",
"30 10 CURVE SMOOTH",
"30 3 OFFCURVE",
"33 0 OFFCURVE",
"40 0 CURVE SMOOTH"
);
}
);
width = 642;
},
{
associatedMasterId = m01;
layerId = "9CC29693-DEFC-4E33-8131-EF806F0F37F5";
name = "Jan 8, 22, 23:00";
paths = (
{
closed = 1;
nodes = (
"325 0 LINE",
"325 16 LINE",
"235 56 LINE",
"235 660 LINE",
"65 660 LINE",
"65 644 LINE",
"145 604 LINE",
"145 56 LINE",
"65 16 LINE",
"65 0 LINE"
);
},
{
closed = 1;
nodes = (
"544 488 LINE",
"544 660 LINE",
"172 660 LINE",
"172 605 LINE",
"466 605 LINE",
"528 488 LINE"
);
},
{
closed = 1;
nodes = (
"461 232 LINE",
"461 451 LINE",
"445 451 LINE",
"395 368 LINE",
"180 368 LINE",
"180 313 LINE",
"395 313 LINE",
"445 232 LINE"
);
}
);
width = 614;
},
{
associatedMasterId = m002;
layerId = "386DAD12-1C39-4A2F-A5C3-DC0B2C17DE8C";
name = "Jan 8, 22, 23:00";
paths = (
{
closed = 1;
nodes = (
"419 0 LINE",
"419 16 LINE",
"309 58 LINE",
"309 660 LINE",
"30 660 LINE",
"30 644 LINE",
"119 602 LINE",
"119 58 LINE",
"30 16 LINE",
"30 0 LINE"
);
},
{
closed = 1;
nodes = (
"602 486 LINE",
"602 660 LINE",
"207 660 LINE",
"207 605 LINE",
"514 605 LINE",
"586 486 LINE"
);
},
{
closed = 1;
nodes = (
"519 232 LINE",
"519 451 LINE",
"503 451 LINE",
"443 363 LINE",
"215 363 LINE",
"215 318 LINE",
"443 318 LINE",
"503 232 LINE"
);
}
);
width = 642;
}
);
leftKerningGroup = kern_H2;
rightKerningGroup = kern_F1;
unicode = 0046;
},
{
color = 5;
glyphname = G;
layers = (
{
anchors = (
{
name = bottom;
position = "{415, 0}";
},
{
name = top;
position = "{400, 710}";
}
);
layerId = m01;
paths = (
{
closed = 1;
nodes = (
"516 -10 OFFCURVE",
"580 35 OFFCURVE",
"598 35 CURVE SMOOTH",
"603 35 OFFCURVE",
"607 32 OFFCURVE",
"610 27 CURVE SMOOTH",
"622 10 LINE SMOOTH",
"627 2 OFFCURVE",
"632 0 OFFCURVE",
"638 0 CURVE SMOOTH",
"645 0 OFFCURVE",
"649 4 OFFCURVE",
"649 18 CURVE SMOOTH",
"649 215 LINE SMOOTH",
"649 230 OFFCURVE",
"653 234 OFFCURVE",
"668 243 CURVE SMOOTH",
"707 267 LINE SMOOTH",
"713 271 OFFCURVE",
"718 275 OFFCURVE",
"718 280 CURVE SMOOTH",
"718 287 OFFCURVE",
"715 290 OFFCURVE",
"708 290 CURVE SMOOTH",
"480 290 LINE SMOOTH",
"473 290 OFFCURVE",
"470 287 OFFCURVE",
"470 280 CURVE SMOOTH",
"470 275 OFFCURVE",
"474 272 OFFCURVE",
"480 269 CURVE SMOOTH",
"539 243 LINE SMOOTH",
"556 235 OFFCURVE",
"559 230 OFFCURVE",
"559 215 CURVE SMOOTH",
"559 99 LINE SMOOTH",
"559 63 OFFCURVE",
"522 48 OFFCURVE",
"432 48 CURVE SMOOTH",
"280 48 OFFCURVE",
"159 163 OFFCURVE",
"159 362 CURVE SMOOTH",
"159 510 OFFCURVE",
"270 620 OFFCURVE",
"424 620 CURVE SMOOTH",
"505 620 OFFCURVE",
"553 581 OFFCURVE",
"579 535 CURVE SMOOTH",
"614 473 LINE SMOOTH",
"620 462 OFFCURVE",
"624 457 OFFCURVE",
"630 457 CURVE SMOOTH",
"636 457 OFFCURVE",
"639 461 OFFCURVE",
"639 473 CURVE SMOOTH",
"639 595 LINE SMOOTH",
"639 613 OFFCURVE",
"636 625 OFFCURVE",
"609 636 CURVE SMOOTH",
"549 660 OFFCURVE",
"500 670 OFFCURVE",
"426 670 CURVE SMOOTH",
"230 670 OFFCURVE",
"70 517 OFFCURVE",
"70 312 CURVE SMOOTH",
"70 126 OFFCURVE",
"211 -10 OFFCURVE",
"403 -10 CURVE SMOOTH"
);
}
);
width = 768;
},
{
anchors = (
{
name = bottom;
position = "{405, 0}";
},
{
name = top;
position = "{406, 710}";
}
);
layerId = m002;
paths = (
{
closed = 1;
nodes = (
"516 -10 OFFCURVE",
"584 35 OFFCURVE",
"602 35 CURVE SMOOTH",
"607 35 OFFCURVE",
"611 32 OFFCURVE",
"614 27 CURVE SMOOTH",
"626 10 LINE SMOOTH",
"631 2 OFFCURVE",
"636 0 OFFCURVE",
"642 0 CURVE SMOOTH",
"649 0 OFFCURVE",
"653 4 OFFCURVE",
"653 18 CURVE SMOOTH",
"653 223 LINE SMOOTH",
"653 238 OFFCURVE",
"657 241 OFFCURVE",
"672 251 CURVE SMOOTH",
"721 284 LINE SMOOTH",
"727 288 OFFCURVE",
"732 292 OFFCURVE",
"732 297 CURVE SMOOTH",
"732 304 OFFCURVE",
"729 307 OFFCURVE",
"722 307 CURVE SMOOTH",
"384 307 LINE SMOOTH",
"377 307 OFFCURVE",
"374 304 OFFCURVE",
"374 297 CURVE SMOOTH",
"374 292 OFFCURVE",
"378 288 OFFCURVE",
"384 285 CURVE SMOOTH",
"443 251 LINE SMOOTH",
"459 242 OFFCURVE",
"463 238 OFFCURVE",
"463 223 CURVE SMOOTH",
"463 82 LINE SMOOTH",
"463 56 OFFCURVE",
"442 43 OFFCURVE",
"422 43 CURVE SMOOTH",
"325 43 OFFCURVE",
"236 133 OFFCURVE",
"236 332 CURVE SMOOTH",
"236 480 OFFCURVE",
"318 622 OFFCURVE",
"434 622 CURVE SMOOTH",
"516 622 OFFCURVE",
"546 580 OFFCURVE",
"574 535 CURVE SMOOTH",
"623 455 LINE SMOOTH",
"630 444 OFFCURVE",
"633 439 OFFCURVE",
"639 439 CURVE SMOOTH",
"645 439 OFFCURVE",
"648 443 OFFCURVE",
"648 452 CURVE SMOOTH",
"648 595 LINE SMOOTH",
"648 613 OFFCURVE",
"645 625 OFFCURVE",
"618 636 CURVE SMOOTH",
"558 660 OFFCURVE",
"510 670 OFFCURVE",
"426 670 CURVE SMOOTH",
"211 670 OFFCURVE",
"37 517 OFFCURVE",
"37 312 CURVE SMOOTH",
"37 126 OFFCURVE",
"200 -10 OFFCURVE",
"403 -10 CURVE SMOOTH"
);
}
);
width = 749;
},
{
anchors = (
{
name = bottom;
position = "{415, 0}";
},
{
name = top;
position = "{400, 710}";
}
);
associatedMasterId = m01;
layerId = "7E5DB516-6237-4E13-9D20-5799A2171CD8";
name = "Jan 11, 22, 09:38";
paths = (
{
closed = 1;
nodes = (
"489 -10 OFFCURVE",
"588 23 OFFCURVE",
"649 74 CURVE",
"649 231 LINE",
"718 274 LINE",
"718 290 LINE",
"470 290 LINE",
"470 274 LINE",
"559 234 LINE",
"559 61 LINE",
"588 82 LINE",
"533 54 OFFCURVE",
"485 48 OFFCURVE",
"432 48 CURVE SMOOTH",
"280 48 OFFCURVE",
"159 163 OFFCURVE",
"159 362 CURVE SMOOTH",
"159 510 OFFCURVE",
"270 620 OFFCURVE",
"424 620 CURVE SMOOTH",
"481 620 OFFCURVE",
"514 604 OFFCURVE",
"584 554 CURVE",
"546 598 LINE",
"628 457 LINE",
"644 457 LINE",
"639 622 LINE",
"582 650 OFFCURVE",
"531 670 OFFCURVE",
"426 670 CURVE SMOOTH",
"230 670 OFFCURVE",
"70 517 OFFCURVE",
"70 312 CURVE SMOOTH",
"70 126 OFFCURVE",
"211 -10 OFFCURVE",
"403 -10 CURVE SMOOTH"
);
}
);
width = 768;
},
{
anchors = (
{
name = bottom;
position = "{405, 0}";
},
{
name = top;
position = "{406, 710}";
}
);
associatedMasterId = m002;
layerId = "A50B146E-D068-47E2-B07C-391E3D0A458D";
name = "Jan 11, 22, 11:15";
paths = (
{
closed = 1;
nodes = (
"476 -10 OFFCURVE",
"592 23 OFFCURVE",
"653 74 CURVE",
"653 239 LINE",
"732 291 LINE",
"732 307 LINE",
"374 307 LINE",
"374 291 LINE",
"463 239 LINE",
"463 22 LINE",
"575 77 LINE",
"530 53 OFFCURVE",
"461 43 OFFCURVE",
"419 43 CURVE SMOOTH",
"317 43 OFFCURVE",
"236 149.676 OFFCURVE",
"236 316 CURVE SMOOTH",
"236 503.329 OFFCURVE",
"329 622 OFFCURVE",
"436 622 CURVE SMOOTH",
"482 622 OFFCURVE",
"514 614 OFFCURVE",
"546 593 CURVE",
"517 617 LINE",
"642 439 LINE",
"661 439 LINE",
"646 622 LINE",
"588 650 OFFCURVE",
"535 670 OFFCURVE",
"427 670 CURVE SMOOTH",
"224 670 OFFCURVE",
"37 524 OFFCURVE",
"37 319 CURVE SMOOTH",
"37 133 OFFCURVE",
"198 -10 OFFCURVE",
"390 -10 CURVE SMOOTH"
);
}
);
visible = 1;
width = 749;
}
);
leftKerningGroup = kern_O2;
rightKerningGroup = kern_G1;
unicode = 0047;
},
{
color = 5;
glyphname = H;
layers = (
{
anchors = (
{
name = bottom;
position = "{405, 0}";
},
{
name = top;
position = "{405, 710}";
}
);
layerId = m01;
paths = (
{
closed = 1;
nodes = (
"305 0 LINE SMOOTH",
"312 0 OFFCURVE",
"315 3 OFFCURVE",
"315 10 CURVE SMOOTH",
"315 15 OFFCURVE",
"311 18 OFFCURVE",
"305 21 CURVE SMOOTH",
"255 46 LINE SMOOTH",
"241 53 OFFCURVE",
"235 61 OFFCURVE",
"235 76 CURVE SMOOTH",
"235 296 LINE SMOOTH",
"235 306 OFFCURVE",
"241 313 OFFCURVE",
"254 313 CURVE SMOOTH",
"556 313 LINE SMOOTH",
"568 313 OFFCURVE",
"575 306 OFFCURVE",
"575 296 CURVE SMOOTH",
"575 76 LINE SMOOTH",
"575 61 OFFCURVE",
"569 53 OFFCURVE",
"555 46 CURVE SMOOTH",
"505 21 LINE SMOOTH",
"499 18 OFFCURVE",
"495 15 OFFCURVE",
"495 10 CURVE SMOOTH",
"495 3 OFFCURVE",
"498 0 OFFCURVE",
"505 0 CURVE SMOOTH",
"735 0 LINE SMOOTH",
"742 0 OFFCURVE",
"745 3 OFFCURVE",
"745 10 CURVE SMOOTH",
"745 15 OFFCURVE",
"741 18 OFFCURVE",
"735 21 CURVE SMOOTH",
"685 46 LINE SMOOTH",
"671 53 OFFCURVE",
"665 61 OFFCURVE",
"665 76 CURVE SMOOTH",
"665 585 LINE SMOOTH",
"665 600 OFFCURVE",
"669 606 OFFCURVE",
"685 614 CURVE SMOOTH",
"735 639 LINE SMOOTH",
"741 642 OFFCURVE",
"745 645 OFFCURVE",
"745 650 CURVE SMOOTH",
"745 657 OFFCURVE",
"742 660 OFFCURVE",
"735 660 CURVE SMOOTH",
"505 660 LINE SMOOTH",
"498 660 OFFCURVE",
"495 657 OFFCURVE",
"495 650 CURVE SMOOTH",
"495 645 OFFCURVE",
"499 642 OFFCURVE",
"505 639 CURVE SMOOTH",
"555 614 LINE SMOOTH",
"571 606 OFFCURVE",
"575 600 OFFCURVE",
"575 585 CURVE SMOOTH",
"575 388 LINE SMOOTH",
"575 375 OFFCURVE",
"568 368 OFFCURVE",
"555 368 CURVE SMOOTH",
"254 368 LINE SMOOTH",
"241 368 OFFCURVE",
"235 374 OFFCURVE",
"235 388 CURVE SMOOTH",
"235 585 LINE SMOOTH",
"235 600 OFFCURVE",
"239 606 OFFCURVE",
"255 614 CURVE SMOOTH",
"305 639 LINE SMOOTH",
"311 642 OFFCURVE",
"315 645 OFFCURVE",
"315 650 CURVE SMOOTH",
"315 657 OFFCURVE",
"312 660 OFFCURVE",
"305 660 CURVE SMOOTH",
"75 660 LINE SMOOTH",
"68 660 OFFCURVE",
"65 657 OFFCURVE",
"65 650 CURVE SMOOTH",
"65 645 OFFCURVE",
"69 642 OFFCURVE",
"75 639 CURVE SMOOTH",
"125 614 LINE SMOOTH",
"141 606 OFFCURVE",
"145 600 OFFCURVE",
"145 585 CURVE SMOOTH",
"145 76 LINE SMOOTH",
"145 61 OFFCURVE",
"139 53 OFFCURVE",
"125 46 CURVE SMOOTH",
"75 21 LINE SMOOTH",
"69 18 OFFCURVE",
"65 15 OFFCURVE",
"65 10 CURVE SMOOTH",
"65 3 OFFCURVE",
"68 0 OFFCURVE",
"75 0 CURVE SMOOTH"
);
}
);
width = 810;
},
{
anchors = (
{
name = bottom;
position = "{426, 0}";
},
{
name = top;
position = "{426, 710}";
}
);
layerId = m002;
paths = (
{
closed = 1;
nodes = (
"376 0 LINE SMOOTH",
"383 0 OFFCURVE",
"386 3 OFFCURVE",
"386 10 CURVE SMOOTH",
"386 15 OFFCURVE",
"381 19 OFFCURVE",
"375 22 CURVE SMOOTH",
"329 47 LINE SMOOTH",
"315 55 OFFCURVE",
"309 61 OFFCURVE",
"309 76 CURVE SMOOTH",
"309 295 LINE SMOOTH",
"309 305 OFFCURVE",
"315 312 OFFCURVE",
"328 312 CURVE SMOOTH",
"526 312 LINE SMOOTH",
"538 312 OFFCURVE",
"545 305 OFFCURVE",
"545 295 CURVE SMOOTH",
"545 76 LINE SMOOTH",
"545 61 OFFCURVE",
"540 55 OFFCURVE",
"526 48 CURVE SMOOTH",
"476 21 LINE SMOOTH",
"470 18 OFFCURVE",
"466 15 OFFCURVE",
"466 10 CURVE SMOOTH",
"466 3 OFFCURVE",
"469 0 OFFCURVE",
"476 0 CURVE SMOOTH",
"812 0 LINE SMOOTH",
"819 0 OFFCURVE",
"822 3 OFFCURVE",
"822 10 CURVE SMOOTH",
"822 15 OFFCURVE",
"818 18 OFFCURVE",
"812 21 CURVE SMOOTH",
"754 49 LINE SMOOTH",
"740 56 OFFCURVE",
"735 61 OFFCURVE",
"735 76 CURVE SMOOTH",
"735 585 LINE SMOOTH",
"735 600 OFFCURVE",
"737 603 OFFCURVE",
"754 611 CURVE SMOOTH",
"812 639 LINE SMOOTH",
"818 642 OFFCURVE",
"822 645 OFFCURVE",
"822 650 CURVE SMOOTH",
"822 657 OFFCURVE",
"819 660 OFFCURVE",
"812 660 CURVE SMOOTH",
"476 660 LINE SMOOTH",
"469 660 OFFCURVE",
"466 657 OFFCURVE",
"466 650 CURVE SMOOTH",
"466 645 OFFCURVE",
"470 642 OFFCURVE",
"476 639 CURVE SMOOTH",
"525 613 LINE SMOOTH",
"541 604 OFFCURVE",
"545 600 OFFCURVE",
"545 585 CURVE SMOOTH",
"545 387 LINE SMOOTH",
"545 374 OFFCURVE",
"538 367 OFFCURVE",
"525 367 CURVE SMOOTH",
"328 367 LINE SMOOTH",
"315 367 OFFCURVE",
"309 373 OFFCURVE",
"309 387 CURVE SMOOTH",
"309 585 LINE SMOOTH",
"309 600 OFFCURVE",
"313 604 OFFCURVE",
"329 613 CURVE SMOOTH",
"376 639 LINE SMOOTH",
"382 642 OFFCURVE",
"386 645 OFFCURVE",
"386 650 CURVE SMOOTH",
"386 657 OFFCURVE",
"383 660 OFFCURVE",
"376 660 CURVE SMOOTH",
"40 660 LINE SMOOTH",
"33 660 OFFCURVE",
"30 657 OFFCURVE",
"30 650 CURVE SMOOTH",
"30 645 OFFCURVE",
"34 642 OFFCURVE",
"40 639 CURVE SMOOTH",
"100 611 LINE SMOOTH",
"117 603 OFFCURVE",
"119 600 OFFCURVE",
"119 585 CURVE SMOOTH",
"119 76 LINE SMOOTH",
"119 61 OFFCURVE",
"114 56 OFFCURVE",
"100 49 CURVE SMOOTH",
"40 21 LINE SMOOTH",
"34 18 OFFCURVE",
"30 15 OFFCURVE",
"30 10 CURVE SMOOTH",
"30 3 OFFCURVE",
"33 0 OFFCURVE",
"40 0 CURVE SMOOTH"
);
}
);
width = 852;
},
{
anchors = (
{
name = bottom;
position = "{405, 0}";
},
{
name = top;
position = "{405, 710}";
}
);
associatedMasterId = m01;
layerId = "E0E5EAA5-2687-49A3-AF3C-174CF8512330";
name = "Sep 4, 21, 21:16";
paths = (
{
closed = 1;
nodes = (
"315 0 LINE",
"315 16 LINE",
"235 56 LINE",
"235 604 LINE",
"315 644 LINE",
"315 660 LINE",
"65 660 LINE",
"65 644 LINE",
"145 604 LINE",
"145 56 LINE",
"65 16 LINE",
"65 0 LINE"
);
},
{
closed = 1;
nodes = (
"620 313 LINE",
"620 368 LINE",
"190 368 LINE",
"190 313 LINE"
);
},
{
closed = 1;
nodes = (
"745 0 LINE",
"745 16 LINE",
"665 56 LINE",
"665 604 LINE",
"745 644 LINE",
"745 660 LINE",
"495 660 LINE",
"495 644 LINE",
"575 604 LINE",
"575 56 LINE",
"495 16 LINE",
"495 0 LINE"
);
}
);
width = 810;
},
{
anchors = (
{
name = bottom;
position = "{426, 0}";
},
{
name = top;
position = "{426, 710}";
}
);
associatedMasterId = m002;
layerId = "34A17BAC-85C7-4AA5-8DF9-A835B1316DBE";
name = "Jan 9, 22, 01:05";
paths = (
{
closed = 1;
nodes = (
"386 0 LINE",
"386 16 LINE",
"309 58 LINE",
"309 602 LINE",
"386 644 LINE",
"386 660 LINE",
"30 660 LINE",
"30 644 LINE",
"119 602 LINE",
"119 58 LINE",
"30 16 LINE",
"30 0 LINE"
);
},
{
closed = 1;
nodes = (
"645 312 LINE",
"645 367 LINE",
"215 367 LINE",
"215 312 LINE"
);
},
{
closed = 1;
nodes = (
"822 0 LINE",
"822 16 LINE",
"735 58 LINE",
"735 602 LINE",
"822 644 LINE",
"822 660 LINE",
"466 660 LINE",
"466 644 LINE",
"545 602 LINE",
"545 58 LINE",
"466 16 LINE",
"466 0 LINE"
);
}
);
width = 852;
}
);
leftKerningGroup = kern_H2;
rightKerningGroup = kern_H1;
unicode = 0048;
},
{
color = 5;
glyphname = I;
layers = (
{
anchors = (
{
name = bottom;
position = "{195, 0}";
},
{
name = right;
position = "{221, 0}";
},
{
name = top;
position = "{195, 710}";
}
);
layerId = m01;
paths = (
{
closed = 1;
nodes = (
"310 0 LINE SMOOTH",
"317 0 OFFCURVE",
"320 3 OFFCURVE",
"320 10 CURVE SMOOTH",
"320 15 OFFCURVE",
"316 18 OFFCURVE",
"310 21 CURVE SMOOTH",
"260 46 LINE SMOOTH",
"246 53 OFFCURVE",
"240 61 OFFCURVE",
"240 76 CURVE SMOOTH",
"240 585 LINE SMOOTH",
"240 600 OFFCURVE",
"244 606 OFFCURVE",
"260 614 CURVE SMOOTH",
"310 639 LINE SMOOTH",
"316 642 OFFCURVE",
"320 645 OFFCURVE",
"320 650 CURVE SMOOTH",
"320 657 OFFCURVE",
"317 660 OFFCURVE",
"310 660 CURVE SMOOTH",
"80 660 LINE SMOOTH",
"73 660 OFFCURVE",
"70 657 OFFCURVE",
"70 650 CURVE SMOOTH",
"70 645 OFFCURVE",
"74 642 OFFCURVE",
"80 639 CURVE SMOOTH",
"130 614 LINE SMOOTH",
"146 606 OFFCURVE",
"150 600 OFFCURVE",
"150 585 CURVE SMOOTH",
"150 76 LINE SMOOTH",
"150 61 OFFCURVE",
"144 53 OFFCURVE",
"130 46 CURVE SMOOTH",
"80 21 LINE SMOOTH",
"74 18 OFFCURVE",
"70 15 OFFCURVE",
"70 10 CURVE SMOOTH",
"70 3 OFFCURVE",
"73 0 OFFCURVE",
"80 0 CURVE SMOOTH"
);
}
);
width = 390;
},
{
anchors = (
{
name = bottom;
position = "{214, 0}";
},
{
name = right;
position = "{241, 0}";
},
{
name = top;
position = "{214, 710}";
}
);
layerId = m002;
paths = (
{
closed = 1;
nodes = (
"388 0 LINE SMOOTH",
"395 0 OFFCURVE",
"398 3 OFFCURVE",
"398 10 CURVE SMOOTH",
"398 15 OFFCURVE",
"394 18 OFFCURVE",
"388 21 CURVE SMOOTH",
"328 49 LINE SMOOTH",
"314 56 OFFCURVE",
"309 61 OFFCURVE",
"309 76 CURVE SMOOTH",
"309 585 LINE SMOOTH",
"309 600 OFFCURVE",
"311 603 OFFCURVE",
"328 611 CURVE SMOOTH",
"388 639 LINE SMOOTH",
"394 642 OFFCURVE",
"398 645 OFFCURVE",
"398 650 CURVE SMOOTH",
"398 657 OFFCURVE",
"395 660 OFFCURVE",
"388 660 CURVE SMOOTH",
"40 660 LINE SMOOTH",
"33 660 OFFCURVE",
"30 657 OFFCURVE",
"30 650 CURVE SMOOTH",
"30 645 OFFCURVE",
"34 642 OFFCURVE",
"40 639 CURVE SMOOTH",
"100 611 LINE SMOOTH",
"117 603 OFFCURVE",
"119 600 OFFCURVE",
"119 585 CURVE SMOOTH",
"119 76 LINE SMOOTH",
"119 61 OFFCURVE",
"114 56 OFFCURVE",
"100 49 CURVE SMOOTH",
"40 21 LINE SMOOTH",
"34 18 OFFCURVE",
"30 15 OFFCURVE",
"30 10 CURVE SMOOTH",
"30 3 OFFCURVE",
"33 0 OFFCURVE",
"40 0 CURVE SMOOTH"
);
}
);
width = 428;
},
{
anchors = (
{
name = bottom;
position = "{195, 0}";
},
{
name = right;
position = "{212, 0}";
},
{
name = top;
position = "{195, 710}";
}
);
associatedMasterId = m01;
layerId = "FAD1F76F-C742-43C5-BB6E-80332130BB5C";
name = "Jan 8, 22, 23:51";
paths = (
{
closed = 1;
nodes = (
"320 0 LINE",
"320 16 LINE",
"240 56 LINE",
"240 604 LINE",
"320 644 LINE",
"320 660 LINE",
"70 660 LINE",
"70 644 LINE",
"150 604 LINE",
"150 56 LINE",
"70 16 LINE",
"70 0 LINE"
);
}
);
width = 390;
},
{
anchors = (
{
name = bottom;
position = "{214, 0}";
},
{
name = right;
position = "{241, 0}";
},
{
name = top;
position = "{214, 710}";
}
);
associatedMasterId = m002;
layerId = "DC66355F-7FC3-45C9-9A1B-9AF8F097A82B";
name = "Jan 8, 22, 23:51";
paths = (
{
closed = 1;
nodes = (
"398 0 LINE",
"398 16 LINE",
"309 58 LINE",
"309 602 LINE",
"398 644 LINE",
"398 660 LINE",
"30 660 LINE",
"30 644 LINE",
"119 602 LINE",
"119 58 LINE",
"30 16 LINE",
"30 0 LINE"
);
}
);
width = 428;
}
);
leftKerningGroup = kern_H2;
rightKerningGroup = kern_H1;
unicode = 0049;
},
{
color = 5;
glyphname = J;
layers = (
{
anchors = (
{
name = top;
position = "{195, 710}";
}
);
layerId = m01;
paths = (
{
closed = 1;
nodes = (
"123 -173 OFFCURVE",
"240 -69 OFFCURVE",
"240 175 CURVE SMOOTH",
"240 585 LINE SMOOTH",
"240 600 OFFCURVE",
"244 606 OFFCURVE",
"260 614 CURVE SMOOTH",
"310 639 LINE SMOOTH",
"316 642 OFFCURVE",
"320 645 OFFCURVE",
"320 650 CURVE SMOOTH",
"320 657 OFFCURVE",
"317 660 OFFCURVE",
"310 660 CURVE SMOOTH",
"80 660 LINE SMOOTH",
"73 660 OFFCURVE",
"70 657 OFFCURVE",
"70 650 CURVE SMOOTH",
"70 645 OFFCURVE",
"74 642 OFFCURVE",
"80 639 CURVE SMOOTH",
"130 614 LINE SMOOTH",
"146 606 OFFCURVE",
"150 600 OFFCURVE",
"150 585 CURVE SMOOTH",
"150 56 LINE SMOOTH",
"150 -70 OFFCURVE",
"128 -100 OFFCURVE",
"86 -100 CURVE SMOOTH",
"70 -100 OFFCURVE",
"60 -89 OFFCURVE",
"43 -89 CURVE SMOOTH",
"29 -89 OFFCURVE",
"0 -98 OFFCURVE",
"0 -131 CURVE SMOOTH",
"0 -154 OFFCURVE",
"19 -173 OFFCURVE",
"43 -173 CURVE SMOOTH"
);
}
);
width = 390;
},
{
anchors = (
{
name = top;
position = "{245, 710}";
}
);
layerId = m002;
paths = (
{
closed = 1;
nodes = (
"159 -174 OFFCURVE",
"340 -30 OFFCURVE",
"340 255 CURVE SMOOTH",
"340 585 LINE SMOOTH",
"340 600 OFFCURVE",
"344 604 OFFCURVE",
"359 611 CURVE SMOOTH",
"419 639 LINE SMOOTH",
"425 642 OFFCURVE",
"429 645 OFFCURVE",
"429 650 CURVE SMOOTH",
"429 657 OFFCURVE",
"426 660 OFFCURVE",
"419 660 CURVE SMOOTH",
"71 660 LINE SMOOTH",
"64 660 OFFCURVE",
"61 657 OFFCURVE",
"61 650 CURVE SMOOTH",
"61 645 OFFCURVE",
"65 642 OFFCURVE",
"71 639 CURVE SMOOTH",
"131 611 LINE SMOOTH",
"146 604 OFFCURVE",
"150 600 OFFCURVE",
"150 585 CURVE SMOOTH",
"150 46 LINE SMOOTH",
"150 -50 OFFCURVE",
"132 -60 OFFCURVE",
"121 -60 CURVE SMOOTH",
"109 -60 OFFCURVE",
"100 -37 OFFCURVE",
"68 -37 CURVE SMOOTH",
"24 -37 OFFCURVE",
"0 -74 OFFCURVE",
"0 -107 CURVE SMOOTH",
"0 -143 OFFCURVE",
"29 -174 OFFCURVE",
"72 -174 CURVE SMOOTH"
);
}
);
width = 459;
},
{
anchors = (
{
name = top;
position = "{195, 710}";
}
);
associatedMasterId = m01;
layerId = "CF38A574-D138-447B-AE9B-F83E7319CB00";
name = "Jan 10, 22, 15:52";
paths = (
{
closed = 1;
nodes = (
"90 -173 OFFCURVE",
"103 -163 OFFCURVE",
"161 -99 CURVE SMOOTH",
"219 -35 OFFCURVE",
"240 90.385 OFFCURVE",
"240 240 CURVE SMOOTH",
"240 604 LINE",
"320 644 LINE",
"320 660 LINE",
"70 660 LINE",
"70 644 LINE",
"150 604 LINE",
"150 51 LINE SMOOTH",
"150 -83 OFFCURVE",
"123 -100 OFFCURVE",
"80 -100 CURVE",
"80 -173 LINE"
);
},
{
closed = 1;
nodes = (
"65 -173 OFFCURVE",
"84 -154 OFFCURVE",
"84 -131 CURVE SMOOTH",
"84 -108 OFFCURVE",
"65 -89 OFFCURVE",
"42 -89 CURVE SMOOTH",
"19 -89 OFFCURVE",
"0 -108 OFFCURVE",
"0 -131 CURVE SMOOTH",
"0 -154 OFFCURVE",
"19 -173 OFFCURVE",
"42 -173 CURVE SMOOTH"
);
}
);
width = 390;
},
{
anchors = (
{
name = top;
position = "{245, 710}";
}
);
associatedMasterId = m002;
layerId = "FFC981E6-82EC-4221-B14E-3346C548FA1E";
name = "Jan 10, 22, 15:57";
paths = (
{
closed = 1;
nodes = (
"112.395 -173 OFFCURVE",
"159 -130 OFFCURVE",
"199 -83 CURVE SMOOTH",
"245 -28 OFFCURVE",
"340 92.142 OFFCURVE",
"340 249 CURVE SMOOTH",
"340 602 LINE",
"429 644 LINE",
"429 660 LINE",
"61 660 LINE",
"61 644 LINE",
"150 602 LINE",
"150 49 LINE SMOOTH",
"150 -50 OFFCURVE",
"130 -63 OFFCURVE",
"98 -63 CURVE",
"66 -173 LINE"
);
},
{
closed = 1;
nodes = (
"106 -174 OFFCURVE",
"137 -143 OFFCURVE",
"137 -106 CURVE SMOOTH",
"137 -68 OFFCURVE",
"106 -37 OFFCURVE",
"68 -37 CURVE SMOOTH",
"31 -37 OFFCURVE",
"0 -68 OFFCURVE",
"0 -106 CURVE SMOOTH",
"0 -143 OFFCURVE",
"31 -174 OFFCURVE",
"68 -174 CURVE SMOOTH"
);
}
);
width = 459;
}
);
leftKerningGroup = kern_J2;
rightKerningGroup = kern_J1;
unicode = 004A;
},
{
color = 5;
glyphname = K;
layers = (
{
anchors = (
{
name = bottom;
position = "{385, 0}";
},
{
name = top;
position = "{385, 710}";
}
);
layerId = m01;
paths = (
{
closed = 1;
nodes = (
"305 0 LINE SMOOTH",
"312 0 OFFCURVE",
"315 3 OFFCURVE",
"315 10 CURVE SMOOTH",
"315 15 OFFCURVE",
"311 18 OFFCURVE",
"305 21 CURVE SMOOTH",
"255 46 LINE SMOOTH",
"241 53 OFFCURVE",
"235 61 OFFCURVE",
"235 76 CURVE SMOOTH",
"235 312 LINE SMOOTH",
"235 321 OFFCURVE",
"238 324 OFFCURVE",
"244 324 CURVE SMOOTH",
"249 324 OFFCURVE",
"254 320 OFFCURVE",
"261 312 CURVE SMOOTH",
"489 74 LINE SMOOTH",
"540 21 OFFCURVE",
"569 0 OFFCURVE",
"617 0 CURVE SMOOTH",
"694 0 LINE SMOOTH",
"701 0 OFFCURVE",
"704 3 OFFCURVE",
"704 10 CURVE SMOOTH",
"704 14 OFFCURVE",
"702 17 OFFCURVE",
"694 20 CURVE SMOOTH",
"655 37 OFFCURVE",
"643 42 OFFCURVE",
"608 77 CURVE SMOOTH",
"348 341 LINE SMOOTH",
"340 349 OFFCURVE",
"333 355 OFFCURVE",
"333 361 CURVE SMOOTH",
"333 368 OFFCURVE",
"339 374 OFFCURVE",
"348 383 CURVE SMOOTH",
"555 586 LINE SMOOTH",
"586 616 OFFCURVE",
"605 626 OFFCURVE",
"642 640 CURVE SMOOTH",
"649 643 OFFCURVE",
"652 645 OFFCURVE",
"652 650 CURVE SMOOTH",
"652 657 OFFCURVE",
"649 660 OFFCURVE",
"642 660 CURVE SMOOTH",
"452 660 LINE SMOOTH",
"444 660 OFFCURVE",
"442 657 OFFCURVE",
"442 650 CURVE SMOOTH",
"442 645 OFFCURVE",
"445 642 OFFCURVE",
"452 639 CURVE SMOOTH",
"496 618 LINE SMOOTH",
"503 615 OFFCURVE",
"506 613 OFFCURVE",
"506 608 CURVE SMOOTH",
"506 603 OFFCURVE",
"503 600 OFFCURVE",
"496 593 CURVE SMOOTH",
"261 363 LINE SMOOTH",
"251 353 OFFCURVE",
"246 348 OFFCURVE",
"241 348 CURVE SMOOTH",
"236 348 OFFCURVE",
"235 353 OFFCURVE",
"235 361 CURVE SMOOTH",
"235 585 LINE SMOOTH",
"235 600 OFFCURVE",
"239 606 OFFCURVE",
"255 614 CURVE SMOOTH",
"305 639 LINE SMOOTH",
"311 642 OFFCURVE",
"315 645 OFFCURVE",
"315 650 CURVE SMOOTH",
"315 657 OFFCURVE",
"312 660 OFFCURVE",
"305 660 CURVE SMOOTH",
"75 660 LINE SMOOTH",
"68 660 OFFCURVE",
"65 657 OFFCURVE",
"65 650 CURVE SMOOTH",
"65 645 OFFCURVE",
"69 642 OFFCURVE",
"75 639 CURVE SMOOTH",
"125 614 LINE SMOOTH",
"141 606 OFFCURVE",
"145 600 OFFCURVE",
"145 585 CURVE SMOOTH",
"145 76 LINE SMOOTH",
"145 61 OFFCURVE",
"139 53 OFFCURVE",
"125 46 CURVE SMOOTH",
"75 21 LINE SMOOTH",
"69 18 OFFCURVE",
"65 15 OFFCURVE",
"65 10 CURVE SMOOTH",
"65 3 OFFCURVE",
"68 0 OFFCURVE",
"75 0 CURVE SMOOTH"
);
}
);
width = 719;
},
{
anchors = (
{
name = bottom;
position = "{452, 0}";
},
{
name = top;
position = "{452, 710}";
}
);
layerId = m002;
paths = (
{
closed = 1;
nodes = (
"388 0 LINE SMOOTH",
"395 0 OFFCURVE",
"398 3 OFFCURVE",
"398 10 CURVE SMOOTH",
"398 15 OFFCURVE",
"394 18 OFFCURVE",
"388 21 CURVE SMOOTH",
"328 49 LINE SMOOTH",
"314 56 OFFCURVE",
"309 61 OFFCURVE",
"309 76 CURVE SMOOTH",
"309 292 LINE SMOOTH",
"309 301 OFFCURVE",
"312 304 OFFCURVE",
"318 304 CURVE SMOOTH",
"323 304 OFFCURVE",
"329 301 OFFCURVE",
"335 292 CURVE SMOOTH",
"483 74 LINE SMOOTH",
"524 14 OFFCURVE",
"553 0 OFFCURVE",
"601 0 CURVE SMOOTH",
"796 0 LINE SMOOTH",
"803 0 OFFCURVE",
"806 3 OFFCURVE",
"806 10 CURVE SMOOTH",
"806 14 OFFCURVE",
"804 17 OFFCURVE",
"796 20 CURVE SMOOTH",
"737 44 OFFCURVE",
"729 48 OFFCURVE",
"709 77 CURVE SMOOTH",
"498 382 LINE SMOOTH",
"488 397 OFFCURVE",
"482 403 OFFCURVE",
"482 409 CURVE SMOOTH",
"482 416 OFFCURVE",
"488 424 OFFCURVE",
"498 433 CURVE SMOOTH",
"659 586 LINE SMOOTH",
"681 607 OFFCURVE",
"699 619 OFFCURVE",
"747 640 CURVE SMOOTH",
"754 643 OFFCURVE",
"757 645 OFFCURVE",
"757 650 CURVE SMOOTH",
"757 657 OFFCURVE",
"754 660 OFFCURVE",
"747 660 CURVE SMOOTH",
"515 660 LINE SMOOTH",
"507 660 OFFCURVE",
"505 657 OFFCURVE",
"505 650 CURVE SMOOTH",
"505 645 OFFCURVE",
"508 642 OFFCURVE",
"515 639 CURVE SMOOTH",
"570 612 LINE SMOOTH",
"574 610 OFFCURVE",
"577 608 OFFCURVE",
"577 605 CURVE SMOOTH",
"577 601 OFFCURVE",
"574 598 OFFCURVE",
"570 594 CURVE SMOOTH",
"335 357 LINE SMOOTH",
"325 347 OFFCURVE",
"320 342 OFFCURVE",
"315 342 CURVE SMOOTH",
"310 342 OFFCURVE",
"309 347 OFFCURVE",
"309 355 CURVE SMOOTH",
"309 585 LINE SMOOTH",
"309 600 OFFCURVE",
"311 603 OFFCURVE",
"328 611 CURVE SMOOTH",
"388 639 LINE SMOOTH",
"394 642 OFFCURVE",
"398 645 OFFCURVE",
"398 650 CURVE SMOOTH",
"398 657 OFFCURVE",
"395 660 OFFCURVE",
"388 660 CURVE SMOOTH",
"40 660 LINE SMOOTH",
"33 660 OFFCURVE",
"30 657 OFFCURVE",
"30 650 CURVE SMOOTH",
"30 645 OFFCURVE",
"34 642 OFFCURVE",
"40 639 CURVE SMOOTH",
"100 611 LINE SMOOTH",
"117 603 OFFCURVE",
"119 600 OFFCURVE",
"119 585 CURVE SMOOTH",
"119 76 LINE SMOOTH",
"119 61 OFFCURVE",
"114 56 OFFCURVE",
"100 49 CURVE SMOOTH",
"40 21 LINE SMOOTH",
"34 18 OFFCURVE",
"30 15 OFFCURVE",
"30 10 CURVE SMOOTH",
"30 3 OFFCURVE",
"33 0 OFFCURVE",
"40 0 CURVE SMOOTH"
);
}
);
width = 810;
},
{
anchors = (
{
name = bottom;
position = "{385, 0}";
},
{
name = top;
position = "{385, 710}";
}
);
associatedMasterId = m01;
layerId = "4B237462-57CC-40AD-B063-6AFB36F3223E";
name = "Jan 10, 22, 16:50";
paths = (
{
closed = 1;
nodes = (
"315 0 LINE",
"315 16 LINE",
"235 56 LINE",
"235 604 LINE",
"315 644 LINE",
"315 660 LINE",
"65 660 LINE",
"65 644 LINE",
"145 604 LINE",
"145 56 LINE",
"65 16 LINE",
"65 0 LINE"
);
},
{
closed = 1;
nodes = (
"560 0 LINE",
"704 0 LINE",
"704 16 LINE",
"604 59 LINE",
"654 31 LINE",
"303 386 LINE",
"303 338 LINE",
"609 638 LINE",
"568 611 LINE",
"652 644 LINE",
"652 660 LINE",
"442 660 LINE",
"442 644 LINE",
"530 602 LINE",
"530 627 LINE",
"236 338 LINE"
);
}
);
width = 719;
},
{
anchors = (
{
name = bottom;
position = "{452, 0}";
},
{
name = top;
position = "{452, 710}";
}
);
associatedMasterId = m002;
layerId = "E83F7931-ECB8-4850-A76F-06DAB2F54A01";
name = "Jan 10, 22, 16:51";
paths = (
{
closed = 1;
nodes = (
"398 0 LINE",
"398 16 LINE",
"309 58 LINE",
"309 602 LINE",
"398 644 LINE",
"398 660 LINE",
"30 660 LINE",
"30 644 LINE",
"119 602 LINE",
"119 58 LINE",
"30 16 LINE",
"30 0 LINE"
);
},
{
closed = 1;
nodes = (
"533 0 LINE",
"806 0 LINE",
"806 16 LINE",
"697 61 LINE",
"743 29 LINE",
"467 428 LINE",
"399 339 LINE",
"708 632 LINE",
"638 591 LINE",
"757 644 LINE",
"757 660 LINE",
"505 660 LINE",
"505 644 LINE",
"613 591 LINE",
"607 632 LINE",
"309 330 LINE"
);
}
);
width = 810;
}
);
leftKerningGroup = kern_H2;
rightKerningGroup = kern_K1;
unicode = 004B;
},
{
color = 5;
glyphname = L;
layers = (
{
anchors = (
{
name = bottom;
position = "{354, 0}";
},
{
name = mid;
position = "{490, 347}";
},
{
name = right;
position = "{475, 660}";
},
{
name = top;
position = "{190, 710}";
}
);
layerId = m01;
paths = (
{
closed = 1;
nodes = (
"548 0 LINE SMOOTH",
"557 0 OFFCURVE",
"562 5 OFFCURVE",
"562 17 CURVE SMOOTH",
"562 212 LINE SMOOTH",
"562 218 OFFCURVE",
"559 222 OFFCURVE",
"553 222 CURVE SMOOTH",
"547 222 OFFCURVE",
"544 217 OFFCURVE",
"542 212 CURVE SMOOTH",
"485 72 LINE SMOOTH",
"482 65 OFFCURVE",
"478 55 OFFCURVE",
"458 55 CURVE SMOOTH",
"255 55 LINE SMOOTH",
"240 55 OFFCURVE",
"235 61 OFFCURVE",
"235 76 CURVE SMOOTH",
"235 585 LINE SMOOTH",
"235 600 OFFCURVE",
"239 606 OFFCURVE",
"255 613 CURVE SMOOTH",
"314 639 LINE SMOOTH",
"321 642 OFFCURVE",
"325 645 OFFCURVE",
"325 650 CURVE SMOOTH",
"325 657 OFFCURVE",
"322 660 OFFCURVE",
"315 660 CURVE SMOOTH",
"75 660 LINE SMOOTH",
"68 660 OFFCURVE",
"65 657 OFFCURVE",
"65 650 CURVE SMOOTH",
"65 645 OFFCURVE",
"69 642 OFFCURVE",
"75 639 CURVE SMOOTH",
"125 614 LINE SMOOTH",
"141 606 OFFCURVE",
"145 600 OFFCURVE",
"145 585 CURVE SMOOTH",
"145 76 LINE SMOOTH",
"145 61 OFFCURVE",
"139 53 OFFCURVE",
"125 46 CURVE SMOOTH",
"75 21 LINE SMOOTH",
"69 18 OFFCURVE",
"65 15 OFFCURVE",
"65 10 CURVE SMOOTH",
"65 3 OFFCURVE",
"68 0 OFFCURVE",
"75 0 CURVE SMOOTH"
);
}
);
width = 632;
},
{
anchors = (
{
name = bottom;
position = "{362, 0}";
},
{
name = mid;
position = "{540, 355}";
},
{
name = right;
position = "{520, 660}";
},
{
name = top;
position = "{214, 710}";
}
);
layerId = m002;
paths = (
{
closed = 1;
nodes = (
"606 0 LINE SMOOTH",
"615 0 OFFCURVE",
"620 5 OFFCURVE",
"620 17 CURVE SMOOTH",
"620 249 LINE SMOOTH",
"620 255 OFFCURVE",
"617 259 OFFCURVE",
"611 259 CURVE SMOOTH",
"605 259 OFFCURVE",
"602 254 OFFCURVE",
"600 249 CURVE SMOOTH",
"522 73 LINE SMOOTH",
"519 66 OFFCURVE",
"515 55 OFFCURVE",
"495 55 CURVE SMOOTH",
"329 55 LINE SMOOTH",
"314 55 OFFCURVE",
"309 61 OFFCURVE",
"309 76 CURVE SMOOTH",
"309 585 LINE SMOOTH",
"309 600 OFFCURVE",
"312 603 OFFCURVE",
"328 610 CURVE SMOOTH",
"397 639 LINE SMOOTH",
"404 642 OFFCURVE",
"408 645 OFFCURVE",
"408 650 CURVE SMOOTH",
"408 657 OFFCURVE",
"405 660 OFFCURVE",
"398 660 CURVE SMOOTH",
"40 660 LINE SMOOTH",
"33 660 OFFCURVE",
"30 657 OFFCURVE",
"30 650 CURVE SMOOTH",
"30 645 OFFCURVE",
"34 642 OFFCURVE",
"40 639 CURVE SMOOTH",
"100 611 LINE SMOOTH",
"115 604 OFFCURVE",
"119 600 OFFCURVE",
"119 585 CURVE SMOOTH",
"119 76 LINE SMOOTH",
"119 61 OFFCURVE",
"113 55 OFFCURVE",
"100 49 CURVE SMOOTH",
"40 21 LINE SMOOTH",
"34 18 OFFCURVE",
"30 15 OFFCURVE",
"30 10 CURVE SMOOTH",
"30 3 OFFCURVE",
"33 0 OFFCURVE",
"40 0 CURVE SMOOTH"
);
}
);
width = 660;
},
{
anchors = (
{
name = bottom;
position = "{354, 0}";
},
{
name = mid;
position = "{490, 347}";
},
{
name = right;
position = "{475, 660}";
},
{
name = top;
position = "{190, 710}";
}
);
associatedMasterId = m01;
layerId = "DF7FC19A-BDED-41CD-9F2E-44876A9E8216";
name = "Jan 10, 22, 19:13";
paths = (
{
closed = 1;
nodes = (
"562 0 LINE",
"562 222 LINE",
"546 222 LINE",
"478 55 LINE",
"235 55 LINE",
"235 604 LINE",
"325 644 LINE",
"325 660 LINE",
"65 660 LINE",
"65 644 LINE",
"145 604 LINE",
"145 56 LINE",
"65 16 LINE",
"65 0 LINE"
);
}
);
width = 632;
},
{
anchors = (
{
name = bottom;
position = "{362, 0}";
},
{
name = mid;
position = "{540, 355}";
},
{
name = right;
position = "{520, 660}";
},
{
name = top;
position = "{214, 710}";
}
);
associatedMasterId = m002;
layerId = "48946787-CFEA-4A94-92B4-512A2DB08E99";
name = "Jan 10, 22, 19:14";
paths = (
{
closed = 1;
nodes = (
"620 0 LINE",
"620 259 LINE",
"604 259 LINE",
"514 55 LINE",
"309 55 LINE",
"309 602 LINE",
"408 644 LINE",
"408 660 LINE",
"30 660 LINE",
"30 644 LINE",
"119 602 LINE",
"119 58 LINE",
"30 16 LINE",
"30 0 LINE"
);
}
);
width = 660;
}
);
leftKerningGroup = kern_H2;
rightKerningGroup = kern_L1;
unicode = 004C;
},
{
color = 5;
glyphname = M;
layers = (
{
anchors = (
{
name = bottom;
position = "{472, 0}";
}
);
layerId = m01;
paths = (
{
closed = 1;
nodes = (
"272 0 LINE SMOOTH",
"279 0 OFFCURVE",
"282 3 OFFCURVE",
"282 10 CURVE SMOOTH",
"282 15 OFFCURVE",
"279 18 OFFCURVE",
"272 21 CURVE SMOOTH",
"212 50 LINE SMOOTH",
"206 53 OFFCURVE",
"202 61 OFFCURVE",
"202 76 CURVE SMOOTH",
"213 508 LINE SMOOTH",
"213 518 OFFCURVE",
"216 520 OFFCURVE",
"219 520 CURVE SMOOTH",
"222 520 OFFCURVE",
"224 518 OFFCURVE",
"228 508 CURVE SMOOTH",
"441 13 LINE SMOOTH",
"447 0 OFFCURVE",
"452 -5 OFFCURVE",
"474 -5 CURVE SMOOTH",
"491 -5 OFFCURVE",
"496 0 OFFCURVE",
"502 13 CURVE SMOOTH",
"712 499 LINE SMOOTH",
"715 506 OFFCURVE",
"719 515 OFFCURVE",
"725 515 CURVE SMOOTH",
"732 515 OFFCURVE",
"734 510 OFFCURVE",
"734 499 CURVE SMOOTH",
"743 76 LINE SMOOTH",
"743 61 OFFCURVE",
"738 52 OFFCURVE",
"726 46 CURVE SMOOTH",
"679 21 LINE SMOOTH",
"673 18 OFFCURVE",
"669 15 OFFCURVE",
"669 10 CURVE SMOOTH",
"669 3 OFFCURVE",
"672 0 OFFCURVE",
"679 0 CURVE SMOOTH",
"889 0 LINE SMOOTH",
"896 0 OFFCURVE",
"899 3 OFFCURVE",
"899 10 CURVE SMOOTH",
"899 15 OFFCURVE",
"895 18 OFFCURVE",
"889 22 CURVE SMOOTH",
"839 50 LINE SMOOTH",
"833 53 OFFCURVE",
"829 61 OFFCURVE",
"829 76 CURVE SMOOTH",
"813 578 LINE SMOOTH",
"813 591 OFFCURVE",
"814 605 OFFCURVE",
"831 613 CURVE SMOOTH",
"886 639 LINE SMOOTH",
"893 642 OFFCURVE",
"896 645 OFFCURVE",
"896 651 CURVE SMOOTH",
"896 658 OFFCURVE",
"893 660 OFFCURVE",
"886 660 CURVE SMOOTH",
"744 660 LINE SMOOTH",
"724 660 OFFCURVE",
"714 646 OFFCURVE",
"704 623 CURVE SMOOTH",
"506 165 LINE SMOOTH",
"501 153 OFFCURVE",
"496 144 OFFCURVE",
"490 144 CURVE SMOOTH",
"484 144 OFFCURVE",
"479 153 OFFCURVE",
"472 170 CURVE SMOOTH",
"277 619 LINE SMOOTH",
"265 647 OFFCURVE",
"257 660 OFFCURVE",
"227 660 CURVE SMOOTH",
"81 660 LINE SMOOTH",
"77 660 OFFCURVE",
"74 657 OFFCURVE",
"74 652 CURVE SMOOTH",
"74 647 OFFCURVE",
"76 643 OFFCURVE",
"81 641 CURVE SMOOTH",
"137 614 LINE SMOOTH",
"154 606 OFFCURVE",
"160 596 OFFCURVE",
"159 577 CURVE SMOOTH",
"140 76 LINE SMOOTH",
"139 61 OFFCURVE",
"135 54 OFFCURVE",
"123 48 CURVE SMOOTH",
"70 21 LINE SMOOTH",
"64 18 OFFCURVE",
"60 15 OFFCURVE",
"60 10 CURVE SMOOTH",
"60 3 OFFCURVE",
"63 0 OFFCURVE",
"70 0 CURVE SMOOTH"
);
}
);
width = 959;
},
{
anchors = (
{
name = bottom;
position = "{461, 0}";
}
);
layerId = m002;
paths = (
{
closed = 1;
nodes = (
"271 0 LINE SMOOTH",
"278 0 OFFCURVE",
"281 3 OFFCURVE",
"281 10 CURVE SMOOTH",
"281 15 OFFCURVE",
"278 18 OFFCURVE",
"271 21 CURVE SMOOTH",
"203 51 LINE SMOOTH",
"193 56 OFFCURVE",
"190 59 OFFCURVE",
"191 85 CURVE SMOOTH",
"202 493 LINE SMOOTH",
"202 499 OFFCURVE",
"204 502 OFFCURVE",
"207 502 CURVE SMOOTH",
"210 502 OFFCURVE",
"212 500 OFFCURVE",
"215 493 CURVE SMOOTH",
"421 13 LINE SMOOTH",
"427 0 OFFCURVE",
"434 -5 OFFCURVE",
"462 -5 CURVE SMOOTH",
"488 -5 OFFCURVE",
"496 0 OFFCURVE",
"501 13 CURVE SMOOTH",
"702 489 LINE SMOOTH",
"704 493 OFFCURVE",
"706 496 OFFCURVE",
"709 496 CURVE SMOOTH",
"713 496 OFFCURVE",
"715 494 OFFCURVE",
"715 475 CURVE SMOOTH",
"723 76 LINE SMOOTH",
"723 61 OFFCURVE",
"719 55 OFFCURVE",
"707 49 CURVE SMOOTH",
"649 21 LINE SMOOTH",
"643 18 OFFCURVE",
"639 15 OFFCURVE",
"639 10 CURVE SMOOTH",
"639 3 OFFCURVE",
"642 0 OFFCURVE",
"649 0 CURVE SMOOTH",
"979 0 LINE SMOOTH",
"986 0 OFFCURVE",
"989 3 OFFCURVE",
"989 10 CURVE SMOOTH",
"989 15 OFFCURVE",
"985 18 OFFCURVE",
"978 22 CURVE SMOOTH",
"920 52 LINE SMOOTH",
"914 55 OFFCURVE",
"909 61 OFFCURVE",
"909 76 CURVE SMOOTH",
"893 578 LINE SMOOTH",
"892 600 OFFCURVE",
"893 616 OFFCURVE",
"911 622 CURVE SMOOTH",
"971 641 LINE SMOOTH",
"978 643 OFFCURVE",
"981 645 OFFCURVE",
"981 651 CURVE SMOOTH",
"981 658 OFFCURVE",
"978 660 OFFCURVE",
"971 660 CURVE SMOOTH",
"724 660 LINE SMOOTH",
"704 660 OFFCURVE",
"694 646 OFFCURVE",
"684 623 CURVE SMOOTH",
"538 275 LINE SMOOTH",
"533 263 OFFCURVE",
"529 257 OFFCURVE",
"522 257 CURVE SMOOTH",
"515 257 OFFCURVE",
"510 263 OFFCURVE",
"505 275 CURVE SMOOTH",
"357 619 LINE SMOOTH",
"345 648 OFFCURVE",
"337 660 OFFCURVE",
"307 660 CURVE SMOOTH",
"58 660 LINE SMOOTH",
"54 660 OFFCURVE",
"51 657 OFFCURVE",
"51 652 CURVE SMOOTH",
"51 647 OFFCURVE",
"53 643 OFFCURVE",
"58 641 CURVE SMOOTH",
"114 615 LINE SMOOTH",
"131 607 OFFCURVE",
"140 596 OFFCURVE",
"139 577 CURVE SMOOTH",
"120 76 LINE SMOOTH",
"119 61 OFFCURVE",
"116 57 OFFCURVE",
"104 51 CURVE SMOOTH",
"40 21 LINE SMOOTH",
"34 18 OFFCURVE",
"30 15 OFFCURVE",
"30 10 CURVE SMOOTH",
"30 3 OFFCURVE",
"33 0 OFFCURVE",
"40 0 CURVE SMOOTH"
);
}
);
width = 1019;
},
{
anchors = (
{
name = bottom;
position = "{472, 0}";
}
);
associatedMasterId = m01;
layerId = "F8142E1D-66C0-431A-8EE1-C91D71CFB1FA";
name = "Jan 10, 22, 20:27";
paths = (
{
closed = 1;
nodes = (
"282 0 LINE",
"282 16 LINE",
"201 55 LINE",
"217 642 LINE",
"161 642 LINE",
"139 56 LINE",
"60 16 LINE",
"60 0 LINE"
);
},
{
closed = 1;
nodes = (
"494 -5 LINE",
"754 597 LINE",
"797 597 LINE",
"896 644 LINE",
"896 660 LINE",
"720 660 LINE",
"465 71 LINE",
"514 71 LINE",
"259 660 LINE",
"74 660 LINE",
"74 644 LINE",
"173 597 LINE",
"190 597 LINE",
"449 -5 LINE"
);
},
{
closed = 1;
nodes = (
"899 0 LINE",
"899 16 LINE",
"829 56 LINE",
"811 642 LINE",
"731 642 LINE",
"743 55 LINE",
"669 16 LINE",
"669 0 LINE"
);
}
);
width = 959;
},
{
anchors = (
{
name = bottom;
position = "{461, 0}";
}
);
associatedMasterId = m002;
layerId = "D82DCE04-6AD1-49EC-B388-0206BFB02A92";
name = "Jan 10, 22, 21:33";
paths = (
{
closed = 1;
nodes = (
"281 0 LINE",
"281 16 LINE",
"190 57 LINE",
"206 642 LINE",
"141 642 LINE",
"119 58 LINE",
"30 16 LINE",
"30 0 LINE"
);
},
{
closed = 1;
nodes = (
"493 -5 LINE",
"746 595 LINE",
"825 595 LINE",
"981 644 LINE",
"981 660 LINE",
"700 660 LINE",
"502 189 LINE",
"543 189 LINE",
"339 660 LINE",
"51 660 LINE",
"51 644 LINE",
"157 595 LINE",
"171 595 LINE",
"429 -5 LINE"
);
},
{
closed = 1;
nodes = (
"989 0 LINE",
"989 16 LINE",
"909 58 LINE",
"891 642 LINE",
"711 642 LINE",
"723 57 LINE",
"639 16 LINE",
"639 0 LINE"
);
}
);
visible = 1;
width = 1019;
}
);
leftKerningGroup = kern_M3;
rightKerningGroup = kern_M3;
unicode = 004D;
},
{
color = 5;
glyphname = N;
layers = (
{
anchors = (
{
name = bottom;
position = "{420, 0}";
},
{
name = top;
position = "{410, 710}";
}
);
layerId = m01;
paths = (
{
closed = 1;
nodes = (
"280 0 LINE SMOOTH",
"287 0 OFFCURVE",
"290 3 OFFCURVE",
"290 10 CURVE SMOOTH",
"290 15 OFFCURVE",
"286 18 OFFCURVE",
"280 21 CURVE SMOOTH",
"230 46 LINE SMOOTH",
"216 53 OFFCURVE",
"210 61 OFFCURVE",
"210 76 CURVE SMOOTH",
"210 489 LINE SMOOTH",
"210 494 OFFCURVE",
"213 499 OFFCURVE",
"218 499 CURVE SMOOTH",
"224 499 OFFCURVE",
"228 494 OFFCURVE",
"234 486 CURVE SMOOTH",
"600 24 LINE SMOOTH",
"619 0 OFFCURVE",
"627 -5 OFFCURVE",
"637 -5 CURVE SMOOTH",
"657 -5 OFFCURVE",
"660 -2 OFFCURVE",
"660 15 CURVE SMOOTH",
"660 585 LINE SMOOTH",
"660 601 OFFCURVE",
"664 607 OFFCURVE",
"680 615 CURVE SMOOTH",
"729 639 LINE SMOOTH",
"735 642 OFFCURVE",
"739 645 OFFCURVE",
"739 650 CURVE SMOOTH",
"739 657 OFFCURVE",
"736 660 OFFCURVE",
"729 660 CURVE SMOOTH",
"500 660 LINE SMOOTH",
"493 660 OFFCURVE",
"490 657 OFFCURVE",
"490 650 CURVE SMOOTH",
"490 645 OFFCURVE",
"494 642 OFFCURVE",
"500 640 CURVE SMOOTH",
"572 613 LINE SMOOTH",
"588 607 OFFCURVE",
"590 600 OFFCURVE",
"590 585 CURVE SMOOTH",
"590 211 LINE SMOOTH",
"590 203 OFFCURVE",
"587 198 OFFCURVE",
"582 198 CURVE SMOOTH",
"575 198 OFFCURVE",
"572 203 OFFCURVE",
"567 209 CURVE SMOOTH",
"222 643 LINE SMOOTH",
"214 654 OFFCURVE",
"201 660 OFFCURVE",
"190 660 CURVE SMOOTH",
"71 660 LINE SMOOTH",
"64 660 OFFCURVE",
"61 657 OFFCURVE",
"61 650 CURVE SMOOTH",
"61 645 OFFCURVE",
"65 642 OFFCURVE",
"72 638 CURVE SMOOTH",
"119 613 LINE SMOOTH",
"138 603 OFFCURVE",
"140 593 OFFCURVE",
"140 582 CURVE SMOOTH",
"140 76 LINE SMOOTH",
"140 61 OFFCURVE",
"134 53 OFFCURVE",
"120 46 CURVE SMOOTH",
"70 21 LINE SMOOTH",
"64 18 OFFCURVE",
"60 15 OFFCURVE",
"60 10 CURVE SMOOTH",
"60 3 OFFCURVE",
"63 0 OFFCURVE",
"70 0 CURVE SMOOTH"
);
}
);
width = 799;
},
{
anchors = (
{
name = bottom;
position = "{414, 0}";
},
{
name = top;
position = "{415, 710}";
}
);
layerId = m002;
paths = (
{
closed = 1;
nodes = (
"302 0 LINE SMOOTH",
"309 0 OFFCURVE",
"312 3 OFFCURVE",
"312 10 CURVE SMOOTH",
"312 15 OFFCURVE",
"307 18 OFFCURVE",
"301 20 CURVE SMOOTH",
"209 51 LINE SMOOTH",
"195 56 OFFCURVE",
"189 61 OFFCURVE",
"189 76 CURVE SMOOTH",
"189 431 LINE SMOOTH",
"189 436 OFFCURVE",
"190 441 OFFCURVE",
"196 441 CURVE SMOOTH",
"201 441 OFFCURVE",
"206 436 OFFCURVE",
"213 428 CURVE SMOOTH",
"603 24 LINE SMOOTH",
"624 2 OFFCURVE",
"638 -5 OFFCURVE",
"672 -5 CURVE SMOOTH",
"702 -5 OFFCURVE",
"710 2 OFFCURVE",
"710 25 CURVE SMOOTH",
"710 585 LINE SMOOTH",
"710 598 OFFCURVE",
"712 603 OFFCURVE",
"729 611 CURVE SMOOTH",
"787 639 LINE SMOOTH",
"793 642 OFFCURVE",
"797 645 OFFCURVE",
"797 650 CURVE SMOOTH",
"797 657 OFFCURVE",
"794 660 OFFCURVE",
"787 660 CURVE SMOOTH",
"527 660 LINE SMOOTH",
"520 660 OFFCURVE",
"517 657 OFFCURVE",
"517 650 CURVE SMOOTH",
"517 645 OFFCURVE",
"521 642 OFFCURVE",
"527 640 CURVE SMOOTH",
"622 608 LINE SMOOTH",
"632 605 OFFCURVE",
"640 599 OFFCURVE",
"640 585 CURVE SMOOTH",
"640 275 LINE SMOOTH",
"640 267 OFFCURVE",
"637 263 OFFCURVE",
"632 263 CURVE SMOOTH",
"627 263 OFFCURVE",
"622 267 OFFCURVE",
"616 273 CURVE SMOOTH",
"262 643 LINE SMOOTH",
"252 654 OFFCURVE",
"241 660 OFFCURVE",
"230 660 CURVE SMOOTH",
"40 660 LINE SMOOTH",
"33 660 OFFCURVE",
"30 657 OFFCURVE",
"30 650 CURVE SMOOTH",
"30 645 OFFCURVE",
"34 642 OFFCURVE",
"41 639 CURVE SMOOTH",
"98 612 LINE SMOOTH",
"115 604 OFFCURVE",
"119 596 OFFCURVE",
"119 582 CURVE SMOOTH",
"119 76 LINE SMOOTH",
"119 61 OFFCURVE",
"114 56 OFFCURVE",
"100 49 CURVE SMOOTH",
"40 21 LINE SMOOTH",
"34 18 OFFCURVE",
"30 15 OFFCURVE",
"30 10 CURVE SMOOTH",
"30 3 OFFCURVE",
"33 0 OFFCURVE",
"40 0 CURVE SMOOTH"
);
}
);
width = 827;
},
{
anchors = (
{
name = bottom;
position = "{420, 0}";
},
{
name = top;
position = "{410, 710}";
}
);
associatedMasterId = m01;
layerId = "45800E63-F0D1-4727-B5EF-AFC7293F864E";
name = "Jan 11, 22, 22:04";
paths = (
{
closed = 1;
nodes = (
"310 0 LINE",
"310 16 LINE",
"210 55 LINE",
"210 561 LINE",
"174 561 LINE",
"623 -5 LINE",
"660 -5 LINE",
"660 605 LINE",
"739 644 LINE",
"739 660 LINE",
"490 660 LINE",
"490 644 LINE",
"590 606 LINE",
"590 100 LINE",
"654 100 LINE",
"208 660 LINE",
"61 660 LINE",
"61 644 LINE",
"140 602 LINE",
"140 56 LINE",
"60 16 LINE",
"60 0 LINE"
);
}
);
width = 799;
},
{
anchors = (
{
name = bottom;
position = "{414, 0}";
},
{
name = top;
position = "{415, 710}";
}
);
associatedMasterId = m002;
layerId = "B0F1CF0D-DEEE-49B6-8008-3623C1BA28DE";
name = "Jan 11, 22, 22:08";
paths = (
{
closed = 1;
nodes = (
"312 0 LINE",
"312 16 LINE",
"189 58 LINE",
"189 493 LINE",
"150 493 LINE",
"631 -5 LINE",
"710 -5 LINE",
"710 602 LINE",
"797 644 LINE",
"797 660 LINE",
"517 660 LINE",
"517 644 LINE",
"640 602 LINE",
"640 187 LINE",
"698 187 LINE",
"247 660 LINE",
"30 660 LINE",
"30 644 LINE",
"119 602 LINE",
"119 58 LINE",
"30 16 LINE",
"30 0 LINE"
);
}
);
visible = 1;
width = 827;
}
);
leftKerningGroup = kern_H2;
rightKerningGroup = kern_N1;
unicode = 004E;
},
{
color = 5;
glyphname = O;
layers = (
{
anchors = (
{
name = bottom;
position = "{417, 0}";
},
{
name = right;
position = "{431, 0}";
},
{
name = top;
position = "{391, 710}";
}
);
layerId = m01;
paths = (
{
closed = 1;
nodes = (
"595 -10 OFFCURVE",
"737 134 OFFCURVE",
"737 330 CURVE SMOOTH",
"737 526 OFFCURVE",
"595 670 OFFCURVE",
"403 670 CURVE SMOOTH",
"212 670 OFFCURVE",
"70 526 OFFCURVE",
"70 330 CURVE SMOOTH",
"70 134 OFFCURVE",
"212 -10 OFFCURVE",
"403 -10 CURVE SMOOTH"
);
},
{
closed = 1;
nodes = (
"281 40 OFFCURVE",
"167 168 OFFCURVE",
"167 363 CURVE SMOOTH",
"167 521 OFFCURVE",
"258 621 OFFCURVE",
"386 621 CURVE SMOOTH",
"528 621 OFFCURVE",
"640 494 OFFCURVE",
"640 299 CURVE SMOOTH",
"640 141 OFFCURVE",
"552 40 OFFCURVE",
"424 40 CURVE SMOOTH"
);
}
);
width = 807;
},
{
anchors = (
{
name = bottom;
position = "{389, 0}";
},
{
name = right;
position = "{423, 0}";
},
{
name = top;
position = "{389, 710}";
}
);
layerId = m002;
paths = (
{
closed = 1;
nodes = (
"591 -10 OFFCURVE",
"742 134 OFFCURVE",
"742 330 CURVE SMOOTH",
"742 526 OFFCURVE",
"591 670 OFFCURVE",
"388 670 CURVE SMOOTH",
"186 670 OFFCURVE",
"35 526 OFFCURVE",
"35 330 CURVE SMOOTH",
"35 134 OFFCURVE",
"186 -10 OFFCURVE",
"388 -10 CURVE SMOOTH"
);
},
{
closed = 1;
nodes = (
"309 43 OFFCURVE",
"235 169 OFFCURVE",
"235 361 CURVE SMOOTH",
"235 518 OFFCURVE",
"296 618 OFFCURVE",
"377 618 CURVE SMOOTH",
"470 618 OFFCURVE",
"542 493 OFFCURVE",
"542 301 CURVE SMOOTH",
"542 144 OFFCURVE",
"485 43 OFFCURVE",
"401 43 CURVE SMOOTH"
);
}
);
width = 777;
}
);
leftKerningGroup = kern_O2;
rightKerningGroup = kern_O1;
unicode = 004F;
},
{
color = 5;
glyphname = Oslash;
layers = (
{
anchors = (
{
name = top;
position = "{391, 710}";
}
);
layerId = m01;
paths = (
{
closed = 1;
nodes = (
"595 -10 OFFCURVE",
"737 134 OFFCURVE",
"737 330 CURVE SMOOTH",
"737 422 OFFCURVE",
"709 500 OFFCURVE",
"655 559 CURVE SMOOTH",
"653 561 OFFCURVE",
"650 564 OFFCURVE",
"650 568 CURVE SMOOTH",
"650 571 OFFCURVE",
"654 576 OFFCURVE",
"656 578 CURVE SMOOTH",
"722 653 LINE SMOOTH",
"726 657 OFFCURVE",
"729 661 OFFCURVE",
"729 665 CURVE SMOOTH",
"729 669 OFFCURVE",
"726 670 OFFCURVE",
"723 670 CURVE SMOOTH",
"678 670 LINE SMOOTH",
"669 670 OFFCURVE",
"666 667 OFFCURVE",
"663 664 CURVE SMOOTH",
"615 610 LINE SMOOTH",
"613 608 OFFCURVE",
"611 606 OFFCURVE",
"609 606 CURVE SMOOTH",
"606 606 OFFCURVE",
"604 607 OFFCURVE",
"602 608 CURVE SMOOTH",
"547 647 OFFCURVE",
"479 670 OFFCURVE",
"403 670 CURVE SMOOTH",
"212 670 OFFCURVE",
"70 526 OFFCURVE",
"70 330 CURVE SMOOTH",
"70 240 OFFCURVE",
"100 160 OFFCURVE",
"152 101 CURVE SMOOTH",
"155 98 OFFCURVE",
"157 95 OFFCURVE",
"157 92 CURVE SMOOTH",
"157 89 OFFCURVE",
"156 87 OFFCURVE",
"154 85 CURVE SMOOTH",
"81 2 LINE SMOOTH",
"79 0 OFFCURVE",
"77 -4 OFFCURVE",
"77 -7 CURVE SMOOTH",
"77 -10 OFFCURVE",
"80 -10 OFFCURVE",
"83 -10 CURVE SMOOTH",
"127 -10 LINE SMOOTH",
"135 -10 OFFCURVE",
"143 -6 OFFCURVE",
"148 0 CURVE SMOOTH",
"189 47 LINE SMOOTH",
"192 50 OFFCURVE",
"196 53 OFFCURVE",
"199 53 CURVE SMOOTH",
"202 53 OFFCURVE",
"205 52 OFFCURVE",
"209 49 CURVE SMOOTH",
"261 10 OFFCURVE",
"327 -10 OFFCURVE",
"403 -10 CURVE SMOOTH"
);
},
{
closed = 1;
nodes = (
"214 169 OFFCURVE",
"211 173 OFFCURVE",
"209 177 CURVE SMOOTH",
"183 225 OFFCURVE",
"167 287 OFFCURVE",
"167 363 CURVE SMOOTH",
"167 521 OFFCURVE",
"258 621 OFFCURVE",
"386 621 CURVE SMOOTH",
"448 621 OFFCURVE",
"503 598 OFFCURVE",
"547 554 CURVE SMOOTH",
"552 549 OFFCURVE",
"552 546 OFFCURVE",
"552 542 CURVE SMOOTH",
"552 539 OFFCURVE",
"549 535 OFFCURVE",
"546 532 CURVE SMOOTH",
"233 176 LINE SMOOTH",
"230 173 OFFCURVE",
"225 169 OFFCURVE",
"219 169 CURVE SMOOTH"
);
},
{
closed = 1;
nodes = (
"363 40 OFFCURVE",
"307 63 OFFCURVE",
"263 106 CURVE SMOOTH",
"259 110 OFFCURVE",
"256 115 OFFCURVE",
"256 119 CURVE SMOOTH",
"256 122 OFFCURVE",
"258 126 OFFCURVE",
"265 134 CURVE SMOOTH",
"581 492 LINE SMOOTH",
"584 495 OFFCURVE",
"585 497 OFFCURVE",
"588 497 CURVE SMOOTH",
"591 497 OFFCURVE",
"593 495 OFFCURVE",
"595 491 CURVE SMOOTH",
"623 440 OFFCURVE",
"640 374 OFFCURVE",
"640 299 CURVE SMOOTH",
"640 141 OFFCURVE",
"552 40 OFFCURVE",
"424 40 CURVE SMOOTH"
);
}
);
width = 807;
},
{
anchors = (
{
name = top;
position = "{389, 710}";
}
);
layerId = m002;
paths = (
{
closed = 1;
nodes = (
"595 -10 OFFCURVE",
"743 134 OFFCURVE",
"743 330 CURVE SMOOTH",
"743 422 OFFCURVE",
"710 500 OFFCURVE",
"656 559 CURVE SMOOTH",
"654 561 OFFCURVE",
"651 564 OFFCURVE",
"651 568 CURVE SMOOTH",
"651 571 OFFCURVE",
"655 576 OFFCURVE",
"657 578 CURVE SMOOTH",
"727 653 LINE SMOOTH",
"731 657 OFFCURVE",
"734 661 OFFCURVE",
"734 665 CURVE SMOOTH",
"734 669 OFFCURVE",
"731 670 OFFCURVE",
"728 670 CURVE SMOOTH",
"672 670 LINE SMOOTH",
"663 670 OFFCURVE",
"660 667 OFFCURVE",
"657 664 CURVE SMOOTH",
"607 611 LINE SMOOTH",
"605 609 OFFCURVE",
"603 607 OFFCURVE",
"601 607 CURVE SMOOTH",
"598 607 OFFCURVE",
"596 608 OFFCURVE",
"594 609 CURVE SMOOTH",
"539 648 OFFCURVE",
"479 670 OFFCURVE",
"403 670 CURVE SMOOTH",
"182 670 OFFCURVE",
"34 526 OFFCURVE",
"34 330 CURVE SMOOTH",
"34 240 OFFCURVE",
"69 160 OFFCURVE",
"121 101 CURVE SMOOTH",
"124 98 OFFCURVE",
"126 95 OFFCURVE",
"126 92 CURVE SMOOTH",
"126 89 OFFCURVE",
"125 87 OFFCURVE",
"123 85 CURVE SMOOTH",
"46 2 LINE SMOOTH",
"44 0 OFFCURVE",
"41 -4 OFFCURVE",
"41 -7 CURVE SMOOTH",
"41 -10 OFFCURVE",
"45 -10 OFFCURVE",
"48 -10 CURVE SMOOTH",
"103 -10 LINE SMOOTH",
"111 -10 OFFCURVE",
"119 -6 OFFCURVE",
"124 0 CURVE SMOOTH",
"168 47 LINE SMOOTH",
"171 50 OFFCURVE",
"173 52 OFFCURVE",
"176 52 CURVE SMOOTH",
"179 52 OFFCURVE",
"182 50 OFFCURVE",
"186 47 CURVE SMOOTH",
"230 11 OFFCURVE",
"317 -10 OFFCURVE",
"403 -10 CURVE SMOOTH"
);
},
{
closed = 1;
nodes = (
"249 235 OFFCURVE",
"246 239 OFFCURVE",
"245 245 CURVE SMOOTH",
"240 273 OFFCURVE",
"235 297 OFFCURVE",
"235 363 CURVE SMOOTH",
"235 521 OFFCURVE",
"296 618 OFFCURVE",
"378 618 CURVE SMOOTH",
"440 618 OFFCURVE",
"481 568 OFFCURVE",
"502 515 CURVE SMOOTH",
"505 508 OFFCURVE",
"507 507 OFFCURVE",
"507 503 CURVE SMOOTH",
"507 500 OFFCURVE",
"504 496 OFFCURVE",
"501 493 CURVE SMOOTH",
"269 244 LINE SMOOTH",
"264 239 OFFCURVE",
"260 235 OFFCURVE",
"254 235 CURVE SMOOTH"
);
},
{
closed = 1;
nodes = (
"348 43 OFFCURVE",
"307 82 OFFCURVE",
"278 141 CURVE SMOOTH",
"275 146 OFFCURVE",
"272 151 OFFCURVE",
"272 155 CURVE SMOOTH",
"272 158 OFFCURVE",
"274 162 OFFCURVE",
"281 170 CURVE SMOOTH",
"518 426 LINE SMOOTH",
"521 429 OFFCURVE",
"522 431 OFFCURVE",
"525 431 CURVE SMOOTH",
"528 431 OFFCURVE",
"532 429 OFFCURVE",
"532 425 CURVE SMOOTH",
"535 392 OFFCURVE",
"542 369 OFFCURVE",
"542 294 CURVE SMOOTH",
"542 136 OFFCURVE",
"477 43 OFFCURVE",
"403 43 CURVE SMOOTH"
);
}
);
width = 777;
},
{
anchors = (
{
name = top;
position = "{391, 710}";
}
);
associatedMasterId = m01;
layerId = "6193866C-C7B3-4E5F-8DBC-CFCD8DE92972";
name = "Dec 21, 21, 20:14";
paths = (
{
closed = 1;
nodes = (
"595 -10 OFFCURVE",
"737 134 OFFCURVE",
"737 330 CURVE SMOOTH",
"737 526 OFFCURVE",
"595 670 OFFCURVE",
"403 670 CURVE SMOOTH",
"212 670 OFFCURVE",
"70 526 OFFCURVE",
"70 330 CURVE SMOOTH",
"70 134 OFFCURVE",
"212 -10 OFFCURVE",
"403 -10 CURVE SMOOTH"
);
},
{
closed = 1;
nodes = (
"281 40 OFFCURVE",
"167 168 OFFCURVE",
"167 363 CURVE SMOOTH",
"167 521 OFFCURVE",
"258 621 OFFCURVE",
"386 621 CURVE SMOOTH",
"528 621 OFFCURVE",
"640 494 OFFCURVE",
"640 299 CURVE SMOOTH",
"640 141 OFFCURVE",
"552 40 OFFCURVE",
"424 40 CURVE SMOOTH"
);
},
{
closed = 1;
nodes = (
"139 -10 LINE",
"737 670 LINE",
"668 670 LINE",
"70 -10 LINE"
);
}
);
width = 807;
},
{
anchors = (
{
name = top;
position = "{389, 710}";
}
);
associatedMasterId = m002;
layerId = "F2DE0161-FA20-4810-BB47-0FC49B9374DC";
name = "Dec 21, 21, 20:14";
paths = (
{
closed = 1;
nodes = (
"591 -10 OFFCURVE",
"742 134 OFFCURVE",
"742 330 CURVE SMOOTH",
"742 526 OFFCURVE",
"591 670 OFFCURVE",
"388 670 CURVE SMOOTH",
"186 670 OFFCURVE",
"35 526 OFFCURVE",
"35 330 CURVE SMOOTH",
"35 134 OFFCURVE",
"186 -10 OFFCURVE",
"388 -10 CURVE SMOOTH"
);
},
{
closed = 1;
nodes = (
"309 43 OFFCURVE",
"235 169 OFFCURVE",
"235 361 CURVE SMOOTH",
"235 518 OFFCURVE",
"296 618 OFFCURVE",
"377 618 CURVE SMOOTH",
"470 618 OFFCURVE",
"542 493 OFFCURVE",
"542 301 CURVE SMOOTH",
"542 144 OFFCURVE",
"485 43 OFFCURVE",
"401 43 CURVE SMOOTH"
);
},
{
closed = 1;
nodes = (
"115 -10 LINE",
"742 670 LINE",
"662 670 LINE",
"35 -10 LINE"
);
}
);
visible = 1;
width = 777;
}
);
leftKerningGroup = kern_O2;
rightKerningGroup = kern_O1;
unicode = 00D8;
},
{
color = 5;
glyphname = OE;
layers = (
{
layerId = m01;
paths = (
{
closed = 1;
nodes = (
"923 0 LINE SMOOTH",
"936 0 OFFCURVE",
"943 7 OFFCURVE",
"943 20 CURVE SMOOTH",
"943 162 LINE SMOOTH",
"943 172 OFFCURVE",
"943 182 OFFCURVE",
"933 182 CURVE SMOOTH",
"910 182 OFFCURVE",
"885 55 OFFCURVE",
"835 55 CURVE SMOOTH",
"616 55 LINE SMOOTH",
"603 55 OFFCURVE",
"596 62 OFFCURVE",
"596 75 CURVE SMOOTH",
"596 293 LINE SMOOTH",
"596 303 OFFCURVE",
"603 313 OFFCURVE",
"616 313 CURVE SMOOTH",
"746 313 LINE SMOOTH",
"782 313 OFFCURVE",
"804 232 OFFCURVE",
"822 232 CURVE SMOOTH",
"832 232 OFFCURVE",
"832 242 OFFCURVE",
"832 252 CURVE SMOOTH",
"832 431 LINE SMOOTH",
"832 441 OFFCURVE",
"832 451 OFFCURVE",
"822 451 CURVE SMOOTH",
"804 451 OFFCURVE",
"782 368 OFFCURVE",
"746 368 CURVE SMOOTH",
"616 368 LINE SMOOTH",
"603 368 OFFCURVE",
"596 375 OFFCURVE",
"596 388 CURVE SMOOTH",
"596 585 LINE SMOOTH",
"596 597 OFFCURVE",
"604 605 OFFCURVE",
"616 605 CURVE SMOOTH",
"807 605 LINE SMOOTH",
"857 605 OFFCURVE",
"885 488 OFFCURVE",
"905 488 CURVE SMOOTH",
"915 488 OFFCURVE",
"915 498 OFFCURVE",
"915 508 CURVE SMOOTH",
"915 640 LINE SMOOTH",
"915 653 OFFCURVE",
"908 660 OFFCURVE",
"895 660 CURVE SMOOTH",
"449 660 LINE SMOOTH",
"185 660 OFFCURVE",
"71 503 OFFCURVE",
"71 316 CURVE SMOOTH",
"71 143 OFFCURVE",
"168 0 OFFCURVE",
"441 0 CURVE SMOOTH"
);
},
{
closed = 1;
nodes = (
"286 55 OFFCURVE",
"165 142 OFFCURVE",
"165 334 CURVE SMOOTH",
"165 485 OFFCURVE",
"245 605 OFFCURVE",
"457 605 CURVE SMOOTH",
"499 605 OFFCURVE",
"506 599 OFFCURVE",
"506 585 CURVE SMOOTH",
"506 86 LINE SMOOTH",
"506 60 OFFCURVE",
"488 55 OFFCURVE",
"438 55 CURVE SMOOTH"
);
}
);
width = 1013;
},
{
layerId = m002;
paths = (
{
closed = 1;
nodes = (
"999 0 LINE SMOOTH",
"1012 0 OFFCURVE",
"1019 7 OFFCURVE",
"1019 20 CURVE SMOOTH",
"1019 199 LINE SMOOTH",
"1019 209 OFFCURVE",
"1019 219 OFFCURVE",
"1009 219 CURVE SMOOTH",
"986 219 OFFCURVE",
"931 55 OFFCURVE",
"881 55 CURVE SMOOTH",
"708 55 LINE SMOOTH",
"695 55 OFFCURVE",
"688 62 OFFCURVE",
"688 75 CURVE SMOOTH",
"688 293 LINE SMOOTH",
"688 303 OFFCURVE",
"695 313 OFFCURVE",
"708 313 CURVE SMOOTH",
"812 313 LINE SMOOTH",
"848 313 OFFCURVE",
"880 227 OFFCURVE",
"898 227 CURVE SMOOTH",
"908 227 OFFCURVE",
"908 237 OFFCURVE",
"908 247 CURVE SMOOTH",
"908 436 LINE SMOOTH",
"908 446 OFFCURVE",
"908 456 OFFCURVE",
"898 456 CURVE SMOOTH",
"880 456 OFFCURVE",
"848 368 OFFCURVE",
"812 368 CURVE SMOOTH",
"708 368 LINE SMOOTH",
"695 368 OFFCURVE",
"688 375 OFFCURVE",
"688 388 CURVE SMOOTH",
"688 585 LINE SMOOTH",
"688 597 OFFCURVE",
"696 605 OFFCURVE",
"708 605 CURVE SMOOTH",
"863 605 LINE SMOOTH",
"913 605 OFFCURVE",
"961 486 OFFCURVE",
"981 486 CURVE SMOOTH",
"991 486 OFFCURVE",
"991 496 OFFCURVE",
"991 506 CURVE SMOOTH",
"991 640 LINE SMOOTH",
"991 653 OFFCURVE",
"984 660 OFFCURVE",
"971 660 CURVE SMOOTH",
"441 660 LINE SMOOTH",
"159 660 OFFCURVE",
"35 503 OFFCURVE",
"35 316 CURVE SMOOTH",
"35 143 OFFCURVE",
"139 0 OFFCURVE",
"441 0 CURVE SMOOTH"
);
},
{
closed = 1;
nodes = (
"339 55 OFFCURVE",
"231 142 OFFCURVE",
"231 334 CURVE SMOOTH",
"231 485 OFFCURVE",
"297 605 OFFCURVE",
"449 605 CURVE SMOOTH",
"491 605 OFFCURVE",
"498 599 OFFCURVE",
"498 585 CURVE SMOOTH",
"498 86 LINE SMOOTH",
"498 60 OFFCURVE",
"485 55 OFFCURVE",
"442 55 CURVE SMOOTH"
);
}
);
width = 1059;
},
{
associatedMasterId = m01;
layerId = "195875D3-E2B7-4546-8E5F-F6E21022DCC2";
name = "Dec 21, 21, 20:31";
paths = (
{
closed = 1;
nodes = (
"596 0 LINE",
"596 660 LINE",
"424 660 LINE SMOOTH",
"221 660 OFFCURVE",
"70 522 OFFCURVE",
"70 326 CURVE SMOOTH",
"70 130 OFFCURVE",
"200 2 OFFCURVE",
"417 0 CURVE SMOOTH"
);
},
{
closed = 1;
nodes = (
"264 55 OFFCURVE",
"165 164 OFFCURVE",
"165 330 CURVE SMOOTH",
"165 499 OFFCURVE",
"264 605 OFFCURVE",
"425 605 CURVE SMOOTH",
"535 605 LINE",
"506 627 LINE",
"506 28 LINE",
"532 55 LINE",
"440 55 LINE SMOOTH"
);
},
{
closed = 1;
nodes = (
"915 660 LINE",
"563 660 LINE",
"563 605 LINE",
"837 605 LINE",
"899 488 LINE",
"915 488 LINE"
);
},
{
closed = 1;
nodes = (
"832 451 LINE",
"816 451 LINE",
"766 368 LINE",
"551 368 LINE",
"551 313 LINE",
"766 313 LINE",
"816 232 LINE",
"832 232 LINE"
);
},
{
closed = 1;
nodes = (
"943 182 LINE",
"927 182 LINE",
"865 55 LINE",
"571 55 LINE",
"571 0 LINE",
"943 0 LINE"
);
}
);
width = 1013;
},
{
associatedMasterId = m002;
layerId = "CC345EA7-AAE7-4226-B7EF-E0E71068DE0A";
name = "Dec 21, 21, 20:31";
paths = (
{
closed = 1;
nodes = (
"688 0 LINE",
"688 660 LINE",
"430 660 LINE SMOOTH",
"201 660 OFFCURVE",
"35 528 OFFCURVE",
"35 315 CURVE SMOOTH",
"35 119 OFFCURVE",
"176 0 OFFCURVE",
"423 0 CURVE"
);
},
{
closed = 1;
nodes = (
"307 55 OFFCURVE",
"231 166 OFFCURVE",
"231 341 CURVE SMOOTH",
"231 502 OFFCURVE",
"309 605 OFFCURVE",
"454 605 CURVE SMOOTH",
"541 605 LINE",
"498 633 LINE",
"498 28 LINE",
"569 55 LINE",
"463 55 LINE SMOOTH"
);
},
{
closed = 1;
nodes = (
"991 660 LINE",
"586 660 LINE",
"586 605 LINE",
"893 605 LINE",
"975 486 LINE",
"991 486 LINE"
);
},
{
closed = 1;
nodes = (
"908 456 LINE",
"892 456 LINE",
"832 368 LINE",
"594 368 LINE",
"594 313 LINE",
"832 313 LINE",
"892 227 LINE",
"908 227 LINE"
);
},
{
closed = 1;
nodes = (
"1019 219 LINE",
"1003 219 LINE",
"914 55 LINE",
"614 55 LINE",
"614 0 LINE",
"1019 0 LINE"
);
}
);
visible = 1;
width = 1059;
}
);
leftKerningGroup = kern_O2;
rightKerningGroup = kern_E1;
unicode = 0152;
},
{
color = 5;
glyphname = P;
layers = (
{
layerId = m01;
paths = (
{
closed = 1;
nodes = (
"305 0 LINE SMOOTH",
"312 0 OFFCURVE",
"315 3 OFFCURVE",
"315 10 CURVE SMOOTH",
"315 15 OFFCURVE",
"311 18 OFFCURVE",
"305 21 CURVE SMOOTH",
"255 46 LINE SMOOTH",
"241 53 OFFCURVE",
"235 61 OFFCURVE",
"235 76 CURVE SMOOTH",
"235 579 LINE SMOOTH",
"235 599 OFFCURVE",
"249 605 OFFCURVE",
"265 605 CURVE SMOOTH",
"406 605 OFFCURVE",
"489 586 OFFCURVE",
"489 473 CURVE SMOOTH",
"489 380 OFFCURVE",
"397 345 OFFCURVE",
"304 334 CURVE SMOOTH",
"287 332 OFFCURVE",
"279 324 OFFCURVE",
"279 312 CURVE SMOOTH",
"279 297 OFFCURVE",
"289 291 OFFCURVE",
"304 291 CURVE SMOOTH",
"462 291 OFFCURVE",
"586 365 OFFCURVE",
"586 481 CURVE SMOOTH",
"586 597 OFFCURVE",
"497 660 OFFCURVE",
"315 660 CURVE SMOOTH",
"75 660 LINE SMOOTH",
"68 660 OFFCURVE",
"65 657 OFFCURVE",
"65 650 CURVE SMOOTH",
"65 645 OFFCURVE",
"69 642 OFFCURVE",
"75 639 CURVE SMOOTH",
"125 614 LINE SMOOTH",
"141 606 OFFCURVE",
"145 600 OFFCURVE",
"145 585 CURVE SMOOTH",
"145 76 LINE SMOOTH",
"145 61 OFFCURVE",
"139 53 OFFCURVE",
"125 46 CURVE SMOOTH",
"75 21 LINE SMOOTH",
"69 18 OFFCURVE",
"65 15 OFFCURVE",
"65 10 CURVE SMOOTH",
"65 3 OFFCURVE",
"68 0 OFFCURVE",
"75 0 CURVE SMOOTH"
);
}
);
width = 638;
},
{
layerId = m002;
paths = (
{
closed = 1;
nodes = (
"409 0 LINE SMOOTH",
"416 0 OFFCURVE",
"419 3 OFFCURVE",
"419 10 CURVE SMOOTH",
"419 15 OFFCURVE",
"416 17 OFFCURVE",
"409 20 CURVE SMOOTH",
"327 51 LINE SMOOTH",
"313 56 OFFCURVE",
"309 61 OFFCURVE",
"309 76 CURVE SMOOTH",
"309 585 LINE SMOOTH",
"309 600 OFFCURVE",
"314 605 OFFCURVE",
"329 605 CURVE SMOOTH",
"410 605 OFFCURVE",
"503 586 OFFCURVE",
"503 473 CURVE SMOOTH",
"503 382 OFFCURVE",
"421 352 OFFCURVE",
"378 343 CURVE SMOOTH",
"365 340 OFFCURVE",
"352 333 OFFCURVE",
"352 319 CURVE SMOOTH",
"352 301 OFFCURVE",
"365 296 OFFCURVE",
"378 296 CURVE SMOOTH",
"535 296 OFFCURVE",
"693 341 OFFCURVE",
"693 481 CURVE SMOOTH",
"693 597 OFFCURVE",
"608 660 OFFCURVE",
"426 660 CURVE SMOOTH",
"49 660 LINE SMOOTH",
"42 660 OFFCURVE",
"39 657 OFFCURVE",
"39 650 CURVE SMOOTH",
"39 645 OFFCURVE",
"43 642 OFFCURVE",
"49 639 CURVE SMOOTH",
"99 614 LINE SMOOTH",
"115 606 OFFCURVE",
"119 600 OFFCURVE",
"119 585 CURVE SMOOTH",
"119 76 LINE SMOOTH",
"119 61 OFFCURVE",
"114 56 OFFCURVE",
"100 49 CURVE SMOOTH",
"40 21 LINE SMOOTH",
"34 18 OFFCURVE",
"30 15 OFFCURVE",
"30 10 CURVE SMOOTH",
"30 3 OFFCURVE",
"33 0 OFFCURVE",
"40 0 CURVE SMOOTH"
);
}
);
width = 713;
},
{
associatedMasterId = m01;
layerId = "2F618A1E-1857-4B21-9DD0-ED5A94491E69";
name = "Jan 12, 22, 19:27";
paths = (
{
closed = 1;
nodes = (
"325 0 LINE",
"325 16 LINE",
"235 56 LINE",
"235 605 LINE",
"313 605 LINE SMOOTH",
"426 605 OFFCURVE",
"489 566 OFFCURVE",
"489 473 CURVE SMOOTH",
"489 398 OFFCURVE",
"425 346 OFFCURVE",
"320 346 CURVE SMOOTH",
"210 346 LINE",
"210 291 LINE",
"301 291 LINE SMOOTH",
"464 291 OFFCURVE",
"586 372 OFFCURVE",
"586 481 CURVE SMOOTH",
"586 605 OFFCURVE",
"482 660 OFFCURVE",
"325 660 CURVE SMOOTH",
"65 660 LINE",
"65 644 LINE",
"145 604 LINE",
"145 56 LINE",
"65 16 LINE",
"65 0 LINE"
);
}
);
visible = 1;
width = 638;
},
{
associatedMasterId = m002;
layerId = "3A8B6004-ACD8-42B8-A2F6-C6D763EF7F14";
name = "Jan 12, 22, 19:27";
paths = (
{
closed = 1;
nodes = (
"419 0 LINE",
"419 16 LINE",
"309 58 LINE",
"309 605 LINE",
"327 605 LINE SMOOTH",
"440 605 OFFCURVE",
"503 566 OFFCURVE",
"503 473 CURVE SMOOTH",
"503 398 OFFCURVE",
"439 341 OFFCURVE",
"334 341 CURVE SMOOTH",
"284 341 LINE",
"284 296 LINE",
"408 296 LINE SMOOTH",
"571 296 OFFCURVE",
"693 368 OFFCURVE",
"693 483 CURVE SMOOTH",
"693 607 OFFCURVE",
"589 660 OFFCURVE",
"432 660 CURVE SMOOTH",
"30 660 LINE",
"30 644 LINE",
"119 602 LINE",
"119 58 LINE",
"30 16 LINE",
"30 0 LINE"
);
}
);
width = 713;
}
);
leftKerningGroup = kern_H2;
rightKerningGroup = kern_P1;
unicode = 0050;
},
{
color = 5;
glyphname = Thorn;
layers = (
{
layerId = m01;
paths = (
{
closed = 1;
nodes = (
"301 0 LINE SMOOTH",
"310 0 OFFCURVE",
"315 3 OFFCURVE",
"315 10 CURVE SMOOTH",
"315 24 OFFCURVE",
"235 43 OFFCURVE",
"235 76 CURVE SMOOTH",
"235 151 LINE SMOOTH",
"235 161 OFFCURVE",
"239 171 OFFCURVE",
"255 171 CURVE SMOOTH",
"305 171 LINE SMOOTH",
"463 171 OFFCURVE",
"586 242 OFFCURVE",
"586 366 CURVE SMOOTH",
"586 482 OFFCURVE",
"493 540 OFFCURVE",
"315 540 CURVE SMOOTH",
"255 540 LINE SMOOTH",
"239 540 OFFCURVE",
"235 544 OFFCURVE",
"235 560 CURVE SMOOTH",
"235 586 LINE SMOOTH",
"235 615 OFFCURVE",
"315 633 OFFCURVE",
"315 648 CURVE SMOOTH",
"315 656 OFFCURVE",
"312 660 OFFCURVE",
"305 660 CURVE SMOOTH",
"75 660 LINE SMOOTH",
"67 660 OFFCURVE",
"65 653 OFFCURVE",
"65 648 CURVE SMOOTH",
"65 633 OFFCURVE",
"145 615 OFFCURVE",
"145 586 CURVE SMOOTH",
"145 76 LINE SMOOTH",
"145 43 OFFCURVE",
"65 24 OFFCURVE",
"65 10 CURVE SMOOTH",
"65 3 OFFCURVE",
"69 0 OFFCURVE",
"79 0 CURVE SMOOTH"
);
},
{
closed = 1;
nodes = (
"255 226 LINE SMOOTH",
"240 226 OFFCURVE",
"235 232 OFFCURVE",
"235 246 CURVE SMOOTH",
"235 465 LINE SMOOTH",
"235 479 OFFCURVE",
"239 485 OFFCURVE",
"255 485 CURVE SMOOTH",
"328 485 LINE SMOOTH",
"432 485 OFFCURVE",
"489 437 OFFCURVE",
"489 356 CURVE SMOOTH",
"489 284 OFFCURVE",
"430 226 OFFCURVE",
"329 226 CURVE SMOOTH"
);
}
);
width = 638;
},
{
layerId = m002;
paths = (
{
closed = 1;
nodes = (
"375 0 LINE SMOOTH",
"384 0 OFFCURVE",
"389 3 OFFCURVE",
"389 10 CURVE SMOOTH",
"389 24 OFFCURVE",
"309 43 OFFCURVE",
"309 76 CURVE SMOOTH",
"309 142 LINE SMOOTH",
"309 152 OFFCURVE",
"313 162 OFFCURVE",
"329 162 CURVE SMOOTH",
"408 162 LINE SMOOTH",
"566 162 OFFCURVE",
"693 229 OFFCURVE",
"693 356 CURVE SMOOTH",
"693 474 OFFCURVE",
"589 526 OFFCURVE",
"429 526 CURVE SMOOTH",
"329 526 LINE SMOOTH",
"313 526 OFFCURVE",
"309 530 OFFCURVE",
"309 546 CURVE SMOOTH",
"309 586 LINE SMOOTH",
"309 615 OFFCURVE",
"398 633 OFFCURVE",
"398 648 CURVE SMOOTH",
"398 656 OFFCURVE",
"395 660 OFFCURVE",
"388 660 CURVE SMOOTH",
"40 660 LINE SMOOTH",
"32 660 OFFCURVE",
"30 653 OFFCURVE",
"30 648 CURVE SMOOTH",
"30 633 OFFCURVE",
"119 615 OFFCURVE",
"119 586 CURVE SMOOTH",
"119 76 LINE SMOOTH",
"119 43 OFFCURVE",
"30 24 OFFCURVE",
"30 10 CURVE SMOOTH",
"30 3 OFFCURVE",
"34 0 OFFCURVE",
"44 0 CURVE SMOOTH"
);
},
{
closed = 1;
nodes = (
"329 207 LINE SMOOTH",
"314 207 OFFCURVE",
"309 213 OFFCURVE",
"309 227 CURVE SMOOTH",
"309 451 LINE SMOOTH",
"309 465 OFFCURVE",
"313 471 OFFCURVE",
"329 471 CURVE SMOOTH",
"368 471 LINE SMOOTH",
"422 471 OFFCURVE",
"503 437 OFFCURVE",
"503 356 CURVE SMOOTH",
"503 244 OFFCURVE",
"408 207 OFFCURVE",
"357 207 CURVE SMOOTH"
);
}
);
width = 713;
},
{
associatedMasterId = m01;
layerId = "D56D1DC1-4397-4FC0-835D-CE158CB33BE8";
name = "Dec 21, 21, 21:17";
paths = (
{
closed = 1;
nodes = (
"315 0 LINE",
"315 16 LINE",
"235 56 LINE",
"235 604 LINE",
"315 644 LINE",
"315 660 LINE",
"65 660 LINE",
"65 644 LINE",
"145 604 LINE",
"145 56 LINE",
"65 16 LINE",
"65 0 LINE"
);
},
{
closed = 1;
nodes = (
"464 171 OFFCURVE",
"586 252 OFFCURVE",
"586 361 CURVE SMOOTH",
"586 485 OFFCURVE",
"482 540 OFFCURVE",
"325 540 CURVE SMOOTH",
"218 540 LINE",
"218 485 LINE",
"313 485 LINE SMOOTH",
"426 485 OFFCURVE",
"489 446 OFFCURVE",
"489 353 CURVE SMOOTH",
"489 278 OFFCURVE",
"425 226 OFFCURVE",
"320 226 CURVE SMOOTH",
"210 226 LINE",
"210 171 LINE",
"301 171 LINE SMOOTH"
);
}
);
width = 638;
},
{
associatedMasterId = m002;
layerId = "CC4BA9B4-BCBC-4096-B7A7-41E5BF003C68";
name = "Dec 21, 21, 21:17";
paths = (
{
closed = 1;
nodes = (
"398 0 LINE",
"398 16 LINE",
"309 58 LINE",
"309 602 LINE",
"398 644 LINE",
"398 660 LINE",
"30 660 LINE",
"30 644 LINE",
"119 602 LINE",
"119 58 LINE",
"30 16 LINE",
"30 0 LINE"
);
},
{
closed = 1;
nodes = (
"571 162 OFFCURVE",
"693 234 OFFCURVE",
"693 349 CURVE SMOOTH",
"693 473 OFFCURVE",
"589 526 OFFCURVE",
"432 526 CURVE SMOOTH",
"284 526 LINE",
"284 471 LINE",
"327 471 LINE SMOOTH",
"440 471 OFFCURVE",
"503 432 OFFCURVE",
"503 339 CURVE SMOOTH",
"503 264 OFFCURVE",
"439 207 OFFCURVE",
"334 207 CURVE SMOOTH",
"284 207 LINE",
"284 162 LINE",
"408 162 LINE SMOOTH"
);
}
);
width = 713;
}
);
leftKerningGroup = kern_H2;
rightKerningGroup = kern_Thorn1;
unicode = 00DE;
},
{
color = 5;
glyphname = Q;
layers = (
{
layerId = m01;
paths = (
{
closed = 1;
nodes = (
"281 40 OFFCURVE",
"167 168 OFFCURVE",
"167 363 CURVE SMOOTH",
"167 521 OFFCURVE",
"258 621 OFFCURVE",
"386 621 CURVE SMOOTH",
"528 621 OFFCURVE",
"640 494 OFFCURVE",
"640 299 CURVE SMOOTH",
"640 141 OFFCURVE",
"552 40 OFFCURVE",
"424 40 CURVE SMOOTH"
);
},
{
closed = 1;
nodes = (
"797 -192 OFFCURVE",
"853 -134 OFFCURVE",
"853 -114 CURVE SMOOTH",
"853 -108 OFFCURVE",
"848 -104 OFFCURVE",
"843 -104 CURVE SMOOTH",
"833 -104 OFFCURVE",
"811 -115 OFFCURVE",
"767 -115 CURVE SMOOTH",
"695 -115 OFFCURVE",
"624 -90 OFFCURVE",
"534 -25 CURVE SMOOTH",
"519 -14 OFFCURVE",
"514 -6 OFFCURVE",
"514 0 CURVE SMOOTH",
"514 7 OFFCURVE",
"520 9 OFFCURVE",
"530 13 CURVE SMOOTH",
"655 61 OFFCURVE",
"737 181 OFFCURVE",
"737 330 CURVE SMOOTH",
"737 526 OFFCURVE",
"595 670 OFFCURVE",
"403 670 CURVE SMOOTH",
"212 670 OFFCURVE",
"70 526 OFFCURVE",
"70 330 CURVE SMOOTH",
"70 143 OFFCURVE",
"204 14 OFFCURVE",
"355 -6 CURVE SMOOTH",
"515 -27 OFFCURVE",
"512 -192 OFFCURVE",
"712 -192 CURVE SMOOTH"
);
}
);
width = 807;
},
{
layerId = m002;
paths = (
{
closed = 1;
nodes = (
"283 43 OFFCURVE",
"236 208 OFFCURVE",
"236 363 CURVE SMOOTH",
"236 521 OFFCURVE",
"292 618 OFFCURVE",
"386 618 CURVE SMOOTH",
"468 618 OFFCURVE",
"541 494 OFFCURVE",
"541 299 CURVE SMOOTH",
"541 141 OFFCURVE",
"480 43 OFFCURVE",
"409 43 CURVE SMOOTH"
);
},
{
closed = 1;
nodes = (
"767 -192 OFFCURVE",
"853 -142 OFFCURVE",
"853 -121 CURVE SMOOTH",
"853 -111 OFFCURVE",
"848 -104 OFFCURVE",
"837 -104 CURVE SMOOTH",
"827 -104 OFFCURVE",
"801 -115 OFFCURVE",
"767 -115 CURVE SMOOTH",
"705 -115 OFFCURVE",
"648 -99 OFFCURVE",
"543 -15 CURVE SMOOTH",
"528 -3 OFFCURVE",
"523 4 OFFCURVE",
"523 10 CURVE SMOOTH",
"523 17 OFFCURVE",
"529 19 OFFCURVE",
"539 23 CURVE SMOOTH",
"664 71 OFFCURVE",
"742 181 OFFCURVE",
"742 330 CURVE SMOOTH",
"742 526 OFFCURVE",
"595 670 OFFCURVE",
"403 670 CURVE SMOOTH",
"182 670 OFFCURVE",
"34 526 OFFCURVE",
"34 330 CURVE SMOOTH",
"34 116 OFFCURVE",
"209 4 OFFCURVE",
"332 -6 CURVE SMOOTH",
"481 -18 OFFCURVE",
"482 -192 OFFCURVE",
"712 -192 CURVE SMOOTH"
);
}
);
width = 777;
}
);
leftKerningGroup = kern_O2;
rightKerningGroup = kern_O1;
unicode = 0051;
},
{
color = 5;
glyphname = R;
layers = (
{
anchors = (
{
name = bottom;
position = "{367, 0}";
},
{
name = top;
position = "{317, 710}";
}
);
layerId = m01;
paths = (
{
closed = 1;
nodes = (
"300 0 LINE SMOOTH",
"307 0 OFFCURVE",
"310 3 OFFCURVE",
"310 10 CURVE SMOOTH",
"310 15 OFFCURVE",
"305 19 OFFCURVE",
"299 22 CURVE SMOOTH",
"255 46 LINE SMOOTH",
"242 53 OFFCURVE",
"235 61 OFFCURVE",
"235 76 CURVE SMOOTH",
"235 283 LINE SMOOTH",
"235 298 OFFCURVE",
"240 303 OFFCURVE",
"255 303 CURVE SMOOTH",
"311 303 LINE SMOOTH",
"323 303 OFFCURVE",
"329 301 OFFCURVE",
"335 292 CURVE SMOOTH",
"509 20 LINE SMOOTH",
"519 5 OFFCURVE",
"526 0 OFFCURVE",
"542 0 CURVE SMOOTH",
"656 0 LINE SMOOTH",
"663 0 OFFCURVE",
"666 4 OFFCURVE",
"666 10 CURVE SMOOTH",
"666 13 OFFCURVE",
"663 17 OFFCURVE",
"656 21 CURVE SMOOTH",
"615 44 LINE SMOOTH",
"605 49 OFFCURVE",
"600 52 OFFCURVE",
"587 71 CURVE SMOOTH",
"425 308 LINE SMOOTH",
"419 317 OFFCURVE",
"417 321 OFFCURVE",
"417 326 CURVE SMOOTH",
"417 331 OFFCURVE",
"425 334 OFFCURVE",
"429 336 CURVE SMOOTH",
"461 351 OFFCURVE",
"549 399 OFFCURVE",
"549 498 CURVE SMOOTH",
"549 582 OFFCURVE",
"482 660 OFFCURVE",
"325 660 CURVE SMOOTH",
"75 660 LINE SMOOTH",
"68 660 OFFCURVE",
"65 657 OFFCURVE",
"65 650 CURVE SMOOTH",
"65 645 OFFCURVE",
"69 642 OFFCURVE",
"75 639 CURVE SMOOTH",
"125 614 LINE SMOOTH",
"141 606 OFFCURVE",
"145 600 OFFCURVE",
"145 585 CURVE SMOOTH",
"145 76 LINE SMOOTH",
"145 61 OFFCURVE",
"139 53 OFFCURVE",
"125 46 CURVE SMOOTH",
"75 21 LINE SMOOTH",
"69 18 OFFCURVE",
"65 15 OFFCURVE",
"65 10 CURVE SMOOTH",
"65 3 OFFCURVE",
"68 0 OFFCURVE",
"75 0 CURVE SMOOTH"
);
},
{
closed = 1;
nodes = (
"240 358 OFFCURVE",
"235 363 OFFCURVE",
"235 378 CURVE SMOOTH",
"235 585 LINE SMOOTH",
"235 600 OFFCURVE",
"240 605 OFFCURVE",
"255 605 CURVE SMOOTH",
"288 605 LINE SMOOTH",
"408 605 OFFCURVE",
"452 552 OFFCURVE",
"452 483 CURVE SMOOTH",
"452 399 OFFCURVE",
"372 358 OFFCURVE",
"311 358 CURVE SMOOTH",
"255 358 LINE SMOOTH"
);
}
);
width = 661;
},
{
anchors = (
{
name = bottom;
position = "{428, 0}";
},
{
name = top;
position = "{357, 710}";
}
);
layerId = m002;
paths = (
{
closed = 1;
nodes = (
"374 0 LINE SMOOTH",
"381 0 OFFCURVE",
"384 3 OFFCURVE",
"384 10 CURVE SMOOTH",
"384 15 OFFCURVE",
"380 19 OFFCURVE",
"374 22 CURVE SMOOTH",
"328 48 LINE SMOOTH",
"315 55 OFFCURVE",
"309 61 OFFCURVE",
"309 76 CURVE SMOOTH",
"309 288 LINE SMOOTH",
"309 305 OFFCURVE",
"317 308 OFFCURVE",
"324 308 CURVE SMOOTH",
"327 308 LINE SMOOTH",
"336 308 OFFCURVE",
"342 301 OFFCURVE",
"349 288 CURVE SMOOTH",
"504 21 LINE SMOOTH",
"512 7 OFFCURVE",
"520 0 OFFCURVE",
"536 0 CURVE SMOOTH",
"770 0 LINE SMOOTH",
"778 0 OFFCURVE",
"780 3 OFFCURVE",
"780 10 CURVE SMOOTH",
"780 14 OFFCURVE",
"778 17 OFFCURVE",
"771 21 CURVE SMOOTH",
"729 44 LINE SMOOTH",
"719 49 OFFCURVE",
"713 52 OFFCURVE",
"701 71 CURVE SMOOTH",
"535 324 LINE SMOOTH",
"529 333 OFFCURVE",
"527 337 OFFCURVE",
"527 342 CURVE SMOOTH",
"527 347 OFFCURVE",
"532 350 OFFCURVE",
"539 353 CURVE SMOOTH",
"579 370 OFFCURVE",
"653 408 OFFCURVE",
"653 498 CURVE SMOOTH",
"653 582 OFFCURVE",
"591 660 OFFCURVE",
"414 660 CURVE SMOOTH",
"40 660 LINE SMOOTH",
"33 660 OFFCURVE",
"30 657 OFFCURVE",
"30 650 CURVE SMOOTH",
"30 645 OFFCURVE",
"34 642 OFFCURVE",
"40 639 CURVE SMOOTH",
"100 611 LINE SMOOTH",
"117 603 OFFCURVE",
"119 600 OFFCURVE",
"119 585 CURVE SMOOTH",
"119 76 LINE SMOOTH",
"119 61 OFFCURVE",
"114 56 OFFCURVE",
"100 49 CURVE SMOOTH",
"40 21 LINE SMOOTH",
"34 18 OFFCURVE",
"30 15 OFFCURVE",
"30 10 CURVE SMOOTH",
"30 3 OFFCURVE",
"33 0 OFFCURVE",
"40 0 CURVE SMOOTH"
);
},
{
closed = 1;
nodes = (
"314 353 OFFCURVE",
"309 358 OFFCURVE",
"309 373 CURVE SMOOTH",
"309 585 LINE SMOOTH",
"309 600 OFFCURVE",
"314 605 OFFCURVE",
"329 605 CURVE SMOOTH",
"344 605 LINE SMOOTH",
"423 605 OFFCURVE",
"466 552 OFFCURVE",
"466 483 CURVE SMOOTH",
"466 399 OFFCURVE",
"414 353 OFFCURVE",
"344 353 CURVE SMOOTH",
"329 353 LINE SMOOTH"
);
}
);
width = 770;
},
{
anchors = (
{
name = bottom;
position = "{367, 0}";
},
{
name = top;
position = "{317, 710}";
}
);
associatedMasterId = m01;
layerId = "E97F9A99-FD1C-4EA4-9D25-E3F7789D80BE";
name = "Jan 12, 22, 23:01";
paths = (
{
closed = 1;
nodes = (
"310 0 LINE",
"310 16 LINE",
"235 57 LINE",
"235 660 LINE",
"65 660 LINE",
"65 644 LINE",
"145 604 LINE",
"145 56 LINE",
"65 16 LINE",
"65 0 LINE"
);
},
{
closed = 1;
nodes = (
"549 598 OFFCURVE",
"463 660 OFFCURVE",
"323 660 CURVE SMOOTH",
"182 660 LINE",
"182 605 LINE",
"300 605 LINE SMOOTH",
"394 605 OFFCURVE",
"452 559 OFFCURVE",
"452 484 CURVE SMOOTH",
"452 411 OFFCURVE",
"390 358 OFFCURVE",
"306 358 CURVE SMOOTH",
"190 358 LINE",
"190 303 LINE",
"333 303 LINE",
"333 312 LINE",
"457 324 OFFCURVE",
"549 401 OFFCURVE",
"549 497 CURVE SMOOTH"
);
},
{
closed = 1;
nodes = (
"666 0 LINE",
"666 16 LINE",
"600 52 LINE",
"402 341 LINE",
"304 341 LINE",
"522 0 LINE"
);
}
);
width = 661;
},
{
anchors = (
{
name = bottom;
position = "{428, 0}";
},
{
name = top;
position = "{357, 710}";
}
);
associatedMasterId = m002;
layerId = "E74C8C9D-292A-4141-8682-630123C60FB2";
name = "Jan 12, 22, 23:04";
paths = (
{
closed = 1;
nodes = (
"384 0 LINE",
"384 16 LINE",
"309 59 LINE",
"309 660 LINE",
"30 660 LINE",
"30 644 LINE",
"119 602 LINE",
"119 58 LINE",
"30 16 LINE",
"30 0 LINE"
);
},
{
closed = 1;
nodes = (
"653 598 OFFCURVE",
"567 660 OFFCURVE",
"427 660 CURVE SMOOTH",
"256 660 LINE",
"256 605 LINE",
"333 605 LINE SMOOTH",
"423 605 OFFCURVE",
"466 560.466 OFFCURVE",
"466 479 CURVE SMOOTH",
"466 402.983 OFFCURVE",
"419 353 OFFCURVE",
"339 353 CURVE SMOOTH",
"264 353 LINE",
"264 308 LINE",
"398 308 LINE",
"414 319 LINE",
"551 342 OFFCURVE",
"653 394 OFFCURVE",
"653 497 CURVE SMOOTH"
);
},
{
closed = 1;
nodes = (
"780 0 LINE",
"780 16 LINE",
"704 59 LINE",
"512 361 LINE",
"321 336 LINE",
"516 0 LINE"
);
}
);
visible = 1;
width = 770;
}
);
leftKerningGroup = kern_H2;
rightKerningGroup = kern_R1;
unicode = 0052;
},
{
color = 5;
glyphname = S;
layers = (
{
anchors = (
{
name = bottom;
position = "{272, 0}";
},
{
name = top;
position = "{272, 710}";
}
);
layerId = m01;
paths = (
{
closed = 1;
nodes = (
"356 -10 OFFCURVE",
"476 55 OFFCURVE",
"476 180 CURVE SMOOTH",
"476 282 OFFCURVE",
"420 319 OFFCURVE",
"299 378 CURVE SMOOTH",
"211 421 OFFCURVE",
"171 450 OFFCURVE",
"171 518 CURVE SMOOTH",
"171 577 OFFCURVE",
"212 622 OFFCURVE",
"274 622 CURVE SMOOTH",
"333 622 OFFCURVE",
"380 585 OFFCURVE",
"392 557 CURVE SMOOTH",
"427 477 LINE SMOOTH",
"429 472 OFFCURVE",
"432 468 OFFCURVE",
"438 468 CURVE SMOOTH",
"443 468 OFFCURVE",
"446 472 OFFCURVE",
"446 483 CURVE SMOOTH",
"446 604 LINE SMOOTH",
"446 618 OFFCURVE",
"440 626 OFFCURVE",
"418 637 CURVE SMOOTH",
"385 653 OFFCURVE",
"337 670 OFFCURVE",
"280 670 CURVE SMOOTH",
"179 670 OFFCURVE",
"81 577 OFFCURVE",
"81 487 CURVE SMOOTH",
"81 395 OFFCURVE",
"134 357 OFFCURVE",
"228 310 CURVE SMOOTH",
"328 260 OFFCURVE",
"390 239 OFFCURVE",
"390 152 CURVE SMOOTH",
"390 81 OFFCURVE",
"343 37 OFFCURVE",
"264 37 CURVE SMOOTH",
"212 37 OFFCURVE",
"137 67 OFFCURVE",
"116 113 CURVE SMOOTH",
"82 187 LINE SMOOTH",
"79 194 OFFCURVE",
"76 200 OFFCURVE",
"70 200 CURVE SMOOTH",
"64 200 OFFCURVE",
"61 197 OFFCURVE",
"61 187 CURVE SMOOTH",
"61 56 LINE SMOOTH",
"61 41 OFFCURVE",
"70 36 OFFCURVE",
"82 30 CURVE SMOOTH",
"138 2 OFFCURVE",
"197 -10 OFFCURVE",
"264 -10 CURVE SMOOTH"
);
}
);
width = 531;
},
{
anchors = (
{
name = bottom;
position = "{297, 0}";
},
{
name = top;
position = "{318, 710}";
}
);
layerId = m002;
paths = (
{
closed = 1;
nodes = (
"396 -10 OFFCURVE",
"556 54 OFFCURVE",
"556 199 CURVE SMOOTH",
"556 289 OFFCURVE",
"516 346 OFFCURVE",
"353 418 CURVE SMOOTH",
"297 443 OFFCURVE",
"245 466 OFFCURVE",
"245 534 CURVE SMOOTH",
"245 593 OFFCURVE",
"293 615 OFFCURVE",
"342 615 CURVE SMOOTH",
"367 615 OFFCURVE",
"423 601 OFFCURVE",
"454 550 CURVE SMOOTH",
"501 472 LINE SMOOTH",
"504 468 OFFCURVE",
"508 462 OFFCURVE",
"515 462 CURVE SMOOTH",
"521 462 OFFCURVE",
"525 466 OFFCURVE",
"525 476 CURVE SMOOTH",
"525 602 LINE SMOOTH",
"525 618 OFFCURVE",
"516 628 OFFCURVE",
"496 636 CURVE SMOOTH",
"446 657 OFFCURVE",
"384 670 OFFCURVE",
"340 670 CURVE SMOOTH",
"159 670 OFFCURVE",
"61 547 OFFCURVE",
"61 457 CURVE SMOOTH",
"61 365 OFFCURVE",
"113 312 OFFCURVE",
"228 262 CURVE SMOOTH",
"330 218 OFFCURVE",
"375 199 OFFCURVE",
"375 142 CURVE SMOOTH",
"375 71 OFFCURVE",
"323 44 OFFCURVE",
"264 44 CURVE SMOOTH",
"188 44 OFFCURVE",
"144 81 OFFCURVE",
"126 113 CURVE SMOOTH",
"75 204 LINE SMOOTH",
"70 212 OFFCURVE",
"67 217 OFFCURVE",
"61 217 CURVE SMOOTH",
"55 217 OFFCURVE",
"49 212 OFFCURVE",
"49 204 CURVE SMOOTH",
"49 67 LINE SMOOTH",
"49 47 OFFCURVE",
"59 38 OFFCURVE",
"77 30 CURVE SMOOTH",
"111 14 OFFCURVE",
"195 -10 OFFCURVE",
"264 -10 CURVE SMOOTH"
);
}
);
width = 599;
},
{
anchors = (
{
name = bottom;
position = "{272, 0}";
},
{
name = top;
position = "{272, 710}";
}
);
associatedMasterId = m01;
layerId = "22478298-CD4D-40E8-8E0C-19024BB93B67";
name = "Jan 12, 22, 23:56";
paths = (
{
closed = 1;
nodes = (
"356 -10 OFFCURVE",
"476 55 OFFCURVE",
"476 180 CURVE SMOOTH",
"476 282 OFFCURVE",
"420 319 OFFCURVE",
"299 378 CURVE SMOOTH",
"211 421 OFFCURVE",
"171 450 OFFCURVE",
"171 518 CURVE SMOOTH",
"171 577 OFFCURVE",
"213 622 OFFCURVE",
"272 622 CURVE SMOOTH",
"320 622 OFFCURVE",
"351 606 OFFCURVE",
"402 566 CURVE",
"384 593 LINE",
"439 468 LINE",
"455 468 LINE",
"445 628 LINE",
"391 655 OFFCURVE",
"342 670 OFFCURVE",
"280 670 CURVE SMOOTH",
"179 670 OFFCURVE",
"81 577 OFFCURVE",
"81 487 CURVE SMOOTH",
"81 395 OFFCURVE",
"134 357 OFFCURVE",
"228 310 CURVE SMOOTH",
"328 260 OFFCURVE",
"390 239 OFFCURVE",
"390 152 CURVE SMOOTH",
"390 81 OFFCURVE",
"343 37 OFFCURVE",
"264 37 CURVE SMOOTH",
"215 37 OFFCURVE",
"168 56 OFFCURVE",
"115 102 CURVE",
"142 56 LINE",
"76 200 LINE",
"60 200 LINE",
"70 36 LINE",
"132 5 OFFCURVE",
"182 -10 OFFCURVE",
"264 -10 CURVE SMOOTH"
);
}
);
width = 531;
},
{
anchors = (
{
name = bottom;
position = "{297, 0}";
},
{
name = top;
position = "{318, 710}";
}
);
associatedMasterId = m002;
layerId = "BF0CD365-D798-4350-B9E2-603EE4864644";
name = "Jan 13, 22, 00:28";
paths = (
{
closed = 1;
nodes = (
"425 -10 OFFCURVE",
"555 71 OFFCURVE",
"555 203 CURVE SMOOTH",
"555 295.82 OFFCURVE",
"499.631 354.161 OFFCURVE",
"378 407 CURVE SMOOTH",
"275.419 452.256 OFFCURVE",
"244 479.581 OFFCURVE",
"244 527 CURVE SMOOTH",
"244 581.871 OFFCURVE",
"282 615 OFFCURVE",
"334 615 CURVE SMOOTH",
"381 615 OFFCURVE",
"414 596 OFFCURVE",
"451 564 CURVE",
"410 611 LINE",
"516 462 LINE",
"534 462 LINE",
"524 622 LINE",
"471.381 652.207 OFFCURVE",
"398 670 OFFCURVE",
"326 670 CURVE SMOOTH",
"195 670 OFFCURVE",
"60 576 OFFCURVE",
"60 455 CURVE SMOOTH",
"60 372.753 OFFCURVE",
"112.219 310.91 OFFCURVE",
"207 272 CURVE SMOOTH",
"348.478 212.8 OFFCURVE",
"375 191.943 OFFCURVE",
"375 136 CURVE SMOOTH",
"375 71.91 OFFCURVE",
"323 44 OFFCURVE",
"255 44 CURVE SMOOTH",
"207 44 OFFCURVE",
"159 66 OFFCURVE",
"132 93 CURVE",
"158 62 LINE",
"58 217 LINE",
"39 217 LINE",
"49 44 LINE",
"113 11 OFFCURVE",
"184 -10 OFFCURVE",
"276 -10 CURVE SMOOTH"
);
}
);
visible = 1;
width = 599;
}
);
leftKerningGroup = kern_S3;
rightKerningGroup = kern_S3;
unicode = 0053;
},
{
color = 5;
glyphname = T;
layers = (
{
anchors = (
{
name = bottom;
position = "{337, 0}";
},
{
name = top;
position = "{337, 710}";
}
);
layerId = m01;
paths = (
{
closed = 1;
nodes = (
"472 0 LINE SMOOTH",
"479 0 OFFCURVE",
"482 3 OFFCURVE",
"482 10 CURVE SMOOTH",
"482 15 OFFCURVE",
"478 18 OFFCURVE",
"472 20 CURVE SMOOTH",
"402 48 LINE SMOOTH",
"388 54 OFFCURVE",
"382 61 OFFCURVE",
"382 76 CURVE SMOOTH",
"382 585 LINE SMOOTH",
"382 600 OFFCURVE",
"387 605 OFFCURVE",
"402 605 CURVE SMOOTH",
"527 605 LINE SMOOTH",
"541 605 OFFCURVE",
"546 601 OFFCURVE",
"551 592 CURVE SMOOTH",
"609 497 LINE SMOOTH",
"613 490 OFFCURVE",
"616 488 OFFCURVE",
"621 488 CURVE SMOOTH",
"626 488 OFFCURVE",
"629 491 OFFCURVE",
"629 497 CURVE SMOOTH",
"629 640 LINE SMOOTH",
"629 657 OFFCURVE",
"626 660 OFFCURVE",
"609 660 CURVE SMOOTH",
"65 660 LINE SMOOTH",
"48 660 OFFCURVE",
"45 657 OFFCURVE",
"45 640 CURVE SMOOTH",
"45 497 LINE SMOOTH",
"45 491 OFFCURVE",
"48 488 OFFCURVE",
"53 488 CURVE SMOOTH",
"58 488 OFFCURVE",
"61 490 OFFCURVE",
"65 497 CURVE SMOOTH",
"123 592 LINE SMOOTH",
"128 601 OFFCURVE",
"133 605 OFFCURVE",
"147 605 CURVE SMOOTH",
"271 605 LINE SMOOTH",
"287 605 OFFCURVE",
"292 600 OFFCURVE",
"292 585 CURVE SMOOTH",
"292 76 LINE SMOOTH",
"292 61 OFFCURVE",
"286 52 OFFCURVE",
"272 47 CURVE SMOOTH",
"202 20 LINE SMOOTH",
"196 18 OFFCURVE",
"192 14 OFFCURVE",
"192 9 CURVE SMOOTH",
"192 2 OFFCURVE",
"195 0 OFFCURVE",
"202 0 CURVE SMOOTH"
);
}
);
width = 674;
},
{
anchors = (
{
name = bottom;
position = "{359, 0}";
},
{
name = top;
position = "{359, 710}";
}
);
layerId = m002;
paths = (
{
closed = 1;
nodes = (
"554 0 LINE SMOOTH",
"561 0 OFFCURVE",
"564 3 OFFCURVE",
"564 10 CURVE SMOOTH",
"564 15 OFFCURVE",
"560 18 OFFCURVE",
"554 20 CURVE SMOOTH",
"475 50 LINE SMOOTH",
"461 55 OFFCURVE",
"454 61 OFFCURVE",
"454 76 CURVE SMOOTH",
"454 585 LINE SMOOTH",
"454 600 OFFCURVE",
"459 605 OFFCURVE",
"474 605 CURVE SMOOTH",
"566 605 LINE SMOOTH",
"580 605 OFFCURVE",
"584 601 OFFCURVE",
"590 592 CURVE SMOOTH",
"668 477 LINE SMOOTH",
"673 470 OFFCURVE",
"675 468 OFFCURVE",
"680 468 CURVE SMOOTH",
"685 468 OFFCURVE",
"688 471 OFFCURVE",
"688 477 CURVE SMOOTH",
"688 640 LINE SMOOTH",
"688 657 OFFCURVE",
"685 660 OFFCURVE",
"668 660 CURVE SMOOTH",
"50 660 LINE SMOOTH",
"33 660 OFFCURVE",
"30 657 OFFCURVE",
"30 640 CURVE SMOOTH",
"30 477 LINE SMOOTH",
"30 471 OFFCURVE",
"33 468 OFFCURVE",
"38 468 CURVE SMOOTH",
"43 468 OFFCURVE",
"45 470 OFFCURVE",
"50 477 CURVE SMOOTH",
"128 592 LINE SMOOTH",
"134 601 OFFCURVE",
"138 605 OFFCURVE",
"152 605 CURVE SMOOTH",
"243 605 LINE SMOOTH",
"259 605 OFFCURVE",
"264 600 OFFCURVE",
"264 585 CURVE SMOOTH",
"264 76 LINE SMOOTH",
"264 61 OFFCURVE",
"259 56 OFFCURVE",
"245 51 CURVE SMOOTH",
"164 20 LINE SMOOTH",
"158 18 OFFCURVE",
"154 14 OFFCURVE",
"154 9 CURVE SMOOTH",
"154 2 OFFCURVE",
"157 0 OFFCURVE",
"164 0 CURVE SMOOTH"
);
}
);
width = 718;
},
{
anchors = (
{
name = bottom;
position = "{337, 0}";
},
{
name = top;
position = "{337, 710}";
}
);
associatedMasterId = m01;
layerId = "25E21B2D-786C-4824-9C59-BC6BD9225BFF";
name = "Jan 13, 22, 03:42";
paths = (
{
closed = 1;
nodes = (
"482 0 LINE",
"482 16 LINE",
"382 56 LINE",
"382 605 LINE",
"545 605 LINE",
"613 458 LINE",
"629 458 LINE",
"629 660 LINE",
"45 660 LINE",
"45 458 LINE",
"61 458 LINE",
"129 605 LINE",
"292 605 LINE",
"292 56 LINE",
"192 16 LINE",
"192 0 LINE"
);
}
);
width = 674;
},
{
anchors = (
{
name = bottom;
position = "{359, 0}";
},
{
name = top;
position = "{359, 710}";
}
);
associatedMasterId = m002;
layerId = "1641C6D3-DFEC-448A-91A2-AE9DDB174972";
name = "Jan 13, 22, 03:50";
paths = (
{
closed = 1;
nodes = (
"564 0 LINE",
"564 16 LINE",
"454 58 LINE",
"454 605 LINE",
"584 605 LINE",
"672 429 LINE",
"688 429 LINE",
"688 660 LINE",
"30 660 LINE",
"30 429 LINE",
"46 429 LINE",
"134 605 LINE",
"264 605 LINE",
"264 58 LINE",
"154 16 LINE",
"154 0 LINE"
);
}
);
visible = 1;
width = 718;
}
);
leftKerningGroup = kern_T2;
rightKerningGroup = kern_T1;
unicode = 0054;
},
{
color = 5;
glyphname = U;
layers = (
{
anchors = (
{
name = bottom;
position = "{402, 0}";
},
{
name = right;
position = "{431, 0}";
},
{
name = top;
position = "{415, 710}";
}
);
layerId = m01;
paths = (
{
closed = 1;
nodes = (
"554 -10 OFFCURVE",
"665 70 OFFCURVE",
"665 256 CURVE SMOOTH",
"665 585 LINE SMOOTH",
"665 600 OFFCURVE",
"668 607 OFFCURVE",
"685 615 CURVE SMOOTH",
"734 639 LINE SMOOTH",
"740 642 OFFCURVE",
"744 645 OFFCURVE",
"744 650 CURVE SMOOTH",
"744 657 OFFCURVE",
"741 660 OFFCURVE",
"734 660 CURVE SMOOTH",
"505 660 LINE SMOOTH",
"498 660 OFFCURVE",
"495 657 OFFCURVE",
"495 650 CURVE SMOOTH",
"495 645 OFFCURVE",
"499 642 OFFCURVE",
"505 640 CURVE SMOOTH",
"574 614 LINE SMOOTH",
"591 608 OFFCURVE",
"595 600 OFFCURVE",
"595 585 CURVE SMOOTH",
"595 229 LINE SMOOTH",
"595 105 OFFCURVE",
"517 51 OFFCURVE",
"431 51 CURVE SMOOTH",
"321 51 OFFCURVE",
"235 105 OFFCURVE",
"235 271 CURVE SMOOTH",
"235 585 LINE SMOOTH",
"235 600 OFFCURVE",
"239 606 OFFCURVE",
"255 614 CURVE SMOOTH",
"305 639 LINE SMOOTH",
"311 642 OFFCURVE",
"315 645 OFFCURVE",
"315 650 CURVE SMOOTH",
"315 657 OFFCURVE",
"312 660 OFFCURVE",
"305 660 CURVE SMOOTH",
"75 660 LINE SMOOTH",
"68 660 OFFCURVE",
"65 657 OFFCURVE",
"65 650 CURVE SMOOTH",
"65 645 OFFCURVE",
"69 642 OFFCURVE",
"75 639 CURVE SMOOTH",
"125 614 LINE SMOOTH",
"141 606 OFFCURVE",
"145 600 OFFCURVE",
"145 585 CURVE SMOOTH",
"145 256 LINE SMOOTH",
"145 69 OFFCURVE",
"256 -10 OFFCURVE",
"405 -10 CURVE SMOOTH"
);
}
);
width = 809;
},
{
anchors = (
{
name = bottom;
position = "{468, 0}";
},
{
name = right;
position = "{479, 0}";
},
{
name = top;
position = "{483, 710}";
}
);
layerId = m002;
paths = (
{
closed = 1;
nodes = (
"634 -10 OFFCURVE",
"736 90 OFFCURVE",
"736 276 CURVE SMOOTH",
"736 585 LINE SMOOTH",
"736 600 OFFCURVE",
"740 605 OFFCURVE",
"756 612 CURVE SMOOTH",
"816 639 LINE SMOOTH",
"822 642 OFFCURVE",
"826 645 OFFCURVE",
"826 650 CURVE SMOOTH",
"826 657 OFFCURVE",
"823 660 OFFCURVE",
"816 660 CURVE SMOOTH",
"586 660 LINE SMOOTH",
"579 660 OFFCURVE",
"576 657 OFFCURVE",
"576 650 CURVE SMOOTH",
"576 645 OFFCURVE",
"580 642 OFFCURVE",
"586 639 CURVE SMOOTH",
"646 613 LINE SMOOTH",
"663 606 OFFCURVE",
"666 600 OFFCURVE",
"666 585 CURVE SMOOTH",
"666 246 LINE SMOOTH",
"666 125 OFFCURVE",
"581 76 OFFCURVE",
"505 76 CURVE SMOOTH",
"395 76 OFFCURVE",
"312 125 OFFCURVE",
"311 291 CURVE SMOOTH",
"310 585 LINE SMOOTH",
"310 596 OFFCURVE",
"314 604 OFFCURVE",
"327 610 CURVE SMOOTH",
"390 639 LINE SMOOTH",
"396 642 OFFCURVE",
"400 645 OFFCURVE",
"400 650 CURVE SMOOTH",
"400 657 OFFCURVE",
"397 660 OFFCURVE",
"390 660 CURVE SMOOTH",
"40 660 LINE SMOOTH",
"33 660 OFFCURVE",
"30 657 OFFCURVE",
"30 650 CURVE SMOOTH",
"30 645 OFFCURVE",
"34 642 OFFCURVE",
"40 639 CURVE SMOOTH",
"101 611 LINE SMOOTH",
"116 604 OFFCURVE",
"120 600 OFFCURVE",
"120 585 CURVE SMOOTH",
"120 276 LINE SMOOTH",
"120 99 OFFCURVE",
"218 -10 OFFCURVE",
"435 -10 CURVE SMOOTH"
);
}
);
width = 856;
},
{
anchors = (
{
name = bottom;
position = "{402, 0}";
},
{
name = right;
position = "{431, 0}";
},
{
name = top;
position = "{415, 710}";
}
);
associatedMasterId = m01;
layerId = "E88D933E-B92E-4348-89B8-54FAEF7E494C";
name = "Jan 13, 22, 04:07";
paths = (
{
closed = 1;
nodes = (
"554 -10 OFFCURVE",
"665 70 OFFCURVE",
"665 256 CURVE SMOOTH",
"665 605 LINE",
"744 644 LINE",
"744 660 LINE",
"495 660 LINE",
"495 644 LINE",
"595 606 LINE",
"595 236 LINE SMOOTH",
"595 101 OFFCURVE",
"519 48 OFFCURVE",
"431 48 CURVE SMOOTH",
"321 48 OFFCURVE",
"235 105 OFFCURVE",
"235 271 CURVE SMOOTH",
"235 604 LINE",
"315 644 LINE",
"315 660 LINE",
"65 660 LINE",
"65 644 LINE",
"145 604 LINE",
"145 256 LINE SMOOTH",
"145 70 OFFCURVE",
"256 -10 OFFCURVE",
"405 -10 CURVE SMOOTH"
);
}
);
visible = 1;
width = 809;
},
{
anchors = (
{
name = bottom;
position = "{468, 0}";
},
{
name = right;
position = "{479, 0}";
},
{
name = top;
position = "{483, 710}";
}
);
associatedMasterId = m002;
layerId = "653B3E56-0A50-42F8-B8C6-F18D48E259AF";
name = "Jan 13, 22, 05:07";
paths = (
{
closed = 1;
nodes = (
"617.75 -10 OFFCURVE",
"736 66 OFFCURVE",
"736 302 CURVE SMOOTH",
"736 603 LINE",
"826 644 LINE",
"826 660 LINE",
"576 660 LINE",
"576 644 LINE",
"666 604 LINE",
"666 255 LINE SMOOTH",
"666 124 OFFCURVE",
"586 76 OFFCURVE",
"498 76 CURVE SMOOTH",
"395 76 OFFCURVE",
"310 127 OFFCURVE",
"310 290 CURVE SMOOTH",
"310 602 LINE",
"400 644 LINE",
"400 660 LINE",
"30 660 LINE",
"30 644 LINE",
"120 602 LINE",
"120 302 LINE SMOOTH",
"120 66 OFFCURVE",
"244.773 -10 OFFCURVE",
"435 -10 CURVE SMOOTH"
);
}
);
width = 856;
}
);
leftKerningGroup = kern_U2;
rightKerningGroup = kern_U1;
unicode = 0055;
},
{
color = 5;
glyphname = V;
layers = (
{
layerId = m01;
paths = (
{
closed = 1;
nodes = (
"384 -20 OFFCURVE",
"388 -13 OFFCURVE",
"391 -5 CURVE SMOOTH",
"643 602 LINE SMOOTH",
"646 608 OFFCURVE",
"650 615 OFFCURVE",
"659 620 CURVE SMOOTH",
"695 639 LINE SMOOTH",
"701 642 OFFCURVE",
"705 645 OFFCURVE",
"705 650 CURVE SMOOTH",
"705 657 OFFCURVE",
"702 660 OFFCURVE",
"695 660 CURVE SMOOTH",
"505 660 LINE SMOOTH",
"498 660 OFFCURVE",
"495 657 OFFCURVE",
"495 650 CURVE SMOOTH",
"495 645 OFFCURVE",
"500 642 OFFCURVE",
"505 640 CURVE SMOOTH",
"562 616 LINE SMOOTH",
"571 612 OFFCURVE",
"573 609 OFFCURVE",
"573 605 CURVE SMOOTH",
"573 600 OFFCURVE",
"572 593 OFFCURVE",
"564 573 CURVE SMOOTH",
"401 168 LINE SMOOTH",
"397 158 OFFCURVE",
"394 154 OFFCURVE",
"388 154 CURVE SMOOTH",
"383 154 OFFCURVE",
"380 157 OFFCURVE",
"376 168 CURVE SMOOTH",
"211 573 LINE SMOOTH",
"203 592 OFFCURVE",
"202 596 OFFCURVE",
"202 602 CURVE SMOOTH",
"202 606 OFFCURVE",
"204 609 OFFCURVE",
"211 612 CURVE SMOOTH",
"276 640 LINE SMOOTH",
"281 642 OFFCURVE",
"285 645 OFFCURVE",
"285 650 CURVE SMOOTH",
"285 657 OFFCURVE",
"282 660 OFFCURVE",
"275 660 CURVE SMOOTH",
"45 660 LINE SMOOTH",
"38 660 OFFCURVE",
"35 657 OFFCURVE",
"35 651 CURVE SMOOTH",
"35 647 OFFCURVE",
"37 643 OFFCURVE",
"45 639 CURVE SMOOTH",
"90 616 LINE SMOOTH",
"102 610 OFFCURVE",
"107 602 OFFCURVE",
"111 593 CURVE SMOOTH",
"356 -5 LINE SMOOTH",
"358 -10 OFFCURVE",
"364 -20 OFFCURVE",
"372 -20 CURVE SMOOTH"
);
}
);
width = 740;
},
{
layerId = m002;
paths = (
{
closed = 1;
nodes = (
"415 -20 OFFCURVE",
"423 -18 OFFCURVE",
"429 -5 CURVE SMOOTH",
"706 602 LINE SMOOTH",
"709 608 OFFCURVE",
"711 611 OFFCURVE",
"719 616 CURVE SMOOTH",
"760 639 LINE SMOOTH",
"765 642 OFFCURVE",
"769 645 OFFCURVE",
"769 650 CURVE SMOOTH",
"769 657 OFFCURVE",
"766 660 OFFCURVE",
"759 660 CURVE SMOOTH",
"562 660 LINE SMOOTH",
"555 660 OFFCURVE",
"552 657 OFFCURVE",
"552 650 CURVE SMOOTH",
"552 645 OFFCURVE",
"557 641 OFFCURVE",
"562 639 CURVE SMOOTH",
"621 611 LINE SMOOTH",
"625 609 OFFCURVE",
"628 606 OFFCURVE",
"628 600 CURVE SMOOTH",
"628 595 OFFCURVE",
"626 590 OFFCURVE",
"623 583 CURVE SMOOTH",
"471 247 LINE SMOOTH",
"466 237 OFFCURVE",
"464 233 OFFCURVE",
"458 233 CURVE SMOOTH",
"453 233 OFFCURVE",
"451 236 OFFCURVE",
"446 247 CURVE SMOOTH",
"299 573 LINE SMOOTH",
"291 592 OFFCURVE",
"287 596 OFFCURVE",
"287 602 CURVE SMOOTH",
"287 606 OFFCURVE",
"289 609 OFFCURVE",
"296 612 CURVE SMOOTH",
"351 639 LINE SMOOTH",
"357 642 OFFCURVE",
"361 645 OFFCURVE",
"361 650 CURVE SMOOTH",
"361 657 OFFCURVE",
"358 660 OFFCURVE",
"351 660 CURVE SMOOTH",
"19 660 LINE SMOOTH",
"12 660 OFFCURVE",
"9 657 OFFCURVE",
"9 650 CURVE SMOOTH",
"9 646 OFFCURVE",
"11 642 OFFCURVE",
"19 638 CURVE SMOOTH",
"65 612 LINE SMOOTH",
"77 605 OFFCURVE",
"82 602 OFFCURVE",
"86 593 CURVE SMOOTH",
"356 -5 LINE SMOOTH",
"362 -18 OFFCURVE",
"368 -20 OFFCURVE",
"391 -20 CURVE SMOOTH"
);
}
);
width = 780;
},
{
associatedMasterId = m01;
layerId = "26CD9CB5-BD36-45C8-A4FC-C01CCEA0BA24";
name = "Jan 13, 22, 18:50";
paths = (
{
closed = 1;
nodes = (
"391 -5 LINE",
"656 632 LINE",
"632 605 LINE",
"705 644 LINE",
"705 660 LINE",
"495 660 LINE",
"495 644 LINE",
"577 610 LINE",
"577 606 LINE",
"373 99 LINE",
"411 144 LINE",
"366 144 LINE",
"404 99 LINE",
"199 602 LINE",
"199 607 LINE",
"285 644 LINE",
"285 660 LINE",
"35 660 LINE",
"35 644 LINE",
"144 588 LINE",
"94 632 LINE",
"356 -5 LINE"
);
}
);
width = 740;
},
{
associatedMasterId = m002;
layerId = "9C12ACA2-B91F-4843-AD90-106A41C63D84";
name = "Jan 13, 22, 20:54";
paths = (
{
closed = 1;
nodes = (
"429 -5 LINE",
"720 632 LINE",
"680 594 LINE",
"769 644 LINE",
"769 660 LINE",
"552 660 LINE",
"552 644 LINE",
"654 594 LINE",
"645 632 LINE",
"435 168 LINE",
"486 229 LINE",
"431 229 LINE",
"482 168 LINE",
"272 632 LINE",
"260 594 LINE",
"361 644 LINE",
"361 660 LINE",
"9 660 LINE",
"9 644 LINE",
"118 581 LINE",
"68 632 LINE",
"356 -5 LINE"
);
}
);
visible = 1;
width = 780;
}
);
leftKerningGroup = kern_V3;
rightKerningGroup = kern_V3;
unicode = 0056;
},
{
color = 5;
glyphname = W;
layers = (
{
anchors = (
{
name = top;
position = "{506, 710}";
}
);
layerId = m01;
paths = (
{
closed = 1;
nodes = (
"302 -16 OFFCURVE",
"306 -13 OFFCURVE",
"309 -5 CURVE SMOOTH",
"486 471 LINE SMOOTH",
"488 476 OFFCURVE",
"490 478 OFFCURVE",
"494 478 CURVE SMOOTH",
"498 478 OFFCURVE",
"500 475 OFFCURVE",
"502 469 CURVE SMOOTH",
"678 -5 LINE SMOOTH",
"680 -10 OFFCURVE",
"684 -16 OFFCURVE",
"695 -16 CURVE SMOOTH",
"707 -16 OFFCURVE",
"711 -13 OFFCURVE",
"713 -5 CURVE SMOOTH",
"896 599 LINE SMOOTH",
"898 604 OFFCURVE",
"902 609 OFFCURVE",
"910 613 CURVE SMOOTH",
"957 639 LINE SMOOTH",
"963 642 OFFCURVE",
"966 646 OFFCURVE",
"966 650 CURVE SMOOTH",
"966 657 OFFCURVE",
"963 660 OFFCURVE",
"956 660 CURVE SMOOTH",
"755 660 LINE SMOOTH",
"750 660 OFFCURVE",
"745 657 OFFCURVE",
"745 652 CURVE SMOOTH",
"745 648 OFFCURVE",
"749 642 OFFCURVE",
"756 639 CURVE SMOOTH",
"813 614 LINE SMOOTH",
"821 610 OFFCURVE",
"827 607 OFFCURVE",
"827 601 CURVE SMOOTH",
"827 595 OFFCURVE",
"825 588 OFFCURVE",
"821 574 CURVE SMOOTH",
"713 195 LINE SMOOTH",
"710 185 OFFCURVE",
"708 183 OFFCURVE",
"704 183 CURVE SMOOTH",
"699 183 OFFCURVE",
"697 185 OFFCURVE",
"694 193 CURVE SMOOTH",
"529 651 LINE SMOOTH",
"525 663 OFFCURVE",
"519 665 OFFCURVE",
"505 665 CURVE SMOOTH",
"492 665 OFFCURVE",
"486 662 OFFCURVE",
"482 651 CURVE SMOOTH",
"319 188 LINE SMOOTH",
"318 185 OFFCURVE",
"316 179 OFFCURVE",
"312 179 CURVE SMOOTH",
"308 179 OFFCURVE",
"306 184 OFFCURVE",
"305 188 CURVE SMOOTH",
"192 580 LINE SMOOTH",
"189 589 OFFCURVE",
"187 597 OFFCURVE",
"187 601 CURVE SMOOTH",
"187 607 OFFCURVE",
"192 610 OFFCURVE",
"198 613 CURVE SMOOTH",
"260 640 LINE SMOOTH",
"267 643 OFFCURVE",
"269 646 OFFCURVE",
"269 650 CURVE SMOOTH",
"269 656 OFFCURVE",
"266 660 OFFCURVE",
"259 660 CURVE SMOOTH",
"25 660 LINE SMOOTH",
"18 660 OFFCURVE",
"15 657 OFFCURVE",
"15 651 CURVE SMOOTH",
"15 646 OFFCURVE",
"17 643 OFFCURVE",
"25 639 CURVE SMOOTH",
"78 614 LINE SMOOTH",
"86 610 OFFCURVE",
"91 604 OFFCURVE",
"95 592 CURVE SMOOTH",
"274 -3 LINE SMOOTH",
"276 -10 OFFCURVE",
"281 -16 OFFCURVE",
"290 -16 CURVE SMOOTH"
);
}
);
width = 981;
},
{
anchors = (
{
name = top;
position = "{606, 710}";
}
);
layerId = m002;
paths = (
{
closed = 1;
nodes = (
"348 -16 OFFCURVE",
"354 -13 OFFCURVE",
"358 -5 CURVE SMOOTH",
"541 401 LINE SMOOTH",
"543 406 OFFCURVE",
"545 408 OFFCURVE",
"549 408 CURVE SMOOTH",
"553 408 OFFCURVE",
"554 405 OFFCURVE",
"557 399 CURVE SMOOTH",
"729 -5 LINE SMOOTH",
"731 -10 OFFCURVE",
"739 -16 OFFCURVE",
"766 -16 CURVE SMOOTH",
"791 -16 OFFCURVE",
"799 -13 OFFCURVE",
"802 -5 CURVE SMOOTH",
"1000 599 LINE SMOOTH",
"1003 607 OFFCURVE",
"1006 611 OFFCURVE",
"1014 615 CURVE SMOOTH",
"1062 639 LINE SMOOTH",
"1068 642 OFFCURVE",
"1071 646 OFFCURVE",
"1071 650 CURVE SMOOTH",
"1071 657 OFFCURVE",
"1068 660 OFFCURVE",
"1061 660 CURVE SMOOTH",
"853 660 LINE SMOOTH",
"846 660 OFFCURVE",
"843 657 OFFCURVE",
"843 652 CURVE SMOOTH",
"843 648 OFFCURVE",
"845 643 OFFCURVE",
"854 639 CURVE SMOOTH",
"911 613 LINE SMOOTH",
"919 609 OFFCURVE",
"924 606 OFFCURVE",
"924 599 CURVE SMOOTH",
"924 593 OFFCURVE",
"923 590 OFFCURVE",
"919 576 CURVE SMOOTH",
"824 273 LINE SMOOTH",
"822 265 OFFCURVE",
"819 260 OFFCURVE",
"814 260 CURVE SMOOTH",
"808 260 OFFCURVE",
"806 265 OFFCURVE",
"803 273 CURVE SMOOTH",
"648 651 LINE SMOOTH",
"643 663 OFFCURVE",
"639 665 OFFCURVE",
"605 665 CURVE SMOOTH",
"572 665 OFFCURVE",
"568 662 OFFCURVE",
"563 651 CURVE SMOOTH",
"403 268 LINE SMOOTH",
"401 263 OFFCURVE",
"398 259 OFFCURVE",
"393 259 CURVE SMOOTH",
"388 259 OFFCURVE",
"386 262 OFFCURVE",
"384 268 CURVE SMOOTH",
"288 580 LINE SMOOTH",
"285 589 OFFCURVE",
"283 597 OFFCURVE",
"283 601 CURVE SMOOTH",
"283 607 OFFCURVE",
"288 610 OFFCURVE",
"294 613 CURVE SMOOTH",
"356 640 LINE SMOOTH",
"363 643 OFFCURVE",
"365 646 OFFCURVE",
"365 650 CURVE SMOOTH",
"365 656 OFFCURVE",
"362 660 OFFCURVE",
"355 660 CURVE SMOOTH",
"20 660 LINE SMOOTH",
"13 660 OFFCURVE",
"10 657 OFFCURVE",
"10 651 CURVE SMOOTH",
"10 646 OFFCURVE",
"12 643 OFFCURVE",
"20 638 CURVE SMOOTH",
"77 606 LINE SMOOTH",
"85 601 OFFCURVE",
"89 598 OFFCURVE",
"93 585 CURVE SMOOTH",
"285 -5 LINE SMOOTH",
"287 -12 OFFCURVE",
"292 -16 OFFCURVE",
"320 -16 CURVE SMOOTH"
);
}
);
width = 1081;
},
{
anchors = (
{
name = top;
position = "{506, 710}";
}
);
associatedMasterId = m01;
layerId = "F042700A-315C-4668-97E1-5BD292380836";
name = "Jan 13, 22, 21:17";
paths = (
{
closed = 1;
nodes = (
"309 -5 LINE",
"512 543 LINE",
"471 485 LINE",
"516 485 LINE",
"475 543 LINE",
"678 -5 LINE",
"713 -5 LINE",
"906 632 LINE",
"876 595 LINE",
"966 644 LINE",
"966 660 LINE",
"745 660 LINE",
"745 644 LINE",
"854 595 LINE",
"838 632 LINE",
"694 129 LINE",
"726 174 LINE",
"681 174 LINE",
"717 129 LINE",
"524 665 LINE",
"487 665 LINE",
"296 122 LINE",
"333 174 LINE",
"288 174 LINE",
"324 122 LINE",
"177 632 LINE",
"150 592 LINE",
"269 644 LINE",
"269 660 LINE",
"15 660 LINE",
"15 644 LINE",
"124 592 LINE",
"83 632 LINE",
"274 -5 LINE"
);
}
);
width = 981;
},
{
anchors = (
{
name = top;
position = "{606, 710}";
}
);
associatedMasterId = m002;
layerId = "7DDFD848-427D-48D3-979B-84715EF1BB1C";
name = "Jan 13, 22, 21:27";
paths = (
{
closed = 1;
nodes = (
"358 -5 LINE",
"575 477 LINE",
"518 410 LINE",
"576 410 LINE",
"523 477 LINE",
"729 -5 LINE",
"802 -5 LINE",
"1011 632 LINE",
"973 594 LINE",
"1071 644 LINE",
"1071 660 LINE",
"843 660 LINE",
"843 644 LINE",
"953 594 LINE",
"936 632 LINE",
"790 162 LINE",
"843 252 LINE",
"789 252 LINE",
"848 162 LINE",
"642 665 LINE",
"569 665 LINE",
"359 164 LINE",
"424 252 LINE",
"364 252 LINE",
"416 164 LINE",
"272 632 LINE",
"245 589 LINE",
"364 644 LINE",
"364 660 LINE",
"10 660 LINE",
"10 644 LINE",
"119 583 LINE",
"78 632 LINE",
"285 -5 LINE"
);
}
);
width = 1081;
}
);
leftKerningGroup = kern_W3;
rightKerningGroup = kern_W3;
unicode = 0057;
},
{
color = 5;
glyphname = X;
layers = (
{
layerId = m01;
paths = (
{
closed = 1;
nodes = (
"250 0 LINE SMOOTH",
"257 0 OFFCURVE",
"260 3 OFFCURVE",
"260 10 CURVE SMOOTH",
"260 13 OFFCURVE",
"260 16 OFFCURVE",
"251 20 CURVE SMOOTH",
"188 48 LINE SMOOTH",
"185 49 OFFCURVE",
"182 52 OFFCURVE",
"182 56 CURVE SMOOTH",
"182 59 OFFCURVE",
"185 64 OFFCURVE",
"188 68 CURVE SMOOTH",
"334 260 LINE SMOOTH",
"343 272 OFFCURVE",
"347 277 OFFCURVE",
"353 277 CURVE SMOOTH",
"359 277 OFFCURVE",
"365 269 OFFCURVE",
"373 258 CURVE SMOOTH",
"514 68 LINE SMOOTH",
"517 64 OFFCURVE",
"518 61 OFFCURVE",
"518 58 CURVE SMOOTH",
"518 50 OFFCURVE",
"512 46 OFFCURVE",
"503 42 CURVE SMOOTH",
"460 21 LINE SMOOTH",
"450 16 OFFCURVE",
"450 13 OFFCURVE",
"450 10 CURVE SMOOTH",
"450 3 OFFCURVE",
"453 0 OFFCURVE",
"460 0 CURVE SMOOTH",
"695 0 LINE SMOOTH",
"702 0 OFFCURVE",
"705 3 OFFCURVE",
"705 10 CURVE SMOOTH",
"705 15 OFFCURVE",
"703 17 OFFCURVE",
"689 25 CURVE SMOOTH",
"651 46 LINE SMOOTH",
"642 51 OFFCURVE",
"635 55 OFFCURVE",
"629 63 CURVE SMOOTH",
"430 325 LINE SMOOTH",
"422 335 OFFCURVE",
"418 341 OFFCURVE",
"418 346 CURVE SMOOTH",
"418 351 OFFCURVE",
"424 359 OFFCURVE",
"431 368 CURVE SMOOTH",
"608 596 LINE SMOOTH",
"612 601 OFFCURVE",
"617 607 OFFCURVE",
"627 613 CURVE SMOOTH",
"670 638 LINE SMOOTH",
"680 644 OFFCURVE",
"680 648 OFFCURVE",
"680 652 CURVE SMOOTH",
"680 657 OFFCURVE",
"676 660 OFFCURVE",
"670 660 CURVE SMOOTH",
"480 660 LINE SMOOTH",
"473 660 OFFCURVE",
"470 657 OFFCURVE",
"470 651 CURVE SMOOTH",
"470 648 OFFCURVE",
"470 644 OFFCURVE",
"480 639 CURVE SMOOTH",
"536 612 LINE SMOOTH",
"542 609 OFFCURVE",
"543 607 OFFCURVE",
"543 604 CURVE SMOOTH",
"543 600 OFFCURVE",
"540 595 OFFCURVE",
"536 590 CURVE SMOOTH",
"394 409 LINE SMOOTH",
"387 400 OFFCURVE",
"384 396 OFFCURVE",
"380 396 CURVE SMOOTH",
"376 396 OFFCURVE",
"373 400 OFFCURVE",
"368 407 CURVE SMOOTH",
"229 590 LINE SMOOTH",
"225 596 OFFCURVE",
"223 599 OFFCURVE",
"223 603 CURVE SMOOTH",
"223 608 OFFCURVE",
"226 610 OFFCURVE",
"237 615 CURVE SMOOTH",
"289 639 LINE SMOOTH",
"300 644 OFFCURVE",
"300 648 OFFCURVE",
"300 651 CURVE SMOOTH",
"300 657 OFFCURVE",
"297 660 OFFCURVE",
"290 660 CURVE SMOOTH",
"60 660 LINE SMOOTH",
"55 660 OFFCURVE",
"50 658 OFFCURVE",
"50 651 CURVE SMOOTH",
"50 647 OFFCURVE",
"52 643 OFFCURVE",
"59 639 CURVE SMOOTH",
"95 619 LINE SMOOTH",
"106 613 OFFCURVE",
"113 609 OFFCURVE",
"122 597 CURVE SMOOTH",
"308 345 LINE SMOOTH",
"312 339 OFFCURVE",
"316 334 OFFCURVE",
"316 329 CURVE SMOOTH",
"316 324 OFFCURVE",
"312 318 OFFCURVE",
"308 313 CURVE SMOOTH",
"115 62 LINE SMOOTH",
"111 57 OFFCURVE",
"108 53 OFFCURVE",
"100 49 CURVE SMOOTH",
"45 21 LINE SMOOTH",
"35 16 OFFCURVE",
"35 13 OFFCURVE",
"35 10 CURVE SMOOTH",
"35 3 OFFCURVE",
"38 0 OFFCURVE",
"45 0 CURVE SMOOTH"
);
}
);
width = 740;
},
{
layerId = m002;
paths = (
{
closed = 1;
nodes = (
"260 0 LINE SMOOTH",
"267 0 OFFCURVE",
"270 3 OFFCURVE",
"270 10 CURVE SMOOTH",
"270 13 OFFCURVE",
"270 16 OFFCURVE",
"262 20 CURVE SMOOTH",
"202 51 LINE SMOOTH",
"199 53 OFFCURVE",
"196 55 OFFCURVE",
"196 59 CURVE SMOOTH",
"196 62 OFFCURVE",
"197 66 OFFCURVE",
"202 72 CURVE SMOOTH",
"324 219 LINE SMOOTH",
"334 231 OFFCURVE",
"338 236 OFFCURVE",
"344 236 CURVE SMOOTH",
"350 236 OFFCURVE",
"356 228 OFFCURVE",
"363 217 CURVE SMOOTH",
"465 68 LINE SMOOTH",
"467 65 OFFCURVE",
"468 62 OFFCURVE",
"468 60 CURVE SMOOTH",
"468 54 OFFCURVE",
"464 51 OFFCURVE",
"454 46 CURVE SMOOTH",
"409 21 LINE SMOOTH",
"399 16 OFFCURVE",
"399 13 OFFCURVE",
"399 10 CURVE SMOOTH",
"399 3 OFFCURVE",
"402 0 OFFCURVE",
"409 0 CURVE SMOOTH",
"776 0 LINE SMOOTH",
"783 0 OFFCURVE",
"786 2 OFFCURVE",
"786 9 CURVE SMOOTH",
"786 15 OFFCURVE",
"783 18 OFFCURVE",
"774 23 CURVE SMOOTH",
"732 47 LINE SMOOTH",
"718 55 OFFCURVE",
"712 60 OFFCURVE",
"706 68 CURVE SMOOTH",
"511 346 LINE SMOOTH",
"501 360 OFFCURVE",
"497 366 OFFCURVE",
"497 373 CURVE SMOOTH",
"497 378 OFFCURVE",
"501 383 OFFCURVE",
"512 396 CURVE SMOOTH",
"685 597 LINE SMOOTH",
"689 602 OFFCURVE",
"697 610 OFFCURVE",
"707 615 CURVE SMOOTH",
"753 638 LINE SMOOTH",
"763 643 OFFCURVE",
"765 647 OFFCURVE",
"765 651 CURVE SMOOTH",
"765 656 OFFCURVE",
"762 660 OFFCURVE",
"755 660 CURVE SMOOTH",
"524 660 LINE SMOOTH",
"517 660 OFFCURVE",
"514 657 OFFCURVE",
"514 651 CURVE SMOOTH",
"514 648 OFFCURVE",
"514 644 OFFCURVE",
"524 639 CURVE SMOOTH",
"584 607 LINE SMOOTH",
"590 604 OFFCURVE",
"591 602 OFFCURVE",
"591 599 CURVE SMOOTH",
"591 595 OFFCURVE",
"589 591 OFFCURVE",
"584 585 CURVE SMOOTH",
"468 441 LINE SMOOTH",
"462 434 OFFCURVE",
"460 432 OFFCURVE",
"456 432 CURVE SMOOTH",
"451 432 OFFCURVE",
"449 434 OFFCURVE",
"444 441 CURVE SMOOTH",
"344 584 LINE SMOOTH",
"338 593 OFFCURVE",
"337 595 OFFCURVE",
"337 600 CURVE SMOOTH",
"337 604 OFFCURVE",
"338 605 OFFCURVE",
"349 611 CURVE SMOOTH",
"401 638 LINE SMOOTH",
"412 644 OFFCURVE",
"412 648 OFFCURVE",
"412 651 CURVE SMOOTH",
"412 657 OFFCURVE",
"409 660 OFFCURVE",
"402 660 CURVE SMOOTH",
"40 660 LINE SMOOTH",
"35 660 OFFCURVE",
"30 658 OFFCURVE",
"30 651 CURVE SMOOTH",
"30 647 OFFCURVE",
"32 643 OFFCURVE",
"39 639 CURVE SMOOTH",
"75 618 LINE SMOOTH",
"86 612 OFFCURVE",
"99 604 OFFCURVE",
"104 597 CURVE SMOOTH",
"296 316 LINE SMOOTH",
"300 310 OFFCURVE",
"302 307 OFFCURVE",
"302 300 CURVE SMOOTH",
"302 294 OFFCURVE",
"297 288 OFFCURVE",
"292 282 CURVE SMOOTH",
"107 62 LINE SMOOTH",
"103 57 OFFCURVE",
"97 54 OFFCURVE",
"89 50 CURVE SMOOTH",
"30 21 LINE SMOOTH",
"20 16 OFFCURVE",
"20 13 OFFCURVE",
"20 10 CURVE SMOOTH",
"20 3 OFFCURVE",
"23 0 OFFCURVE",
"30 0 CURVE SMOOTH"
);
}
);
width = 806;
},
{
associatedMasterId = m01;
layerId = "C96A7971-1D2A-4E9F-84C2-2F4C4616BFED";
name = "Jan 15, 22, 21:09";
paths = (
{
closed = 1;
nodes = (
"705 0 LINE",
"705 16 LINE",
"596 76 LINE",
"664 16 LINE",
"220 602 LINE",
"220 607 LINE",
"300 644 LINE",
"300 660 LINE",
"50 660 LINE",
"50 644 LINE",
"159 584 LINE",
"96 632 LINE",
"523 56 LINE",
"523 52 LINE",
"450 16 LINE",
"450 0 LINE"
);
},
{
closed = 1;
nodes = (
"260 0 LINE",
"260 16 LINE",
"179 52 LINE",
"179 56 LINE",
"374 313 LINE",
"338 352 LINE",
"85 24 LINE",
"136 68 LINE",
"35 16 LINE",
"35 0 LINE"
);
},
{
closed = 1;
nodes = (
"470 660 LINE",
"470 644 LINE",
"546 607 LINE",
"546 603 LINE",
"366 373 LINE",
"399 327 LINE",
"636 632 LINE",
"599 597 LINE",
"680 644 LINE",
"680 660 LINE"
);
}
);
width = 740;
},
{
associatedMasterId = m002;
layerId = "393C0A27-AC50-4E8C-B28A-17702308B622";
name = "Jan 16, 22, 19:47";
paths = (
{
closed = 1;
nodes = (
"786 0 LINE",
"786 16 LINE",
"673 81 LINE",
"739 21 LINE",
"334 598 LINE",
"334 603 LINE",
"412 644 LINE",
"412 660 LINE",
"30 660 LINE",
"30 644 LINE",
"143 579 LINE",
"80 632 LINE",
"471 59 LINE",
"471 55 LINE",
"399 16 LINE",
"399 0 LINE"
);
},
{
closed = 1;
nodes = (
"270 0 LINE",
"270 16 LINE",
"190 57 LINE",
"193 61 LINE",
"402 313 LINE",
"351 352 LINE",
"87 38 LINE",
"129 70 LINE",
"20 16 LINE",
"20 0 LINE"
);
},
{
closed = 1;
nodes = (
"514 660 LINE",
"514 644 LINE",
"594 602 LINE",
"594 598 LINE",
"412 372 LINE",
"453 327 LINE",
"713 630 LINE",
"638 581 LINE",
"765 644 LINE",
"765 660 LINE"
);
}
);
visible = 1;
width = 806;
}
);
leftKerningGroup = kern_X3;
rightKerningGroup = kern_X3;
unicode = 0058;
},
{
color = 5;
glyphname = Y;
layers = (
{
anchors = (
{
name = bottom;
position = "{363, 0}";
},
{
name = top;
position = "{374, 710}";
}
);
layerId = m01;
paths = (
{
closed = 1;
nodes = (
"488 0 LINE SMOOTH",
"495 0 OFFCURVE",
"498 3 OFFCURVE",
"498 9 CURVE SMOOTH",
"498 12 OFFCURVE",
"498 16 OFFCURVE",
"489 20 CURVE SMOOTH",
"421 50 LINE SMOOTH",
"413 54 OFFCURVE",
"408 60 OFFCURVE",
"408 76 CURVE SMOOTH",
"408 296 LINE SMOOTH",
"408 307 OFFCURVE",
"412 314 OFFCURVE",
"418 323 CURVE SMOOTH",
"612 601 LINE SMOOTH",
"617 608 OFFCURVE",
"623 613 OFFCURVE",
"631 617 CURVE SMOOTH",
"673 639 LINE SMOOTH",
"683 644 OFFCURVE",
"683 647 OFFCURVE",
"683 651 CURVE SMOOTH",
"683 656 OFFCURVE",
"680 660 OFFCURVE",
"673 660 CURVE SMOOTH",
"481 660 LINE SMOOTH",
"474 660 OFFCURVE",
"471 657 OFFCURVE",
"471 651 CURVE SMOOTH",
"471 648 OFFCURVE",
"471 644 OFFCURVE",
"481 639 CURVE SMOOTH",
"530 615 LINE SMOOTH",
"535 612 OFFCURVE",
"540 609 OFFCURVE",
"540 603 CURVE SMOOTH",
"540 598 OFFCURVE",
"538 594 OFFCURVE",
"535 590 CURVE SMOOTH",
"393 377 LINE SMOOTH",
"390 372 OFFCURVE",
"387 368 OFFCURVE",
"383 368 CURVE SMOOTH",
"380 368 OFFCURVE",
"375 373 OFFCURVE",
"371 378 CURVE SMOOTH",
"217 587 LINE SMOOTH",
"211 595 OFFCURVE",
"209 600 OFFCURVE",
"209 605 CURVE SMOOTH",
"209 610 OFFCURVE",
"214 614 OFFCURVE",
"227 620 CURVE SMOOTH",
"267 639 LINE SMOOTH",
"277 644 OFFCURVE",
"277 648 OFFCURVE",
"277 651 CURVE SMOOTH",
"277 657 OFFCURVE",
"274 660 OFFCURVE",
"267 660 CURVE SMOOTH",
"45 660 LINE SMOOTH",
"38 660 OFFCURVE",
"35 657 OFFCURVE",
"35 651 CURVE SMOOTH",
"35 648 OFFCURVE",
"35 644 OFFCURVE",
"46 638 CURVE SMOOTH",
"83 618 LINE SMOOTH",
"94 612 OFFCURVE",
"99 607 OFFCURVE",
"109 593 CURVE SMOOTH",
"310 319 LINE SMOOTH",
"315 313 OFFCURVE",
"318 306 OFFCURVE",
"318 299 CURVE SMOOTH",
"318 76 LINE SMOOTH",
"318 63 OFFCURVE",
"314 54 OFFCURVE",
"302 49 CURVE SMOOTH",
"237 20 LINE SMOOTH",
"228 16 OFFCURVE",
"228 13 OFFCURVE",
"228 9 CURVE SMOOTH",
"228 3 OFFCURVE",
"231 0 OFFCURVE",
"238 0 CURVE SMOOTH"
);
}
);
width = 718;
},
{
anchors = (
{
name = bottom;
position = "{393, 0}";
},
{
name = top;
position = "{442, 710}";
}
);
layerId = m002;
paths = (
{
closed = 1;
nodes = (
"567 0 LINE SMOOTH",
"574 0 OFFCURVE",
"577 3 OFFCURVE",
"577 9 CURVE SMOOTH",
"577 12 OFFCURVE",
"577 16 OFFCURVE",
"568 20 CURVE SMOOTH",
"501 52 LINE SMOOTH",
"493 56 OFFCURVE",
"488 60 OFFCURVE",
"488 76 CURVE SMOOTH",
"488 296 LINE SMOOTH",
"488 307 OFFCURVE",
"492 314 OFFCURVE",
"498 323 CURVE SMOOTH",
"692 601 LINE SMOOTH",
"697 608 OFFCURVE",
"703 613 OFFCURVE",
"711 617 CURVE SMOOTH",
"758 639 LINE SMOOTH",
"768 644 OFFCURVE",
"768 647 OFFCURVE",
"768 651 CURVE SMOOTH",
"768 656 OFFCURVE",
"765 660 OFFCURVE",
"758 660 CURVE SMOOTH",
"540 660 LINE SMOOTH",
"533 660 OFFCURVE",
"530 657 OFFCURVE",
"530 651 CURVE SMOOTH",
"530 648 OFFCURVE",
"531 644 OFFCURVE",
"540 639 CURVE SMOOTH",
"596 610 LINE SMOOTH",
"601 607 OFFCURVE",
"606 604 OFFCURVE",
"606 599 CURVE SMOOTH",
"606 595 OFFCURVE",
"605 592 OFFCURVE",
"602 587 CURVE SMOOTH",
"466 385 LINE SMOOTH",
"462 379 OFFCURVE",
"460 377 OFFCURVE",
"457 377 CURVE SMOOTH",
"454 377 OFFCURVE",
"450 380 OFFCURVE",
"446 386 CURVE SMOOTH",
"298 585 LINE SMOOTH",
"292 593 OFFCURVE",
"291 598 OFFCURVE",
"291 601 CURVE SMOOTH",
"291 606 OFFCURVE",
"294 609 OFFCURVE",
"304 614 CURVE SMOOTH",
"353 639 LINE SMOOTH",
"363 644 OFFCURVE",
"363 648 OFFCURVE",
"363 651 CURVE SMOOTH",
"363 657 OFFCURVE",
"360 660 OFFCURVE",
"353 660 CURVE SMOOTH",
"20 660 LINE SMOOTH",
"13 660 OFFCURVE",
"10 657 OFFCURVE",
"10 651 CURVE SMOOTH",
"10 648 OFFCURVE",
"10 644 OFFCURVE",
"20 638 CURVE SMOOTH",
"68 610 LINE SMOOTH",
"77 605 OFFCURVE",
"84 599 OFFCURVE",
"90 591 CURVE SMOOTH",
"290 319 LINE SMOOTH",
"294 313 OFFCURVE",
"298 306 OFFCURVE",
"298 299 CURVE SMOOTH",
"298 76 LINE SMOOTH",
"298 63 OFFCURVE",
"295 57 OFFCURVE",
"283 51 CURVE SMOOTH",
"218 20 LINE SMOOTH",
"209 16 OFFCURVE",
"209 13 OFFCURVE",
"209 9 CURVE SMOOTH",
"209 3 OFFCURVE",
"212 0 OFFCURVE",
"218 0 CURVE SMOOTH"
);
}
);
width = 778;
},
{
anchors = (
{
name = bottom;
position = "{363, 0}";
},
{
name = top;
position = "{374, 710}";
}
);
associatedMasterId = m01;
layerId = "53F558CD-C4A5-4C37-B59B-91C58C18E70F";
name = "Jan 16, 22, 22:30";
paths = (
{
closed = 1;
nodes = (
"498 0 LINE",
"498 16 LINE",
"408 56 LINE",
"408 332 LINE",
"378 266 LINE",
"634 632 LINE",
"598 600 LINE",
"683 644 LINE",
"683 660 LINE",
"471 660 LINE",
"471 644 LINE",
"544 608 LINE",
"544 604 LINE",
"372 346 LINE",
"395 346 LINE",
"204 605 LINE",
"204 609 LINE",
"277 644 LINE",
"277 660 LINE",
"35 660 LINE",
"35 644 LINE",
"130 592 LINE",
"80 632 LINE",
"349 266 LINE",
"318 332 LINE",
"318 56 LINE",
"228 16 LINE",
"228 0 LINE"
);
}
);
width = 718;
},
{
anchors = (
{
name = bottom;
position = "{393, 0}";
},
{
name = top;
position = "{442, 710}";
}
);
associatedMasterId = m002;
layerId = "2C0F758C-B3EB-4D05-B99F-E581F23C94C1";
name = "Jan 17, 22, 13:42";
paths = (
{
closed = 1;
nodes = (
"577 0 LINE",
"577 16 LINE",
"488 58 LINE",
"488 354 LINE",
"457 264 LINE",
"714 632 LINE",
"644 584 LINE",
"768 644 LINE",
"768 660 LINE",
"530 660 LINE",
"530 644 LINE",
"610 603 LINE",
"610 599 LINE",
"442 348 LINE",
"474 348 LINE",
"286 601 LINE",
"286 605 LINE",
"363 644 LINE",
"363 660 LINE",
"10 660 LINE",
"10 644 LINE",
"110 586 LINE",
"60 632 LINE",
"329 266 LINE",
"298 354 LINE",
"298 58 LINE",
"209 16 LINE",
"209 0 LINE"
);
}
);
visible = 1;
width = 778;
}
);
leftKerningGroup = kern_Y3;
rightKerningGroup = kern_Y3;
unicode = 0059;
},
{
color = 5;
glyphname = Z;
layers = (
{
anchors = (
{
name = bottom;
position = "{333, 0}";
},
{
name = top;
position = "{333, 710}";
}
);
layerId = m01;
paths = (
{
closed = 1;
nodes = (
"536 0 LINE SMOOTH",
"551 0 OFFCURVE",
"556 5 OFFCURVE",
"556 20 CURVE SMOOTH",
"556 181 LINE SMOOTH",
"556 188 OFFCURVE",
"553 192 OFFCURVE",
"548 192 CURVE SMOOTH",
"544 192 OFFCURVE",
"539 190 OFFCURVE",
"531 172 CURVE SMOOTH",
"491 84 LINE SMOOTH",
"482 64 OFFCURVE",
"475 55 OFFCURVE",
"458 55 CURVE SMOOTH",
"230 55 LINE SMOOTH",
"218 55 OFFCURVE",
"214 60 OFFCURVE",
"214 66 CURVE SMOOTH",
"214 74 OFFCURVE",
"218 79 OFFCURVE",
"228 97 CURVE SMOOTH",
"527 604 LINE SMOOTH",
"540 626 OFFCURVE",
"545 636 OFFCURVE",
"545 643 CURVE SMOOTH",
"545 656 OFFCURVE",
"539 660 OFFCURVE",
"525 660 CURVE SMOOTH",
"126 660 LINE SMOOTH",
"110 660 OFFCURVE",
"102 653 OFFCURVE",
"102 640 CURVE SMOOTH",
"102 498 LINE SMOOTH",
"102 484 OFFCURVE",
"104 478 OFFCURVE",
"111 478 CURVE SMOOTH",
"117 478 OFFCURVE",
"121 484 OFFCURVE",
"127 496 CURVE SMOOTH",
"165 574 LINE SMOOTH",
"176 597 OFFCURVE",
"187 605 OFFCURVE",
"210 605 CURVE SMOOTH",
"417 605 LINE SMOOTH",
"423 605 OFFCURVE",
"425 603 OFFCURVE",
"425 599 CURVE SMOOTH",
"425 595 OFFCURVE",
"424 593 OFFCURVE",
"417 581 CURVE SMOOTH",
"100 42 LINE SMOOTH",
"92 28 OFFCURVE",
"90 20 OFFCURVE",
"90 15 CURVE SMOOTH",
"90 3 OFFCURVE",
"97 0 OFFCURVE",
"110 0 CURVE SMOOTH"
);
}
);
width = 646;
},
{
anchors = (
{
name = bottom;
position = "{369, 0}";
},
{
name = top;
position = "{369, 710}";
}
);
layerId = m002;
paths = (
{
closed = 1;
nodes = (
"636 0 LINE SMOOTH",
"651 0 OFFCURVE",
"656 5 OFFCURVE",
"656 20 CURVE SMOOTH",
"656 218 LINE SMOOTH",
"656 225 OFFCURVE",
"653 229 OFFCURVE",
"648 229 CURVE SMOOTH",
"644 229 OFFCURVE",
"639 226 OFFCURVE",
"630 209 CURVE SMOOTH",
"566 84 LINE SMOOTH",
"556 65 OFFCURVE",
"550 55 OFFCURVE",
"533 55 CURVE SMOOTH",
"330 55 LINE SMOOTH",
"318 55 OFFCURVE",
"314 60 OFFCURVE",
"314 66 CURVE SMOOTH",
"314 74 OFFCURVE",
"317 79 OFFCURVE",
"328 97 CURVE SMOOTH",
"627 593 LINE SMOOTH",
"643 619 OFFCURVE",
"645 630 OFFCURVE",
"645 640 CURVE SMOOTH",
"645 653 OFFCURVE",
"637 660 OFFCURVE",
"620 660 CURVE SMOOTH",
"116 660 LINE SMOOTH",
"100 660 OFFCURVE",
"92 653 OFFCURVE",
"92 640 CURVE SMOOTH",
"92 461 LINE SMOOTH",
"92 447 OFFCURVE",
"94 441 OFFCURVE",
"101 441 CURVE SMOOTH",
"107 441 OFFCURVE",
"111 447 OFFCURVE",
"117 459 CURVE SMOOTH",
"175 574 LINE SMOOTH",
"186 595 OFFCURVE",
"197 605 OFFCURVE",
"220 605 CURVE SMOOTH",
"407 605 LINE SMOOTH",
"413 605 OFFCURVE",
"415 603 OFFCURVE",
"415 599 CURVE SMOOTH",
"415 595 OFFCURVE",
"414 593 OFFCURVE",
"407 581 CURVE SMOOTH",
"100 70 LINE SMOOTH",
"80 37 OFFCURVE",
"80 28 OFFCURVE",
"80 23 CURVE SMOOTH",
"80 6 OFFCURVE",
"89 0 OFFCURVE",
"105 0 CURVE SMOOTH"
);
}
);
width = 736;
},
{
anchors = (
{
name = bottom;
position = "{333, 0}";
},
{
name = top;
position = "{333, 710}";
}
);
associatedMasterId = m01;
layerId = "AAE2B430-AB9A-4020-8E9F-7E6DAA100A4C";
name = "Jan 17, 22, 13:56";
paths = (
{
closed = 1;
nodes = (
"556 0 LINE",
"556 192 LINE",
"540 192 LINE",
"478 55 LINE",
"182 55 LINE",
"182 19 LINE",
"545 635 LINE",
"545 660 LINE",
"102 660 LINE",
"102 478 LINE",
"118 478 LINE",
"180 605 LINE",
"452 605 LINE",
"452 641 LINE",
"90 25 LINE",
"90 0 LINE"
);
}
);
width = 646;
},
{
anchors = (
{
name = bottom;
position = "{369, 0}";
},
{
name = top;
position = "{369, 710}";
}
);
associatedMasterId = m002;
layerId = "E2382E2D-0D3A-4E57-9B64-DB661FC5ACE2";
name = "Jan 17, 22, 18:44";
paths = (
{
closed = 1;
nodes = (
"656 0 LINE",
"656 229 LINE",
"640 229 LINE",
"551 55 LINE",
"275 55 LINE",
"275 9 LINE",
"645 623 LINE",
"645 660 LINE",
"92 660 LINE",
"92 441 LINE",
"108 441 LINE",
"190 605 LINE",
"442 605 LINE",
"442 639 LINE",
"80 37 LINE",
"80 0 LINE"
);
}
);
visible = 1;
width = 736;
}
);
leftKerningGroup = kern_Z3;
rightKerningGroup = kern_Z3;
unicode = 005A;
},
{
color = 5;
glyphname = a;
layers = (
{
anchors = (
{
name = bottom;
position = "{237, 0}";
},
{
name = right;
position = "{402, 0}";
},
{
name = top;
position = "{225, 510}";
}
);
layerId = m01;
paths = (
{
closed = 1;
nodes = (
"226 -10 OFFCURVE",
"268 23 OFFCURVE",
"289 39 CURVE SMOOTH",
"295 44 OFFCURVE",
"299 45 OFFCURVE",
"302 45 CURVE SMOOTH",
"306 45 OFFCURVE",
"309 44 OFFCURVE",
"312 36 CURVE SMOOTH",
"319 20 OFFCURVE",
"338 -10 OFFCURVE",
"382 -10 CURVE SMOOTH",
"440 -10 OFFCURVE",
"478 23 OFFCURVE",
"478 37 CURVE SMOOTH",
"478 41 OFFCURVE",
"477 44 OFFCURVE",
"472 44 CURVE SMOOTH",
"418 44 LINE SMOOTH",
"402 44 OFFCURVE",
"381 54 OFFCURVE",
"381 87 CURVE SMOOTH",
"381 341 LINE SMOOTH",
"381 435 OFFCURVE",
"308 460 OFFCURVE",
"237 460 CURVE SMOOTH",
"166 460 OFFCURVE",
"59 409 OFFCURVE",
"59 333 CURVE SMOOTH",
"59 307 OFFCURVE",
"77 288 OFFCURVE",
"103 288 CURVE SMOOTH",
"133 288 OFFCURVE",
"148 309 OFFCURVE",
"148 324 CURVE SMOOTH",
"148 334 OFFCURVE",
"142 342 OFFCURVE",
"142 362 CURVE SMOOTH",
"142 387 OFFCURVE",
"170 414 OFFCURVE",
"211 414 CURVE SMOOTH",
"272 414 OFFCURVE",
"301 382 OFFCURVE",
"301 332 CURVE SMOOTH",
"301 267 LINE SMOOTH",
"301 261 OFFCURVE",
"301 257 OFFCURVE",
"292 255 CURVE SMOOTH",
"104 221 OFFCURVE",
"47 175 OFFCURVE",
"47 94 CURVE SMOOTH",
"47 29 OFFCURVE",
"93 -10 OFFCURVE",
"156 -10 CURVE SMOOTH"
);
},
{
closed = 1;
nodes = (
"152 52 OFFCURVE",
"125 73 OFFCURVE",
"125 114 CURVE SMOOTH",
"125 177 OFFCURVE",
"172 194 OFFCURVE",
"281 219 CURVE SMOOTH",
"286 220 OFFCURVE",
"292 221 OFFCURVE",
"294 221 CURVE SMOOTH",
"299 221 OFFCURVE",
"301 219 OFFCURVE",
"301 213 CURVE SMOOTH",
"301 98 LINE SMOOTH",
"301 71 OFFCURVE",
"270 52 OFFCURVE",
"200 52 CURVE SMOOTH"
);
}
);
width = 489;
},
{
anchors = (
{
name = bottom;
position = "{248, 0}";
},
{
name = right;
position = "{459, 0}";
},
{
name = top;
position = "{258, 510}";
}
);
layerId = m002;
paths = (
{
closed = 1;
nodes = (
"206 -10 OFFCURVE",
"229 10 OFFCURVE",
"265 44 CURVE SMOOTH",
"271 50 OFFCURVE",
"275 56 OFFCURVE",
"282 56 CURVE SMOOTH",
"287 56 OFFCURVE",
"292 52 OFFCURVE",
"296 45 CURVE SMOOTH",
"312 16 OFFCURVE",
"337 -10 OFFCURVE",
"412 -10 CURVE SMOOTH",
"500 -10 OFFCURVE",
"531 27 OFFCURVE",
"531 41 CURVE SMOOTH",
"531 45 OFFCURVE",
"529 48 OFFCURVE",
"524 48 CURVE SMOOTH",
"488 48 LINE SMOOTH",
"472 48 OFFCURVE",
"462 60 OFFCURVE",
"462 87 CURVE SMOOTH",
"462 330 LINE SMOOTH",
"462 422 OFFCURVE",
"381 470 OFFCURVE",
"256 470 CURVE SMOOTH",
"162 470 OFFCURVE",
"43 404 OFFCURVE",
"43 332 CURVE SMOOTH",
"43 293 OFFCURVE",
"68 278 OFFCURVE",
"102 278 CURVE SMOOTH",
"142 278 OFFCURVE",
"162 298 OFFCURVE",
"162 325 CURVE SMOOTH",
"162 345 OFFCURVE",
"154 357 OFFCURVE",
"154 380 CURVE SMOOTH",
"154 400 OFFCURVE",
"170 418 OFFCURVE",
"204 418 CURVE SMOOTH",
"262 418 OFFCURVE",
"282 381 OFFCURVE",
"282 332 CURVE SMOOTH",
"282 289 LINE SMOOTH",
"282 283 OFFCURVE",
"282 279 OFFCURVE",
"273 277 CURVE SMOOTH",
"85 232 OFFCURVE",
"25 210 OFFCURVE",
"25 114 CURVE SMOOTH",
"25 49 OFFCURVE",
"65 -8 OFFCURVE",
"146 -9 CURVE SMOOTH"
);
},
{
closed = 1;
nodes = (
"220 84 OFFCURVE",
"192 103 OFFCURVE",
"192 144 CURVE SMOOTH",
"192 208 OFFCURVE",
"236 219 OFFCURVE",
"266 229 CURVE SMOOTH",
"269 230 OFFCURVE",
"273 231 OFFCURVE",
"277 231 CURVE SMOOTH",
"281 231 OFFCURVE",
"282 228 OFFCURVE",
"282 223 CURVE SMOOTH",
"282 105 LINE SMOOTH",
"282 87 OFFCURVE",
"272 84 OFFCURVE",
"251 84 CURVE SMOOTH"
);
}
);
width = 531;
},
{
anchors = (
{
name = bottom;
position = "{237, 0}";
},
{
name = right;
position = "{402, 0}";
},
{
name = top;
position = "{225, 510}";
}
);
associatedMasterId = m01;
layerId = "E8331F28-C29C-4CAC-B9CA-9E333DCFB48C";
name = "Jan 17, 22, 18:50";
paths = (
{
closed = 1;
nodes = (
"212 -10 OFFCURVE",
"266 16 OFFCURVE",
"301 50 CURVE",
"319 50 LINE",
"319 83 LINE",
"269 60 OFFCURVE",
"237 52 OFFCURVE",
"200 52 CURVE SMOOTH",
"152 52 OFFCURVE",
"125 73 OFFCURVE",
"125 114 CURVE SMOOTH",
"125 162 OFFCURVE",
"144 197 OFFCURVE",
"333 229 CURVE",
"333 265 LINE",
"206 235 LINE SMOOTH",
"91 208 OFFCURVE",
"47 159 OFFCURVE",
"47 94 CURVE",
"47 29 OFFCURVE",
"93 -10 OFFCURVE",
"156 -10 CURVE SMOOTH"
);
},
{
closed = 1;
nodes = (
"430 -10 OFFCURVE",
"462 16 OFFCURVE",
"478 45 CURVE",
"478 48 LINE",
"475 50 LINE",
"437 50 LINE SMOOTH",
"407 50 OFFCURVE",
"390 57 OFFCURVE",
"381 67 CURVE",
"381 351 LINE SMOOTH",
"381 435 OFFCURVE",
"308 460 OFFCURVE",
"237 460 CURVE SMOOTH",
"191 460 OFFCURVE",
"150 442 OFFCURVE",
"113 418 CURVE SMOOTH",
"77 395 OFFCURVE",
"60 362 OFFCURVE",
"60 333 CURVE SMOOTH",
"60 309 OFFCURVE",
"66 305 OFFCURVE",
"86 305 CURVE SMOOTH",
"138 305 LINE",
"143 310 LINE",
"143 338 LINE SMOOTH",
"143 384 OFFCURVE",
"160 413 OFFCURVE",
"211 413 CURVE SMOOTH",
"257 413 OFFCURVE",
"301 376 OFFCURVE",
"301 330 CURVE SMOOTH",
"301 71 LINE",
"303 71 LINE",
"309 23 OFFCURVE",
"336 -10 OFFCURVE",
"385 -10 CURVE SMOOTH"
);
},
{
closed = 1;
nodes = (
"128 288 OFFCURVE",
"148 308 OFFCURVE",
"148 333 CURVE SMOOTH",
"148 357 OFFCURVE",
"128 377 OFFCURVE",
"104 377 CURVE SMOOTH",
"79 377 OFFCURVE",
"59 357 OFFCURVE",
"59 333 CURVE SMOOTH",
"59 308 OFFCURVE",
"79 288 OFFCURVE",
"104 288 CURVE SMOOTH"
);
}
);
visible = 1;
width = 489;
},
{
anchors = (
{
name = bottom;
position = "{248, 0}";
},
{
name = right;
position = "{459, 0}";
},
{
name = top;
position = "{258, 510}";
}
);
associatedMasterId = m002;
layerId = "49E1A50A-76A1-4244-860A-0A432FCEA692";
name = "Jan 17, 22, 18:52";
paths = (
{
closed = 1;
nodes = (
"207 -9 OFFCURVE",
"249 23 OFFCURVE",
"282 64 CURVE",
"302 64 LINE",
"302 97 LINE",
"286 90 OFFCURVE",
"271 84 OFFCURVE",
"253 84 CURVE SMOOTH",
"216 84 OFFCURVE",
"192 105 OFFCURVE",
"192 147 CURVE SMOOTH",
"192 204 OFFCURVE",
"227 224 OFFCURVE",
"314 240 CURVE",
"314 287 LINE",
"188 254 LINE SMOOTH",
"54 219 OFFCURVE",
"26 190 OFFCURVE",
"25 113 CURVE SMOOTH",
"23 34 OFFCURVE",
"82 -9 OFFCURVE",
"148 -9 CURVE SMOOTH"
);
},
{
closed = 1;
nodes = (
"479 -10 OFFCURVE",
"516 16 OFFCURVE",
"531 38 CURVE",
"531 59 LINE",
"527 63 LINE",
"505 63 LINE SMOOTH",
"486 63 OFFCURVE",
"472 69 OFFCURVE",
"462 78 CURVE",
"462 330 LINE SMOOTH",
"462 424 OFFCURVE",
"374 470 OFFCURVE",
"258 470 CURVE SMOOTH",
"207 470 OFFCURVE",
"169 460 OFFCURVE",
"115 427 CURVE SMOOTH",
"73 402 OFFCURVE",
"44 375 OFFCURVE",
"44 346 CURVE SMOOTH",
"44 323 OFFCURVE",
"51 313 OFFCURVE",
"71 313 CURVE SMOOTH",
"147 313 LINE",
"150 317 LINE",
"150 375 LINE SMOOTH",
"150 404.913 OFFCURVE",
"167 418 OFFCURVE",
"205 418 CURVE SMOOTH",
"254 418 OFFCURVE",
"282 388 OFFCURVE",
"282 333 CURVE SMOOTH",
"282 69 LINE",
"284 69 LINE",
"306 17 OFFCURVE",
"347 -10 OFFCURVE",
"417 -10 CURVE SMOOTH"
);
}
);
width = 531;
}
);
leftKerningGroup = kernLC_a2;
rightKerningGroup = kernLC_a1;
unicode = 0061;
},
{
color = 5;
glyphname = ae;
layers = (
{
anchors = (
{
name = top;
position = "{377, 510}";
}
);
layerId = m01;
paths = (
{
closed = 1;
nodes = (
"243 -10 OFFCURVE",
"289 29 OFFCURVE",
"324 58 CURVE SMOOTH",
"330 63 OFFCURVE",
"333 67 OFFCURVE",
"337 67 CURVE SMOOTH",
"343 67 OFFCURVE",
"345 63 OFFCURVE",
"348 59 CURVE SMOOTH",
"384 15 OFFCURVE",
"439 -10 OFFCURVE",
"515 -10 CURVE SMOOTH",
"616 -10 OFFCURVE",
"679 67 OFFCURVE",
"679 83 CURVE SMOOTH",
"679 92 OFFCURVE",
"676 95 OFFCURVE",
"669 95 CURVE SMOOTH",
"654 95 OFFCURVE",
"617 65 OFFCURVE",
"561 65 CURVE SMOOTH",
"431 65 OFFCURVE",
"384 153 OFFCURVE",
"384 223 CURVE SMOOTH",
"384 234 OFFCURVE",
"391 242 OFFCURVE",
"403 242 CURVE SMOOTH",
"663 242 LINE SMOOTH",
"676 242 OFFCURVE",
"685 252 OFFCURVE",
"685 267 CURVE SMOOTH",
"685 375 OFFCURVE",
"625 460 OFFCURVE",
"515 460 CURVE SMOOTH",
"468 460 OFFCURVE",
"421 441 OFFCURVE",
"383 404 CURVE SMOOTH",
"380 402 OFFCURVE",
"378 401 OFFCURVE",
"375 401 CURVE SMOOTH",
"372 401 OFFCURVE",
"371 402 OFFCURVE",
"368 407 CURVE SMOOTH",
"344 446 OFFCURVE",
"290 460 OFFCURVE",
"237 460 CURVE SMOOTH",
"166 460 OFFCURVE",
"60 408 OFFCURVE",
"60 333 CURVE SMOOTH",
"60 309 OFFCURVE",
"77 289 OFFCURVE",
"102 289 CURVE SMOOTH",
"127 289 OFFCURVE",
"143 303 OFFCURVE",
"143 328 CURVE SMOOTH",
"143 385 OFFCURVE",
"158 413 OFFCURVE",
"211 413 CURVE SMOOTH",
"277 413 OFFCURVE",
"302 361 OFFCURVE",
"302 328 CURVE SMOOTH",
"302 271 LINE SMOOTH",
"302 260 OFFCURVE",
"298 256 OFFCURVE",
"289 254 CURVE SMOOTH",
"83 220 OFFCURVE",
"47 157 OFFCURVE",
"47 94 CURVE SMOOTH",
"47 29 OFFCURVE",
"93 -10 OFFCURVE",
"156 -10 CURVE SMOOTH"
);
},
{
closed = 1;
nodes = (
"152 52 OFFCURVE",
"125 73 OFFCURVE",
"125 114 CURVE SMOOTH",
"125 187 OFFCURVE",
"209 204 OFFCURVE",
"288 220 CURVE SMOOTH",
"297 222 OFFCURVE",
"302 220 OFFCURVE",
"302 210 CURVE SMOOTH",
"302 170 OFFCURVE",
"307 132 OFFCURVE",
"322 102 CURVE SMOOTH",
"324 98 OFFCURVE",
"325 94 OFFCURVE",
"325 91 CURVE SMOOTH",
"325 88 OFFCURVE",
"320 85 OFFCURVE",
"314 82 CURVE SMOOTH",
"280 65 OFFCURVE",
"238 52 OFFCURVE",
"200 52 CURVE SMOOTH"
);
},
{
closed = 1;
nodes = (
"393 288 OFFCURVE",
"388 294 OFFCURVE",
"388 304 CURVE SMOOTH",
"388 344 OFFCURVE",
"429 416 OFFCURVE",
"501 416 CURVE SMOOTH",
"568 416 OFFCURVE",
"606 350 OFFCURVE",
"606 304 CURVE SMOOTH",
"606 294 OFFCURVE",
"599 288 OFFCURVE",
"589 288 CURVE SMOOTH",
"404 288 LINE SMOOTH"
);
}
);
width = 737;
},
{
anchors = (
{
name = top;
position = "{386, 510}";
}
);
layerId = m002;
paths = (
{
closed = 1;
nodes = (
"231 -10 OFFCURVE",
"274 36 OFFCURVE",
"303 65 CURVE SMOOTH",
"309 71 OFFCURVE",
"313 75 OFFCURVE",
"317 75 CURVE SMOOTH",
"323 75 OFFCURVE",
"325 72 OFFCURVE",
"328 68 CURVE SMOOTH",
"368 19 OFFCURVE",
"429 -10 OFFCURVE",
"515 -10 CURVE SMOOTH",
"656 -10 OFFCURVE",
"725 105 OFFCURVE",
"725 128 CURVE SMOOTH",
"725 137 OFFCURVE",
"722 140 OFFCURVE",
"715 140 CURVE SMOOTH",
"700 140 OFFCURVE",
"664 119 OFFCURVE",
"605 119 CURVE SMOOTH",
"495 119 OFFCURVE",
"454 173 OFFCURVE",
"454 243 CURVE SMOOTH",
"454 254 OFFCURVE",
"461 262 OFFCURVE",
"473 262 CURVE SMOOTH",
"701 262 LINE SMOOTH",
"714 262 OFFCURVE",
"723 272 OFFCURVE",
"723 287 CURVE SMOOTH",
"723 395 OFFCURVE",
"658 470 OFFCURVE",
"548 470 CURVE SMOOTH",
"501 470 OFFCURVE",
"462 461 OFFCURVE",
"415 438 CURVE SMOOTH",
"411 436 OFFCURVE",
"409 435 OFFCURVE",
"407 435 CURVE SMOOTH",
"405 435 OFFCURVE",
"403 436 OFFCURVE",
"398 439 CURVE SMOOTH",
"361 461 OFFCURVE",
"310 470 OFFCURVE",
"257 470 CURVE SMOOTH",
"160 470 OFFCURVE",
"44 404 OFFCURVE",
"44 336 CURVE SMOOTH",
"44 308 OFFCURVE",
"53 298 OFFCURVE",
"102 298 CURVE SMOOTH",
"127 298 OFFCURVE",
"150 303 OFFCURVE",
"150 328 CURVE SMOOTH",
"150 385 OFFCURVE",
"143 418 OFFCURVE",
"206 418 CURVE SMOOTH",
"272 418 OFFCURVE",
"281 361 OFFCURVE",
"282 328 CURVE SMOOTH",
"283 292 LINE SMOOTH",
"283 281 OFFCURVE",
"279 277 OFFCURVE",
"270 275 CURVE SMOOTH",
"67 237 OFFCURVE",
"25 188 OFFCURVE",
"25 115 CURVE SMOOTH",
"25 50 OFFCURVE",
"63 -10 OFFCURVE",
"156 -10 CURVE SMOOTH"
);
},
{
closed = 1;
nodes = (
"209 84 OFFCURVE",
"192 105 OFFCURVE",
"192 146 CURVE SMOOTH",
"192 164 OFFCURVE",
"189 213 OFFCURVE",
"268 229 CURVE SMOOTH",
"277 231 OFFCURVE",
"282 229 OFFCURVE",
"282 219 CURVE SMOOTH",
"282 179 OFFCURVE",
"286 142 OFFCURVE",
"301 112 CURVE SMOOTH",
"303 108 OFFCURVE",
"304 104 OFFCURVE",
"304 101 CURVE SMOOTH",
"304 98 OFFCURVE",
"299 94 OFFCURVE",
"293 92 CURVE SMOOTH",
"284 89 OFFCURVE",
"275 84 OFFCURVE",
"257 84 CURVE SMOOTH"
);
},
{
closed = 1;
nodes = (
"466 306 OFFCURVE",
"461 312 OFFCURVE",
"461 322 CURVE SMOOTH",
"461 362 OFFCURVE",
"479 425 OFFCURVE",
"525 425 CURVE SMOOTH",
"570 425 OFFCURVE",
"587 368 OFFCURVE",
"587 322 CURVE SMOOTH",
"587 312 OFFCURVE",
"580 306 OFFCURVE",
"570 306 CURVE SMOOTH",
"477 306 LINE SMOOTH"
);
}
);
width = 755;
},
{
anchors = (
{
name = top;
position = "{377, 510}";
}
);
associatedMasterId = m01;
layerId = "20E81CFC-AB3E-4821-A7D6-D7B082583603";
name = "Dec 21, 21, 21:41";
paths = (
{
closed = 1;
nodes = (
"593 -10 OFFCURVE",
"656 37 OFFCURVE",
"687 95 CURVE",
"687 105 LINE",
"684 105 LINE",
"634 78 OFFCURVE",
"592 65 OFFCURVE",
"555 65 CURVE SMOOTH",
"424 65 OFFCURVE",
"382 155 OFFCURVE",
"382 251 CURVE SMOOTH",
"382 355 OFFCURVE",
"427 416 OFFCURVE",
"500 416 CURVE SMOOTH",
"559 416 OFFCURVE",
"596 377 OFFCURVE",
"611 284 CURVE",
"629 288 LINE",
"372 288 LINE",
"372 242 LINE",
"681 242 LINE",
"686 247 LINE",
"686 384 OFFCURVE",
"621 460 OFFCURVE",
"516 460 CURVE SMOOTH",
"453 460 OFFCURVE",
"395 427 OFFCURVE",
"355 373 CURVE",
"380 373 LINE",
"369 439 OFFCURVE",
"302 460 OFFCURVE",
"238 460 CURVE SMOOTH",
"192 460 OFFCURVE",
"151 442 OFFCURVE",
"114 418 CURVE SMOOTH",
"78 395 OFFCURVE",
"61 362 OFFCURVE",
"61 333 CURVE SMOOTH",
"61 309 OFFCURVE",
"67 305 OFFCURVE",
"87 305 CURVE SMOOTH",
"139 305 LINE",
"144 310 LINE",
"144 338 LINE SMOOTH",
"144 384 OFFCURVE",
"161 413 OFFCURVE",
"212 413 CURVE SMOOTH",
"258 413 OFFCURVE",
"302 376 OFFCURVE",
"302 330 CURVE SMOOTH",
"302 207 LINE SMOOTH",
"302 74 OFFCURVE",
"385 -10 OFFCURVE",
"512 -10 CURVE SMOOTH"
);
},
{
closed = 1;
nodes = (
"234 -10 OFFCURVE",
"298 26 OFFCURVE",
"336 71 CURVE",
"344 71 LINE",
"344 97 LINE",
"294 70 OFFCURVE",
"253 52 OFFCURVE",
"201 52 CURVE SMOOTH",
"153 52 OFFCURVE",
"126 73 OFFCURVE",
"126 114 CURVE SMOOTH",
"126 162 OFFCURVE",
"145 197 OFFCURVE",
"334 229 CURVE",
"334 265 LINE",
"207 235 LINE SMOOTH",
"92 208 OFFCURVE",
"48 159 OFFCURVE",
"48 94 CURVE",
"48 29 OFFCURVE",
"94 -10 OFFCURVE",
"157 -10 CURVE SMOOTH"
);
}
);
width = 737;
},
{
anchors = (
{
name = top;
position = "{386, 510}";
}
);
associatedMasterId = m002;
layerId = "DA826375-6CC1-4E10-ACC0-1CC06FD879B2";
name = "Dec 21, 21, 21:41";
paths = (
{
closed = 1;
nodes = (
"614 -10 OFFCURVE",
"691 46 OFFCURVE",
"725 124 CURVE",
"725 145 LINE",
"722 145 LINE",
"680 124 OFFCURVE",
"637 119 OFFCURVE",
"598 119 CURVE SMOOTH",
"500 119 OFFCURVE",
"454 171 OFFCURVE",
"454 247 CURVE SMOOTH",
"454 359 OFFCURVE",
"479 425 OFFCURVE",
"523 425 CURVE SMOOTH",
"562 425 OFFCURVE",
"585 396 OFFCURVE",
"591 294 CURVE",
"647 306 LINE",
"390 306 LINE",
"390 262 LINE",
"721 262 LINE",
"724 267 LINE",
"722 395 OFFCURVE",
"661 470 OFFCURVE",
"551 470 CURVE SMOOTH",
"480 470 OFFCURVE",
"416 446 OFFCURVE",
"369 405 CURVE",
"437 405 LINE",
"403 449 OFFCURVE",
"337 470 OFFCURVE",
"258 470 CURVE SMOOTH",
"207 470 OFFCURVE",
"169 460 OFFCURVE",
"115 427 CURVE SMOOTH",
"73 402 OFFCURVE",
"44 375 OFFCURVE",
"44 346 CURVE SMOOTH",
"44 323 OFFCURVE",
"51 313 OFFCURVE",
"71 313 CURVE SMOOTH",
"147 313 LINE",
"150 317 LINE",
"150 375 LINE SMOOTH",
"150 405 OFFCURVE",
"167 418 OFFCURVE",
"205 418 CURVE SMOOTH",
"254 418 OFFCURVE",
"282 388 OFFCURVE",
"282 333 CURVE SMOOTH",
"282 209 LINE SMOOTH",
"282 77 OFFCURVE",
"370 -10 OFFCURVE",
"513 -10 CURVE SMOOTH"
);
},
{
closed = 1;
nodes = (
"223 -9 OFFCURVE",
"274 28 OFFCURVE",
"311 77 CURVE",
"330 77 LINE",
"330 112 LINE",
"307 97 OFFCURVE",
"281 84 OFFCURVE",
"253 84 CURVE SMOOTH",
"216 84 OFFCURVE",
"192 105 OFFCURVE",
"192 147 CURVE SMOOTH",
"192 204 OFFCURVE",
"227 224 OFFCURVE",
"314 240 CURVE",
"314 287 LINE",
"188 254 LINE SMOOTH",
"54 219 OFFCURVE",
"25 190 OFFCURVE",
"25 113 CURVE SMOOTH",
"25 34 OFFCURVE",
"82 -9 OFFCURVE",
"148 -9 CURVE SMOOTH"
);
}
);
visible = 1;
width = 755;
}
);
leftKerningGroup = kernLC_a2;
rightKerningGroup = kernLC_e1;
unicode = 00E6;
},
{
color = 5;
glyphname = b;
layers = (
{
layerId = m01;
paths = (
{
closed = 1;
nodes = (
"130 0 OFFCURVE",
"158 13 OFFCURVE",
"169 13 CURVE SMOOTH",
"180 13 OFFCURVE",
"222 -10 OFFCURVE",
"277 -10 CURVE SMOOTH",
"409 -10 OFFCURVE",
"511 83 OFFCURVE",
"511 247 CURVE SMOOTH",
"511 379 OFFCURVE",
"438 460 OFFCURVE",
"337 460 CURVE SMOOTH",
"252 460 OFFCURVE",
"206 418 OFFCURVE",
"191 418 CURVE SMOOTH",
"184 418 OFFCURVE",
"183 422 OFFCURVE",
"183 432 CURVE SMOOTH",
"183 738 LINE SMOOTH",
"183 745 OFFCURVE",
"179 747 OFFCURVE",
"175 747 CURVE SMOOTH",
"171 747 OFFCURVE",
"165 745 OFFCURVE",
"155 741 CURVE SMOOTH",
"55 700 LINE SMOOTH",
"48 697 OFFCURVE",
"46 695 OFFCURVE",
"46 691 CURVE SMOOTH",
"46 686 OFFCURVE",
"50 682 OFFCURVE",
"57 676 CURVE SMOOTH",
"95 643 LINE SMOOTH",
"103 636 OFFCURVE",
"103 628 OFFCURVE",
"103 616 CURVE SMOOTH",
"103 18 LINE SMOOTH",
"103 7 OFFCURVE",
"107 0 OFFCURVE",
"117 0 CURVE SMOOTH"
);
},
{
closed = 1;
nodes = (
"257 38 OFFCURVE",
"218 52 OFFCURVE",
"196 69 CURVE SMOOTH",
"183 79 OFFCURVE",
"183 87 OFFCURVE",
"183 99 CURVE SMOOTH",
"183 341 LINE SMOOTH",
"183 353 OFFCURVE",
"183 361 OFFCURVE",
"193 367 CURVE SMOOTH",
"220 384 OFFCURVE",
"258 391 OFFCURVE",
"282 391 CURVE SMOOTH",
"364 391 OFFCURVE",
"431 340 OFFCURVE",
"431 224 CURVE SMOOTH",
"431 90 OFFCURVE",
"372 38 OFFCURVE",
"303 38 CURVE SMOOTH"
);
}
);
width = 560;
},
{
layerId = m002;
paths = (
{
closed = 1;
nodes = (
"107 0 OFFCURVE",
"170 28 OFFCURVE",
"189 28 CURVE SMOOTH",
"203 28 OFFCURVE",
"231 -10 OFFCURVE",
"335 -10 CURVE SMOOTH",
"453 -10 OFFCURVE",
"571 83 OFFCURVE",
"571 247 CURVE SMOOTH",
"571 379 OFFCURVE",
"495 470 OFFCURVE",
"404 470 CURVE SMOOTH",
"320 470 OFFCURVE",
"280 416 OFFCURVE",
"267 416 CURVE SMOOTH",
"262 416 OFFCURVE",
"261 419 OFFCURVE",
"261 424 CURVE SMOOTH",
"261 739 LINE SMOOTH",
"261 746 OFFCURVE",
"257 750 OFFCURVE",
"252 750 CURVE SMOOTH",
"246 750 OFFCURVE",
"234 747 OFFCURVE",
"216 743 CURVE SMOOTH",
"26 698 LINE SMOOTH",
"21 697 OFFCURVE",
"15 693 OFFCURVE",
"15 687 CURVE SMOOTH",
"15 681 OFFCURVE",
"18 677 OFFCURVE",
"26 672 CURVE SMOOTH",
"72 642 LINE SMOOTH",
"81 636 OFFCURVE",
"81 632 OFFCURVE",
"81 620 CURVE SMOOTH",
"81 14 LINE SMOOTH",
"81 7 OFFCURVE",
"82 0 OFFCURVE",
"89 0 CURVE SMOOTH"
);
},
{
closed = 1;
nodes = (
"290 45 OFFCURVE",
"276 52 OFFCURVE",
"270 59 CURVE SMOOTH",
"261 71 OFFCURVE",
"261 78 OFFCURVE",
"261 90 CURVE SMOOTH",
"261 345 LINE SMOOTH",
"261 354 OFFCURVE",
"261 362 OFFCURVE",
"270 369 CURVE SMOOTH",
"277 374 OFFCURVE",
"288 379 OFFCURVE",
"302 379 CURVE SMOOTH",
"354 379 OFFCURVE",
"391 317 OFFCURVE",
"391 224 CURVE SMOOTH",
"391 140 OFFCURVE",
"375 45 OFFCURVE",
"308 45 CURVE SMOOTH"
);
}
);
width = 596;
},
{
associatedMasterId = m01;
layerId = "B1092EFD-99FD-451A-A7A7-6B76B505DF90";
name = "Jan 17, 22, 19:24";
paths = (
{
closed = 1;
nodes = (
"109 -10 LINE",
"183 65 LINE",
"183 750 LINE",
"177 750 LINE",
"43 695 LINE",
"43 688 LINE",
"103 636 LINE",
"103 -10 LINE"
);
},
{
closed = 1;
nodes = (
"409 -10 OFFCURVE",
"511 83 OFFCURVE",
"511 247 CURVE SMOOTH",
"511 379 OFFCURVE",
"438 460 OFFCURVE",
"337 460 CURVE SMOOTH",
"283 460 OFFCURVE",
"238 441 OFFCURVE",
"187 398 CURVE",
"173 398 LINE",
"173 354 LINE",
"207 379 OFFCURVE",
"246 391 OFFCURVE",
"282 391 CURVE SMOOTH",
"364 391 OFFCURVE",
"431 340 OFFCURVE",
"431 224 CURVE SMOOTH",
"431 90 OFFCURVE",
"372 38 OFFCURVE",
"303 38 CURVE SMOOTH",
"252 38 OFFCURVE",
"214 51 OFFCURVE",
"173 88 CURVE",
"123 20 LINE",
"166 3 OFFCURVE",
"217 -10 OFFCURVE",
"277 -10 CURVE SMOOTH"
);
}
);
visible = 1;
width = 560;
},
{
associatedMasterId = m002;
layerId = "08F0084B-19EC-422B-9E8C-445229F6F527";
name = "Jan 17, 22, 20:34";
paths = (
{
closed = 1;
nodes = (
"97 0 LINE",
"261 58 LINE",
"261 750 LINE",
"245 750 LINE",
"15 695 LINE",
"15 679 LINE",
"81 636 LINE",
"81 0 LINE"
);
},
{
closed = 1;
nodes = (
"459 -10 OFFCURVE",
"571 90 OFFCURVE",
"571 247 CURVE SMOOTH",
"571 385 OFFCURVE",
"489 470 OFFCURVE",
"407 470 CURVE SMOOTH",
"356 470 OFFCURVE",
"314 453 OFFCURVE",
"267 412 CURVE",
"249 412 LINE",
"249 359 LINE",
"274 372 OFFCURVE",
"284 379 OFFCURVE",
"307 379 CURVE SMOOTH",
"346 379 OFFCURVE",
"391 328 OFFCURVE",
"391 220 CURVE SMOOTH",
"391 74 OFFCURVE",
"344 45 OFFCURVE",
"306 45 CURVE SMOOTH",
"283 45 OFFCURVE",
"263 59 OFFCURVE",
"259 77 CURVE",
"189 37 LINE",
"233 -1 OFFCURVE",
"279 -10 OFFCURVE",
"335 -10 CURVE SMOOTH"
);
}
);
width = 596;
}
);
leftKerningGroup = kern_b2;
rightKerningGroup = kernLC_o1;
unicode = 0062;
},
{
color = 5;
glyphname = c;
layers = (
{
anchors = (
{
name = bottom;
position = "{260, 0}";
},
{
name = top;
position = "{264, 510}";
}
);
layerId = m01;
paths = (
{
closed = 1;
nodes = (
"376 -10 OFFCURVE",
"434 79 OFFCURVE",
"434 95 CURVE SMOOTH",
"434 99 OFFCURVE",
"431 102 OFFCURVE",
"427 102 CURVE SMOOTH",
"416 102 OFFCURVE",
"369 65 OFFCURVE",
"302 65 CURVE SMOOTH",
"171 65 OFFCURVE",
"129 155 OFFCURVE",
"129 251 CURVE SMOOTH",
"129 355 OFFCURVE",
"174 416 OFFCURVE",
"247 416 CURVE SMOOTH",
"306 416 OFFCURVE",
"311 389 OFFCURVE",
"317 369 CURVE SMOOTH",
"325 344 OFFCURVE",
"337 317 OFFCURVE",
"377 317 CURVE SMOOTH",
"411 317 OFFCURVE",
"432 345 OFFCURVE",
"432 375 CURVE SMOOTH",
"432 422 OFFCURVE",
"363 460 OFFCURVE",
"280 460 CURVE SMOOTH",
"150 460 OFFCURVE",
"50 354 OFFCURVE",
"50 205 CURVE SMOOTH",
"50 75 OFFCURVE",
"130 -10 OFFCURVE",
"259 -10 CURVE SMOOTH"
);
}
);
width = 479;
},
{
anchors = (
{
name = bottom;
position = "{273, 0}";
},
{
name = top;
position = "{274, 510}";
}
);
layerId = m002;
paths = (
{
closed = 1;
nodes = (
"390 -10 OFFCURVE",
"458 108 OFFCURVE",
"458 129 CURVE SMOOTH",
"458 136 OFFCURVE",
"454 140 OFFCURVE",
"448 140 CURVE SMOOTH",
"436 140 OFFCURVE",
"406 119 OFFCURVE",
"339 119 CURVE SMOOTH",
"258 119 OFFCURVE",
"203 155 OFFCURVE",
"203 251 CURVE SMOOTH",
"203 355 OFFCURVE",
"224 426 OFFCURVE",
"277 426 CURVE SMOOTH",
"308 426 OFFCURVE",
"314 404 OFFCURVE",
"318 378 CURVE SMOOTH",
"324 337 OFFCURVE",
"349 307 OFFCURVE",
"388 307 CURVE SMOOTH",
"431 307 OFFCURVE",
"458 337 OFFCURVE",
"458 378 CURVE SMOOTH",
"458 427 OFFCURVE",
"396 470 OFFCURVE",
"280 470 CURVE SMOOTH",
"130 470 OFFCURVE",
"30 358 OFFCURVE",
"30 205 CURVE SMOOTH",
"30 75 OFFCURVE",
"130 -10 OFFCURVE",
"259 -10 CURVE SMOOTH"
);
}
);
width = 488;
},
{
anchors = (
{
name = bottom;
position = "{260, 0}";
},
{
name = top;
position = "{264, 510}";
}
);
associatedMasterId = m01;
layerId = "3C317697-B611-471C-9056-CA6040938381";
name = "Jan 27, 22, 17:37";
paths = (
{
closed = 1;
nodes = (
"340 -10 OFFCURVE",
"403 37 OFFCURVE",
"434 95 CURVE",
"434 105 LINE",
"431 105 LINE",
"381 78 OFFCURVE",
"339 65 OFFCURVE",
"302 65 CURVE SMOOTH",
"171 65 OFFCURVE",
"129 155 OFFCURVE",
"129 251 CURVE SMOOTH",
"129 355 OFFCURVE",
"174 416 OFFCURVE",
"247 416 CURVE SMOOTH",
"291 416 OFFCURVE",
"320 398 OFFCURVE",
"340 371 CURVE SMOOTH",
"374 325 LINE",
"381 325 LINE",
"419 357 LINE SMOOTH",
"429 365 OFFCURVE",
"432 371 OFFCURVE",
"432 381 CURVE SMOOTH",
"432 389 OFFCURVE",
"427 398 OFFCURVE",
"416 411 CURVE SMOOTH",
"390 440 OFFCURVE",
"334 460 OFFCURVE",
"280 460 CURVE SMOOTH",
"150 460 OFFCURVE",
"50 354 OFFCURVE",
"50 205 CURVE SMOOTH",
"50 75 OFFCURVE",
"130 -10 OFFCURVE",
"259 -10 CURVE SMOOTH"
);
},
{
closed = 1;
nodes = (
"407 317 OFFCURVE",
"432 342 OFFCURVE",
"432 374 CURVE SMOOTH",
"432 405 OFFCURVE",
"407 430 OFFCURVE",
"376 430 CURVE SMOOTH",
"344 430 OFFCURVE",
"319 405 OFFCURVE",
"319 374 CURVE SMOOTH",
"319 342 OFFCURVE",
"344 317 OFFCURVE",
"376 317 CURVE SMOOTH"
);
}
);
width = 479;
},
{
anchors = (
{
name = bottom;
position = "{273, 0}";
},
{
name = top;
position = "{274, 510}";
}
);
associatedMasterId = m002;
layerId = "D7003349-0C18-4DD7-A14C-B57528CD900F";
name = "Jan 27, 22, 17:59";
paths = (
{
closed = 1;
nodes = (
"350 -10 OFFCURVE",
"425 47 OFFCURVE",
"458 124 CURVE",
"458 145 LINE",
"455 145 LINE",
"413 124 OFFCURVE",
"370 119 OFFCURVE",
"331 119 CURVE SMOOTH",
"243 119 OFFCURVE",
"202 176 OFFCURVE",
"202 257 CURVE SMOOTH",
"202 356 OFFCURVE",
"225 426 OFFCURVE",
"279 426 CURVE SMOOTH",
"311 426 OFFCURVE",
"324 407 OFFCURVE",
"349 372 CURVE SMOOTH",
"384 322 LINE",
"391 322 LINE",
"444 367 LINE SMOOTH",
"454 376 OFFCURVE",
"456 381 OFFCURVE",
"456 391 CURVE SMOOTH",
"456 399 OFFCURVE",
"452 408 OFFCURVE",
"441 421 CURVE SMOOTH",
"414 451 OFFCURVE",
"362 470 OFFCURVE",
"295 470 CURVE SMOOTH",
"131 470 OFFCURVE",
"30 362 OFFCURVE",
"30 209 CURVE SMOOTH",
"30 77 OFFCURVE",
"122 -10 OFFCURVE",
"251 -10 CURVE SMOOTH"
);
},
{
closed = 1;
nodes = (
"428 307 OFFCURVE",
"458 337 OFFCURVE",
"458 375 CURVE SMOOTH",
"458 413 OFFCURVE",
"428 443 OFFCURVE",
"390 443 CURVE SMOOTH",
"352 443 OFFCURVE",
"322 413 OFFCURVE",
"322 375 CURVE SMOOTH",
"322 337 OFFCURVE",
"352 307 OFFCURVE",
"390 307 CURVE SMOOTH"
);
}
);
visible = 1;
width = 488;
}
);
leftKerningGroup = kernLC_o2;
rightKerningGroup = kernLC_c1;
unicode = 0063;
},
{
color = 5;
glyphname = ccedilla;
layers = (
{
layerId = m01;
paths = (
{
closed = 1;
nodes = (
"315 -240 OFFCURVE",
"357 -211 OFFCURVE",
"357 -157 CURVE SMOOTH",
"357 -71 OFFCURVE",
"258 -60 OFFCURVE",
"258 -53 CURVE SMOOTH",
"258 -48 OFFCURVE",
"261 -40 OFFCURVE",
"265 -30 CURVE SMOOTH",
"271 -15 OFFCURVE",
"276 -10 OFFCURVE",
"282 -9 CURVE SMOOTH",
"384 7 OFFCURVE",
"434 81 OFFCURVE",
"434 94 CURVE SMOOTH",
"434 99 OFFCURVE",
"431 102 OFFCURVE",
"426 102 CURVE SMOOTH",
"416 102 OFFCURVE",
"369 65 OFFCURVE",
"302 65 CURVE SMOOTH",
"171 65 OFFCURVE",
"129 155 OFFCURVE",
"129 251 CURVE SMOOTH",
"129 355 OFFCURVE",
"174 416 OFFCURVE",
"247 416 CURVE SMOOTH",
"340 416 OFFCURVE",
"340 325 OFFCURVE",
"378 325 CURVE SMOOTH",
"413 325 OFFCURVE",
"432 362 OFFCURVE",
"432 381 CURVE SMOOTH",
"432 417 OFFCURVE",
"363 460 OFFCURVE",
"280 460 CURVE SMOOTH",
"150 460 OFFCURVE",
"50 354 OFFCURVE",
"50 205 CURVE SMOOTH",
"50 86 OFFCURVE",
"111 7 OFFCURVE",
"227 -8 CURVE SMOOTH",
"231 -9 OFFCURVE",
"235 -12 OFFCURVE",
"235 -15 CURVE SMOOTH",
"235 -21 OFFCURVE",
"196 -87 OFFCURVE",
"196 -102 CURVE SMOOTH",
"196 -114 OFFCURVE",
"297 -118 OFFCURVE",
"297 -173 CURVE SMOOTH",
"297 -194 OFFCURVE",
"276 -210 OFFCURVE",
"251 -210 CURVE SMOOTH",
"207 -210 OFFCURVE",
"190 -199 OFFCURVE",
"184 -199 CURVE SMOOTH",
"179 -199 OFFCURVE",
"177 -201 OFFCURVE",
"177 -206 CURVE SMOOTH",
"177 -223 OFFCURVE",
"227 -240 OFFCURVE",
"252 -240 CURVE SMOOTH"
);
}
);
width = 479;
},
{
layerId = m002;
paths = (
{
closed = 1;
nodes = (
"337 -240 OFFCURVE",
"380 -200 OFFCURVE",
"380 -146 CURVE SMOOTH",
"380 -49 OFFCURVE",
"281 -41 OFFCURVE",
"281 -34 CURVE SMOOTH",
"281 -29 OFFCURVE",
"282 -26 OFFCURVE",
"286 -16 CURVE SMOOTH",
"289 -8 OFFCURVE",
"296 -4 OFFCURVE",
"302 -3 CURVE SMOOTH",
"404 13 OFFCURVE",
"458 112 OFFCURVE",
"458 131 CURVE SMOOTH",
"458 138 OFFCURVE",
"454 142 OFFCURVE",
"447 142 CURVE SMOOTH",
"437 142 OFFCURVE",
"408 119 OFFCURVE",
"341 119 CURVE SMOOTH",
"249 119 OFFCURVE",
"202 163 OFFCURVE",
"202 259 CURVE SMOOTH",
"202 363 OFFCURVE",
"228 426 OFFCURVE",
"281 426 CURVE SMOOTH",
"347 426 OFFCURVE",
"350 322 OFFCURVE",
"388 322 CURVE SMOOTH",
"423 322 OFFCURVE",
"456 367 OFFCURVE",
"456 386 CURVE SMOOTH",
"456 422 OFFCURVE",
"406 470 OFFCURVE",
"291 470 CURVE SMOOTH",
"123 470 OFFCURVE",
"30 354 OFFCURVE",
"30 205 CURVE SMOOTH",
"30 86 OFFCURVE",
"107 3 OFFCURVE",
"236 -11 CURVE SMOOTH",
"240 -11 OFFCURVE",
"244 -15 OFFCURVE",
"244 -18 CURVE SMOOTH",
"244 -24 OFFCURVE",
"207 -90 OFFCURVE",
"207 -101 CURVE SMOOTH",
"207 -111 OFFCURVE",
"303 -113 OFFCURVE",
"303 -171 CURVE SMOOTH",
"303 -196 OFFCURVE",
"279 -208 OFFCURVE",
"251 -208 CURVE SMOOTH",
"207 -208 OFFCURVE",
"204 -199 OFFCURVE",
"198 -199 CURVE SMOOTH",
"192 -199 OFFCURVE",
"190 -203 OFFCURVE",
"190 -208 CURVE SMOOTH",
"190 -225 OFFCURVE",
"229 -240 OFFCURVE",
"264 -240 CURVE SMOOTH"
);
}
);
width = 488;
},
{
associatedMasterId = m01;
layerId = "C4A4E73E-2EAF-4BF8-A17A-363554F041EA";
name = "Dec 21, 21, 22:18";
paths = (
{
closed = 1;
nodes = (
"340 -10 OFFCURVE",
"403 37 OFFCURVE",
"434 95 CURVE",
"434 105 LINE",
"431 105 LINE",
"381 78 OFFCURVE",
"339 65 OFFCURVE",
"302 65 CURVE SMOOTH",
"171 65 OFFCURVE",
"129 155 OFFCURVE",
"129 251 CURVE SMOOTH",
"129 355 OFFCURVE",
"174 416 OFFCURVE",
"247 416 CURVE SMOOTH",
"291 416 OFFCURVE",
"320 398 OFFCURVE",
"340 371 CURVE SMOOTH",
"374 325 LINE",
"381 325 LINE",
"419 357 LINE SMOOTH",
"429 365 OFFCURVE",
"432 371 OFFCURVE",
"432 381 CURVE SMOOTH",
"432 389 OFFCURVE",
"427 398 OFFCURVE",
"416 411 CURVE SMOOTH",
"390 440 OFFCURVE",
"334 460 OFFCURVE",
"280 460 CURVE SMOOTH",
"150 460 OFFCURVE",
"50 354 OFFCURVE",
"50 205 CURVE SMOOTH",
"50 75 OFFCURVE",
"130 -10 OFFCURVE",
"259 -10 CURVE SMOOTH"
);
},
{
closed = 1;
nodes = (
"216 -210 OFFCURVE",
"198 -206 OFFCURVE",
"180 -198 CURVE",
"177 -198 LINE",
"177 -210 LINE",
"195 -231 OFFCURVE",
"223 -240 OFFCURVE",
"260 -240 CURVE",
"323 -240 OFFCURVE",
"357 -203 OFFCURVE",
"357 -155 CURVE SMOOTH",
"357 -98 OFFCURVE",
"325 -75 OFFCURVE",
"234 -49 CURVE",
"247 -69 LINE",
"288 20 LINE",
"253 20 LINE",
"196 -103 LINE",
"275 -128 OFFCURVE",
"297 -142 OFFCURVE",
"297 -171 CURVE SMOOTH",
"297 -192 OFFCURVE",
"283 -210 OFFCURVE",
"243 -210 CURVE SMOOTH"
);
}
);
width = 479;
},
{
associatedMasterId = m002;
layerId = "1A27C41C-6FAC-4A10-8B52-5538170654D1";
name = "Dec 21, 21, 22:18";
paths = (
{
closed = 1;
nodes = (
"350 -10 OFFCURVE",
"425 47 OFFCURVE",
"458 124 CURVE",
"458 145 LINE",
"455 145 LINE",
"413 124 OFFCURVE",
"370 119 OFFCURVE",
"331 119 CURVE SMOOTH",
"243 119 OFFCURVE",
"202 176 OFFCURVE",
"202 257 CURVE SMOOTH",
"202 356 OFFCURVE",
"225 426 OFFCURVE",
"279 426 CURVE SMOOTH",
"317 426 OFFCURVE",
"325 402 OFFCURVE",
"351 367 CURVE SMOOTH",
"384 322 LINE",
"391 322 LINE",
"444 367 LINE SMOOTH",
"454 376 OFFCURVE",
"456 381 OFFCURVE",
"456 391 CURVE SMOOTH",
"456 399 OFFCURVE",
"452 408 OFFCURVE",
"441 421 CURVE SMOOTH",
"414 451 OFFCURVE",
"362 470 OFFCURVE",
"295 470 CURVE SMOOTH",
"131 470 OFFCURVE",
"30 362 OFFCURVE",
"30 209 CURVE SMOOTH",
"30 77 OFFCURVE",
"122 -10 OFFCURVE",
"251 -10 CURVE SMOOTH"
);
},
{
closed = 1;
nodes = (
"231 -208 OFFCURVE",
"209 -205 OFFCURVE",
"194 -197 CURVE",
"190 -197 LINE",
"190 -220 LINE",
"211 -233 OFFCURVE",
"236 -240 OFFCURVE",
"270 -240 CURVE SMOOTH",
"335 -240 OFFCURVE",
"380 -200 OFFCURVE",
"380 -143 CURVE SMOOTH",
"380 -85 OFFCURVE",
"348 -51 OFFCURVE",
"248 -27 CURVE",
"265 -61 LINE",
"305 27 LINE",
"265 27 LINE",
"206 -103 LINE",
"285 -122 OFFCURVE",
"303 -142 OFFCURVE",
"303 -170 CURVE SMOOTH",
"303 -196 OFFCURVE",
"281 -208 OFFCURVE",
"247 -208 CURVE SMOOTH"
);
}
);
visible = 1;
width = 488;
}
);
leftKerningGroup = kernLC_o2;
rightKerningGroup = kernLC_c1;
unicode = 00E7;
},
{
color = 5;
glyphname = d;
layers = (
{
anchors = (
{
name = bottom;
position = "{271, 0}";
},
{
name = right;
position = "{577, 740}";
}
);
layerId = m01;
paths = (
{
closed = 1;
nodes = (
"312 -10 OFFCURVE",
"347 44 OFFCURVE",
"364 44 CURVE SMOOTH",
"375 44 OFFCURVE",
"377 0 OFFCURVE",
"393 0 CURVE SMOOTH",
"429 0 OFFCURVE",
"476 -5 OFFCURVE",
"501 -5 CURVE SMOOTH",
"515 -5 OFFCURVE",
"523 0 OFFCURVE",
"523 11 CURVE SMOOTH",
"523 28 OFFCURVE",
"452 30 OFFCURVE",
"452 62 CURVE",
"452 730 LINE SMOOTH",
"452 746 OFFCURVE",
"446 750 OFFCURVE",
"437 750 CURVE SMOOTH",
"424 750 OFFCURVE",
"307 708 OFFCURVE",
"307 690 CURVE SMOOTH",
"307 672 OFFCURVE",
"372 652 OFFCURVE",
"372 626 CURVE SMOOTH",
"372 469 LINE SMOOTH",
"372 459 OFFCURVE",
"369 454 OFFCURVE",
"362 454 CURVE SMOOTH",
"354 454 OFFCURVE",
"329 460 OFFCURVE",
"285 460 CURVE SMOOTH",
"155 460 OFFCURVE",
"44 364 OFFCURVE",
"44 194 CURVE SMOOTH",
"44 68 OFFCURVE",
"117 -10 OFFCURVE",
"218 -10 CURVE SMOOTH"
);
},
{
closed = 1;
nodes = (
"191 59 OFFCURVE",
"124 107 OFFCURVE",
"124 217 CURVE SMOOTH",
"124 357 OFFCURVE",
"192 411 OFFCURVE",
"272 411 CURVE SMOOTH",
"311 411 OFFCURVE",
"372 385 OFFCURVE",
"372 351 CURVE SMOOTH",
"372 109 LINE SMOOTH",
"372 71 OFFCURVE",
"306 59 OFFCURVE",
"273 59 CURVE SMOOTH"
);
}
);
width = 559;
},
{
anchors = (
{
name = bottom;
position = "{303, 0}";
},
{
name = right;
position = "{635, 740}";
}
);
layerId = m002;
paths = (
{
closed = 1;
nodes = (
"271 -10 OFFCURVE",
"312 44 OFFCURVE",
"332 44 CURVE SMOOTH",
"343 44 OFFCURVE",
"344 0 OFFCURVE",
"360 0 CURVE SMOOTH",
"396 0 OFFCURVE",
"539 -5 OFFCURVE",
"564 -5 CURVE SMOOTH",
"578 -5 OFFCURVE",
"586 0 OFFCURVE",
"586 11 CURVE SMOOTH",
"586 28 OFFCURVE",
"515 30 OFFCURVE",
"515 62 CURVE",
"515 730 LINE SMOOTH",
"515 746 OFFCURVE",
"509 750 OFFCURVE",
"500 750 CURVE SMOOTH",
"487 750 OFFCURVE",
"265 706 OFFCURVE",
"265 688 CURVE SMOOTH",
"265 670 OFFCURVE",
"335 652 OFFCURVE",
"335 626 CURVE SMOOTH",
"335 475 LINE SMOOTH",
"335 465 OFFCURVE",
"332 460 OFFCURVE",
"325 460 CURVE SMOOTH",
"317 460 OFFCURVE",
"289 470 OFFCURVE",
"255 470 CURVE SMOOTH",
"125 470 OFFCURVE",
"24 371 OFFCURVE",
"24 194 CURVE SMOOTH",
"24 68 OFFCURVE",
"101 -10 OFFCURVE",
"211 -10 CURVE SMOOTH"
);
},
{
closed = 1;
nodes = (
"246 82 OFFCURVE",
"205 127 OFFCURVE",
"205 237 CURVE SMOOTH",
"205 377 OFFCURVE",
"241 415 OFFCURVE",
"287 415 CURVE SMOOTH",
"326 415 OFFCURVE",
"336 396 OFFCURVE",
"336 362 CURVE SMOOTH",
"336 114 LINE SMOOTH",
"336 92 OFFCURVE",
"314 82 OFFCURVE",
"288 82 CURVE SMOOTH"
);
}
);
width = 599;
}
);
leftKerningGroup = kernLC_o2;
rightKerningGroup = kernLC_l1;
unicode = 0064;
},
{
color = 5;
glyphname = eth;
layers = (
{
layerId = m01;
paths = (
{
closed = 1;
nodes = (
"405 -10 OFFCURVE",
"495 103 OFFCURVE",
"495 259 CURVE SMOOTH",
"495 405 OFFCURVE",
"436 533 OFFCURVE",
"333 627 CURVE SMOOTH",
"329 630 OFFCURVE",
"326 633 OFFCURVE",
"326 636 CURVE SMOOTH",
"326 640 OFFCURVE",
"329 643 OFFCURVE",
"335 649 CURVE SMOOTH",
"414 726 LINE SMOOTH",
"418 730 OFFCURVE",
"421 733 OFFCURVE",
"421 737 CURVE SMOOTH",
"421 740 OFFCURVE",
"418 741 OFFCURVE",
"414 741 CURVE SMOOTH",
"374 741 LINE SMOOTH",
"365 741 OFFCURVE",
"355 736 OFFCURVE",
"349 730 CURVE SMOOTH",
"294 677 LINE SMOOTH",
"290 673 OFFCURVE",
"287 670 OFFCURVE",
"283 670 CURVE SMOOTH",
"279 670 OFFCURVE",
"274 672 OFFCURVE",
"269 676 CURVE SMOOTH",
"239 699 OFFCURVE",
"138 747 OFFCURVE",
"116 747 CURVE SMOOTH",
"113 747 OFFCURVE",
"112 743 OFFCURVE",
"112 740 CURVE SMOOTH",
"112 725 LINE SMOOTH",
"112 717 OFFCURVE",
"118 714 OFFCURVE",
"121 713 CURVE SMOOTH",
"173 691 OFFCURVE",
"203 677 OFFCURVE",
"239 646 CURVE SMOOTH",
"246 640 OFFCURVE",
"247 637 OFFCURVE",
"247 634 CURVE SMOOTH",
"247 631 OFFCURVE",
"244 627 OFFCURVE",
"241 624 CURVE SMOOTH",
"156 541 LINE SMOOTH",
"150 535 OFFCURVE",
"147 532 OFFCURVE",
"147 528 CURVE SMOOTH",
"147 525 OFFCURVE",
"149 523 OFFCURVE",
"153 523 CURVE SMOOTH",
"191 523 LINE SMOOTH",
"202 523 OFFCURVE",
"214 530 OFFCURVE",
"222 538 CURVE SMOOTH",
"276 591 LINE SMOOTH",
"281 596 OFFCURVE",
"284 597 OFFCURVE",
"286 597 CURVE SMOOTH",
"288 597 OFFCURVE",
"291 595 OFFCURVE",
"294 591 CURVE SMOOTH",
"322 558 OFFCURVE",
"329 541 OFFCURVE",
"351 500 CURVE SMOOTH",
"365 474 OFFCURVE",
"367 465 OFFCURVE",
"367 460 CURVE SMOOTH",
"367 455 OFFCURVE",
"362 454 OFFCURVE",
"357 455 CURVE SMOOTH",
"338 458 OFFCURVE",
"316 460 OFFCURVE",
"289 460 CURVE SMOOTH",
"160 460 OFFCURVE",
"50 378 OFFCURVE",
"50 215 CURVE SMOOTH",
"50 91 OFFCURVE",
"139 -10 OFFCURVE",
"270 -10 CURVE SMOOTH"
);
},
{
closed = 1;
nodes = (
"182 33 OFFCURVE",
"140 141 OFFCURVE",
"140 226 CURVE SMOOTH",
"140 368 OFFCURVE",
"203 411 OFFCURVE",
"276 411 CURVE SMOOTH",
"323 411 OFFCURVE",
"367 386 OFFCURVE",
"384 358 CURVE SMOOTH",
"394 342 OFFCURVE",
"402 296 OFFCURVE",
"402 264 CURVE SMOOTH",
"402 102 OFFCURVE",
"346 33 OFFCURVE",
"280 33 CURVE SMOOTH"
);
}
);
width = 545;
},
{
layerId = m002;
paths = (
{
closed = 1;
nodes = (
"405 -10 OFFCURVE",
"532 80 OFFCURVE",
"532 259 CURVE SMOOTH",
"532 405 OFFCURVE",
"467 532 OFFCURVE",
"331 631 CURVE SMOOTH",
"327 634 OFFCURVE",
"323 637 OFFCURVE",
"323 640 CURVE SMOOTH",
"323 644 OFFCURVE",
"327 648 OFFCURVE",
"333 653 CURVE SMOOTH",
"417 726 LINE SMOOTH",
"421 729 OFFCURVE",
"424 733 OFFCURVE",
"424 737 CURVE SMOOTH",
"424 740 OFFCURVE",
"421 741 OFFCURVE",
"417 741 CURVE SMOOTH",
"371 741 LINE SMOOTH",
"362 741 OFFCURVE",
"353 737 OFFCURVE",
"346 730 CURVE SMOOTH",
"286 677 LINE SMOOTH",
"282 673 OFFCURVE",
"280 671 OFFCURVE",
"276 671 CURVE SMOOTH",
"272 671 OFFCURVE",
"267 673 OFFCURVE",
"262 676 CURVE SMOOTH",
"229 697 OFFCURVE",
"88 748 OFFCURVE",
"66 748 CURVE SMOOTH",
"63 748 OFFCURVE",
"62 744 OFFCURVE",
"62 741 CURVE SMOOTH",
"62 708 LINE SMOOTH",
"62 700 OFFCURVE",
"68 697 OFFCURVE",
"71 696 CURVE SMOOTH",
"123 676 OFFCURVE",
"167 656 OFFCURVE",
"204 625 CURVE SMOOTH",
"210 620 OFFCURVE",
"212 618 OFFCURVE",
"212 615 CURVE SMOOTH",
"212 612 OFFCURVE",
"210 610 OFFCURVE",
"207 607 CURVE SMOOTH",
"133 541 LINE SMOOTH",
"127 536 OFFCURVE",
"124 532 OFFCURVE",
"124 528 CURVE SMOOTH",
"124 525 OFFCURVE",
"126 523 OFFCURVE",
"130 523 CURVE SMOOTH",
"178 523 LINE SMOOTH",
"186 523 OFFCURVE",
"192 526 OFFCURVE",
"201 534 CURVE SMOOTH",
"243 571 LINE SMOOTH",
"247 575 OFFCURVE",
"250 577 OFFCURVE",
"252 577 CURVE SMOOTH",
"254 577 OFFCURVE",
"258 573 OFFCURVE",
"260 570 CURVE SMOOTH",
"265 563 OFFCURVE",
"277 549 OFFCURVE",
"298 511 CURVE SMOOTH",
"312 485 OFFCURVE",
"313 478 OFFCURVE",
"313 473 CURVE SMOOTH",
"313 470 OFFCURVE",
"309 466 OFFCURVE",
"304 467 CURVE SMOOTH",
"292 470 OFFCURVE",
"277 470 OFFCURVE",
"269 470 CURVE SMOOTH",
"140 470 OFFCURVE",
"25 378 OFFCURVE",
"25 215 CURVE SMOOTH",
"25 91 OFFCURVE",
"139 -10 OFFCURVE",
"270 -10 CURVE SMOOTH"
);
},
{
closed = 1;
nodes = (
"220 44 OFFCURVE",
"205 141 OFFCURVE",
"205 226 CURVE SMOOTH",
"205 368 OFFCURVE",
"228 418 OFFCURVE",
"276 418 CURVE SMOOTH",
"319 418 OFFCURVE",
"332 383 OFFCURVE",
"336 370 CURVE SMOOTH",
"339 360 OFFCURVE",
"347 296 OFFCURVE",
"347 264 CURVE SMOOTH",
"347 102 OFFCURVE",
"327 44 OFFCURVE",
"280 44 CURVE SMOOTH"
);
}
);
width = 557;
},
{
associatedMasterId = m01;
layerId = "E5878F48-0911-476F-B415-7A18AD531CC2";
name = "Dec 22, 21, 11:54";
paths = (
{
closed = 1;
nodes = (
"405 -10 OFFCURVE",
"495 103 OFFCURVE",
"495 259 CURVE SMOOTH",
"495 490 OFFCURVE",
"348 676 OFFCURVE",
"112 749 CURVE",
"112 716 LINE",
"297 651 OFFCURVE",
"402 481 OFFCURVE",
"402 264 CURVE SMOOTH",
"402 102 OFFCURVE",
"346 33 OFFCURVE",
"280 33 CURVE SMOOTH",
"182 33 OFFCURVE",
"140 141 OFFCURVE",
"140 226 CURVE SMOOTH",
"140 368 OFFCURVE",
"203 411 OFFCURVE",
"276 411 CURVE SMOOTH",
"327 411 OFFCURVE",
"365 389 OFFCURVE",
"405 348 CURVE",
"436 429 LINE",
"397 446 OFFCURVE",
"362 460 OFFCURVE",
"289 460 CURVE SMOOTH",
"160 460 OFFCURVE",
"50 378 OFFCURVE",
"50 215 CURVE SMOOTH",
"50 91 OFFCURVE",
"139 -10 OFFCURVE",
"270 -10 CURVE SMOOTH"
);
},
{
closed = 1;
nodes = (
"207 523 LINE",
"429 741 LINE",
"360 741 LINE",
"138 523 LINE"
);
}
);
width = 545;
},
{
associatedMasterId = m002;
layerId = "780638A0-15EB-4731-935B-C995310E228F";
name = "Dec 22, 21, 11:54";
paths = (
{
closed = 1;
nodes = (
"420 -10 OFFCURVE",
"532 95 OFFCURVE",
"532 264 CURVE SMOOTH",
"532 495 OFFCURVE",
"334 695 OFFCURVE",
"62 749 CURVE",
"62 699 LINE",
"247 634 OFFCURVE",
"347 516 OFFCURVE",
"347 269 CURVE SMOOTH",
"347 110 OFFCURVE",
"328 43 OFFCURVE",
"278 43 CURVE SMOOTH",
"232 43 OFFCURVE",
"205 108 OFFCURVE",
"205 235 CURVE SMOOTH",
"205 341 OFFCURVE",
"218 418 OFFCURVE",
"275 418 CURVE SMOOTH",
"321 418 OFFCURVE",
"335 383 OFFCURVE",
"358 336 CURVE",
"391 439 LINE",
"357 454 OFFCURVE",
"326 470 OFFCURVE",
"267 470 CURVE SMOOTH",
"130 470 OFFCURVE",
"25 366 OFFCURVE",
"25 230 CURVE SMOOTH",
"25 93 OFFCURVE",
"131 -10 OFFCURVE",
"275 -10 CURVE SMOOTH"
);
},
{
closed = 1;
nodes = (
"189 523 LINE",
"434 741 LINE",
"358 741 LINE",
"113 523 LINE"
);
}
);
visible = 1;
width = 557;
}
);
leftKerningGroup = kernLC_o2;
rightKerningGroup = kernLC_eth3;
unicode = 00F0;
},
